<?xml version="1.0" standalone="no"?>
<!DOCTYPE svg PUBLIC "-//W3C//DTD SVG 1.1//EN" "http://www.w3.org/Graphics/SVG/1.1/DTD/svg11.dtd" >
<svg xmlns="http://www.w3.org/2000/svg" xmlns:xlink="http://www.w3.org/1999/xlink" version="1.1">
<metadata>
Created by FontForge 20170731 at Fri Jan  1 02:30:17 1904
 By Aleksey,,,
ichigo candy
</metadata>
<defs>
<font id="Fuwa-Fude" horiz-adv-x="1024" vert-adv-y="1024" >
  <font-face 
    font-family="Fuwa Fude"
    font-weight="400"
    font-stretch="normal"
    units-per-em="1024"
    panose-1="2 0 6 0 0 0 0 0 0 0"
    ascent="880"
    descent="-144"
    x-height="356"
    cap-height="743"
    bbox="0 -202 1021 880"
    underline-thickness="48"
    underline-position="-168"
    unicode-range="U+0020-FFEE"
  />
<missing-glyph 
d="M402 258v220h220v-220h-220z" />
    <glyph glyph-name=".notdef" 
d="M402 258v220h220v-220h-220z" />
    <glyph glyph-name="glyph1" horiz-adv-x="0" 
 />
    <glyph glyph-name="nonmarkingreturn" horiz-adv-x="341" 
 />
    <glyph glyph-name="space" unicode=" " horiz-adv-x="512" 
 />
    <glyph glyph-name="exclam" unicode="!" horiz-adv-x="510" 
d="M253 -62l-41 28q-24 41 -27 92l31 51q31 21 75 14l41 -31q21 -44 17 -99l-24 -38q-30 -24 -72 -17zM240 202q-31 7 -55 34q-21 28 -21 65l4 17q-7 72 -19 142.5t-15 145.5l3 17q-14 45 -14 96l24 55l11 3v7q41 34 99 28q31 -7 55 -28l10 -10q24 -45 31 -98t3 -108
q-3 -48 -10 -92q17 -31 10 -69q-10 -44 -8.5 -95.5t-32.5 -89.5q-31 -24 -75 -20z" />
    <glyph glyph-name="quotedbl" unicode="&#x22;" horiz-adv-x="512" 
 />
    <glyph glyph-name="numbersign" unicode="#" horiz-adv-x="512" 
 />
    <glyph glyph-name="dollar" unicode="$" horiz-adv-x="512" 
 />
    <glyph glyph-name="percent" unicode="%" horiz-adv-x="512" 
 />
    <glyph glyph-name="ampersand" unicode="&#x26;" horiz-adv-x="512" 
 />
    <glyph glyph-name="quotesingle" unicode="'" horiz-adv-x="510" 
d="M117 581l-19 14q-13 13 -10 33l10 21l14 16l-47 39l-3 8h-5q-16 28 -13 65q5 23 18 42l8 3l5 7q29 24 71 19q44 -11 81 -48q21 -31 16 -75q-16 -36 -45 -68l-16 -10q-2 -31 -26 -57q-16 -11 -39 -9z" />
    <glyph glyph-name="parenleft" unicode="(" horiz-adv-x="512" 
 />
    <glyph glyph-name="parenright" unicode=")" horiz-adv-x="512" 
 />
    <glyph glyph-name="asterisk" unicode="*" horiz-adv-x="512" 
 />
    <glyph glyph-name="plus" unicode="+" horiz-adv-x="512" 
 />
    <glyph glyph-name="comma" unicode="," horiz-adv-x="510" 
d="M116 -106l-24 20l-3 24l21 38l-4 10h-7l-7 17q-37 17 -51 55l-3 41q13 45 44 82q31 28 76 24q30 -7 54 -34q24 -48 21 -106l-45 -123l-13 -14h-7l-14 -27z" />
    <glyph glyph-name="hyphen" unicode="-" horiz-adv-x="510" 
d="M164 246q-58 -3 -102 24v7l-17 11q-35 41 -28 99q4 31 24 58h7l3 10h7v7q72 34 158 28l51 -21l4 -10l92 -11l62 11l48 -28q24 -30 17 -75l-21 -38q-48 -37 -109 -34l-24 4q-28 -11 -59 -7v-7q-48 -38 -113 -28z" />
    <glyph glyph-name="period" unicode="." horiz-adv-x="510" 
d="M120 -96l-38 17l-20 24v7h-7q-14 34 -10 72l20 48l10 3l7 10q28 28 65 24l52 -13v-7l17 -10l27 -35l4 -65l-35 -55q-37 -30 -92 -20z" />
    <glyph glyph-name="slash" unicode="/" horiz-adv-x="510" 
d="M79 -38l-17 7v7h-7q-28 38 -21 85q34 79 68.5 158t68.5 158h7l4 20h6q14 45 33 89.5t36 88.5l17 21l24 44h7q27 52 55 100q30 24 72 17l27 -24q20 -41 20 -93q-13 -65 -51 -123h-7q-17 -45 -41 -84t-41 -84h-7q-20 -44 -44 -89h-7q-45 -72 -82.5 -144t-78.5 -144
q-17 -13 -41 -10z" />
    <glyph glyph-name="zero" unicode="0" horiz-adv-x="510" 
d="M253 -62q-54 10 -106 28v6l-13 7l-4 14h-10v7h-10q-35 48 -57 102.5t-22 116.5l3 14l-3 31l3 17l-3 13l3 17l-3 24q14 100 32.5 197.5t66.5 183.5l24 17q7 20 24 37l48 35l41 3v7l45 3q61 -13 120 -37v-7l10 -7q44 -48 34 -120q-10 -38 -34 -68l-21 -14v-10
q24 -31 34 -65v-141q-13 -24 -10 -51l4 -24q-14 -76 -29.5 -151t-63.5 -137l-10 -3l-14 -24q-34 -24 -79 -21zM301 51v7l4 7h7q51 86 61.5 188.5t13.5 208.5q-14 34 -17 76l3 13q-48 -3 -82 34l-27 21l-24 -17q-35 -99 -55.5 -205.5t-16.5 -219.5l7 -48h7l13 -44l41 -14v-7
l48 -7z" />
    <glyph glyph-name="one" unicode="1" horiz-adv-x="510" 
d="M332 -7l-27 24q-17 44 -17 94t-11 98v174q-10 21 -6 48h-14l-14 -24q-41 -37 -103 -27l-37 17v7l-21 14q-27 37 -20 85q17 52 51 93l127 123l68 10q38 -3 65 -31q21 -27 17 -65l-10 -130l7 -61l-3 -48l3 -59l-3 -24l3 -23l-3 -24l10 -223l-17 -38q-17 -13 -45 -10z" />
    <glyph glyph-name="two" unicode="2" horiz-adv-x="510" 
d="M164 27l-13 11v6h-7l-10 41l24 42l10 3v7l17 7l17 31l24 13v10h7q7 28 31 48l24 24l10 7l24 52l17 13v11h7q31 72 20 164l-10 3v11l-24 7l-7 10q-34 0 -65 13l-7 -10l-37 -37l-11 -52l7 -48q-3 -55 -44 -96q-21 -17 -52 -17l-27 7v7l-17 7q-41 51 -38 120q7 48 17.5 94
t37.5 87l17 17l4 11h6l7 13l11 4l3 13q45 59 120 48q62 -10 113 -37v-7l10 -7l7 -14l31 -13l20 -45l11 -3q17 -42 20 -89l-3 -11l3 -65q-3 -68 -41 -123h-7l-7 -21h-10q-3 -24 -24 -44l-17 -14l-10 -24h-7v-7l-21 -20h-6l-4 -17l38 -11l24 4l10 -4v-6q17 0 27 -14
q14 -28 11 -65l-21 -38l-38 -7l-6 4l-7 10q-55 14 -113 17q-17 -17 -41 -20v-7z" />
    <glyph glyph-name="three" unicode="3" horiz-adv-x="510" 
d="M271 -28q-45 0 -79 18v6l-24 14l-4 10h-6l-7 52l7 17h6l4 10h7l3 10l38 4q24 -14 51 -21q28 0 52 17q13 35 10 76l-10 7l-4 17h-7l-20 27h-7v7l-65 7l-24 -7l-38 10q-20 21 -17 48l21 31l34 3l3 11q52 3 96 27l28 31q30 58 34 130l-21 34l-51 11q-28 -28 -62 -48
q-3 -31 -24 -55l-24 -14v-7q-34 -17 -75 -10l-38 21l-3 10h-7l-10 10q-24 41 -21 96q17 65 65 116q34 31 76 59q54 34 126 31q52 -24 100 -55q58 -45 89 -106q20 -59 24 -120q-28 -79 -69 -154l-34 -31h-7l-10 -24l7 -4l37 -51q24 -55 14 -120q-14 -51 -45 -96l-34 -31h-10
v-6q-34 -21 -75 -18z" />
    <glyph glyph-name="four" unicode="4" horiz-adv-x="510" 
d="M308 -55q-31 14 -41 45l-3 37q17 58 20 124h-99l-45 -42l-37 -3l-21 10l-17 17q-34 42 -31 96l4 17l-7 96l10 69l-3 27l13 38v192l28 48l13 13q28 17 66 14l37 -17q48 -51 38 -127l-4 -48l4 -109q-10 -45 -22 -89.5t-12 -92.5l96 -3l13 3q-3 34 7 62l-3 24q17 58 29 118
t25 118h7v7l24 3l14 -10q21 -55 14 -123l-11 -82l4 -31q-4 -41 -17 -76h24l24 4l27 -21l10 -44l-20 -41l-34 -11l-31 4q-4 -48 -17 -96l3 -24q-3 -45 -27 -82q-21 -17 -52 -14z" />
    <glyph glyph-name="five" unicode="5" horiz-adv-x="510" 
d="M240 -48l-28 7v7l-10 3q-41 34 -31 89l7 14h7l3 10h7v7q17 14 45 10l31 -17l10 -14l14 -3v-7l37 -3l24 20q10 62 7 127l-14 34q-41 28 -92 31l-31 -24q-17 -34 -51 -51l-65 -4l-14 4v6l-31 18q-34 41 -27 99q10 89 29 173t36 169h7q0 45 13 86h7l10 24l18 7v7l61 10
q34 -7 58 -38q24 -78 18 -168l27 -3q65 10 130 24l21 -10q24 -24 20 -62l-20 -34q-41 -17 -89 -20.5t-96 -10.5l-17 3q-7 -37 -11 -75l62 -10v-7l38 -21l3 -10l17 -10l4 -10h13l11 -11q41 -51 46 -116t5 -130l-14 -24h-7l-6 -31h-7l-4 -14l-10 -10l-14 -3l-3 -11h-7l-7 -13
q-55 -21 -120 -14l-13 3z" />
    <glyph glyph-name="six" unicode="6" horiz-adv-x="510" 
d="M240 -40q-38 17 -76 31v7l-10 3l-24 27v7l-14 7l-3 10h-7q-27 55 -44 111.5t-28 118.5l4 10l-4 24l4 14l-4 65l4 41l-4 41q21 75 45 149t65 142l17 17q48 17 103 11q55 -7 106 -24v-7q44 -11 82 -35l3 -10h7l14 -24h7q17 -41 14 -92q-11 -28 -24 -55h-7v-7h-7l-7 -14
q-38 -27 -86 -20l-44 24l-62 61l-31 7q-37 -54 -49 -121t-9 -139h11q51 27 116 17q55 -10 99 -48l4 -10l10 -7l14 -10l7 -28h6v-30l-6 -48l3 -31q-14 -72 -72 -127l-62 -38v-6q-27 -18 -61 -14zM274 97l14 7l10 17l24 10q20 34 17 79l-99 10l-45 -27v-17l21 -45l13 -10v-7h7
l7 -17l21 -7z" />
    <glyph glyph-name="seven" unicode="7" horiz-adv-x="510" 
d="M332 -21l-20 14q-17 68 -17 144q17 109 41 219t65 209l-28 7l-17 -4l-65 4l-41 -11l-10 4l-38 -7q-14 -41 -19 -85.5t-32 -82.5l-14 -13l-48 -11l-41 21q-31 41 -31 96q10 24 7 51l-7 58l4 21l-4 27q4 41 31 76l10 10q28 17 65 14l35 -18l17 -30h7l10 -35q31 -10 68 -6
q55 13 113 13q35 0 62 -13l20 3l28 -7v-7h7l10 -41q-55 -120 -85.5 -248.5t-48.5 -261.5q14 -31 11 -69l-14 -30z" />
    <glyph glyph-name="eight" unicode="8" horiz-adv-x="510" 
d="M253 -86q-24 0 -44 17l-7 21h-7l-13 14q-31 65 -45 140q3 48 12 91t29 84l-7 3v7h-7q-13 24 -41 41l-7 14l-30 31q-18 41 -41.5 77t-20.5 84l3 10l-6 113q13 55 41 103q41 37 96 44v7h78q55 -17 110 -45l10 -10v-7l14 -3v-10l24 -7l14 -14v-7l10 -3l10 -28l14 -6
q44 -66 41 -151q-7 -41 -38 -76q-31 -27 -72 -20l-10 3q-21 -44 -44 -85h-7l-11 -28q24 -17 45 -44v-7l10 -3v-7h7v-7h7q20 -45 34 -94.5t10 -104.5q-13 -34 -24 -68l-20 -24v-7h-10l-7 -10q-45 -28 -100 -28zM305 34l14 7v7h6l4 58q0 45 -28 79l-13 3l-11 21l-13 3v7l-24 7
q-4 -31 -11 -58q4 -72 35 -130l37 -7zM250 387l3 7h7q0 20 17 37h7l28 38h3v14q-10 55 -41 99l-10 3v7l-45 7v7l-37 10l-14 -10q-17 -34 -10 -79q30 -79 89 -144z" />
    <glyph glyph-name="nine" unicode="9" horiz-adv-x="510" 
d="M312 -93l-28 24q-17 72 -10 151q17 79 24 164h-3l-4 -6q-51 -24 -113 -21l-44 17l-21 17v7h-10v7l-11 7l-20 37h-7q-34 59 -41 127q7 52 10 106l-3 24l31 79h6q14 34 35 65l20 10l11 21q51 51 126 51q48 -13 89 -37l48 -38l24 -31l28 -24q44 -58 37 -133q-7 -24 -17 -48
l-14 -14h-6l-14 -14q-27 -96 -39 -198.5t-36 -198.5l3 -14q3 -61 -14 -116h-7l-10 -14h-7v-7h-13zM240 332v7l10 17l24 17l3 10h7l35 69h6q11 20 17 41h-6q-11 41 -31 75l-21 7l-17 21l-55 13l-7 -10l-20 -7l-7 -10q-44 -72 -44 -164l10 -28h7q7 -27 34 -41v-7h10v-7z" />
    <glyph glyph-name="colon" unicode=":" horiz-adv-x="510" 
d="M233 10l-51 34q-24 31 -21 72l21 48l10 4q3 13 20 17q31 17 72 10l45 -31q27 -34 20 -82l-20 -41l-10 -10q-35 -28 -86 -21zM233 538q-31 6 -51 34q-24 31 -21 75q7 34 34 58q34 24 79 21q34 -7 58 -38q24 -34 17 -82l-30 -48q-35 -27 -86 -20z" />
    <glyph glyph-name="semicolon" unicode=";" horiz-adv-x="510" 
d="M219 -4l-17 10l-10 34l7 24q-31 24 -24 65l10 28h7l3 10h7v7l55 10l38 -24q17 -24 17 -55l-14 -41h-7l-7 -10l-24 -48q-17 -14 -41 -10zM212 619l-17 7v7l-17 10q-20 24 -17 58q3 24 24 41l14 4v7l44 3l34 -17l7 -17h7l7 -48l-24 -38q-24 -20 -62 -17z" />
    <glyph glyph-name="less" unicode="&#x3c;" horiz-adv-x="512" 
 />
    <glyph glyph-name="equal" unicode="=" horiz-adv-x="512" 
 />
    <glyph glyph-name="greater" unicode="&#x3e;" horiz-adv-x="512" 
 />
    <glyph glyph-name="question" unicode="?" horiz-adv-x="510" 
d="M257 -99l-28 17l-27 30l-7 55q7 35 34 58q28 18 62 14l41 -17l17 -17q14 -34 11 -75q-4 -31 -31 -52q-31 -20 -72 -13zM240 168l-11 3q-27 31 -24 75q14 59 52 107l34 20v7h7v7h10v7h11v7l34 10v10h7l3 10l10 4q28 27 24 65q-3 55 -27 103q-38 27 -86 30q-27 -3 -48 -20
l-3 -7h-7v-10l-14 -4q7 -51 -13 -89h-7l-4 -13h-6l-4 -11l-14 -3l-10 -14l-62 -7l-44 24l-10 21h-7q-21 31 -17 72q3 85 58 150l41 31v7l45 10l3 11h7v7l58 10q45 -7 92.5 -12t89.5 -29l47 -41v-7h7q41 -69 41 -151q-10 -48 -23.5 -96t-58.5 -82l-10 -3l-3 -14
q-35 -28 -72 -41q-41 -69 -48 -147q-21 -11 -48 -7z" />
    <glyph glyph-name="at" unicode="@" horiz-adv-x="510" 
d="M240 -79l-41 21l-14 13l-7 17h-14v7l-58 35l-10 24h-7q-27 54 -41 114t-17 125l3 113l-3 24q10 52 25.5 103t32.5 103h7v13h7q20 42 51 79l10 4l7 17l38 20v7l20 4l45 -21v-7q65 -7 120 -41l10 -10l21 -21q27 -51 39 -107.5t19 -114.5q-4 -72 -16 -139t-32 -132l10 -41
q-10 -72 -51 -134h-7v-10l-24 -10q-17 -34 -51 -48q-35 -10 -72 -7zM291 24v7l31 13l14 24l24 7l10 41q-21 -3 -38 11l-10 6l-3 -17h-7l-14 -31l-10 -3v-7h-31l-10 4l-21 -4l-17 14v10h-7l-17 38h-7q-27 68 -38 147q4 69 17.5 134t58.5 116q17 14 44 10l45 -17v-7l51 -17
l10 -10q42 -51 31 -127l-24 -61l-10 -4l-7 -24l4 -13l-7 -31l10 -35h10l17 24h7q21 48 29.5 99.5t11.5 106.5q-30 75 -61 151q-17 3 -31 17v7q-55 3 -99 24v6h-31l-28 -27l-10 -3l-10 -24h-7q-31 -69 -48 -146t-10 -163q7 -51 15.5 -99t45.5 -86l11 -3v-7q34 -3 58 -34
l3 -10zM264 181v4q24 51 31 106l-11 3v7h-7l-17 17l-20 -82q0 -34 20 -58z" />
    <glyph glyph-name="A" unicode="A" horiz-adv-x="510" 
d="M110 -45l-21 11v6l-14 7l-3 11h-7q-27 48 -24 109q55 171 113 337.5t127 330.5l27 7l21 -24l3 -38l-7 -20q14 -107 45 -208t55 -207h7q10 -55 28.5 -106t25.5 -106l-13 -31h-7v-7l-31 -3l-7 3v7h-7q-24 62 -36 128.5t-22 131.5l-14 4l-10 -4v-6q-24 -14 -55 -14l-61 14v3
h-7q-14 -62 -11 -130l7 -110q-7 -37 -27 -68l-10 -11l-28 -10v-7h-37zM305 390l34 14v14q-14 48 -15.5 101t-25.5 94v-4h-7q-17 -54 -29 -109t-22 -113h37l18 3l6 -3z" />
    <glyph glyph-name="B" unicode="B" horiz-adv-x="510" 
d="M127 -10l-35 17q-27 44 -28.5 99t-12.5 106l4 17l-10 137l3 17l-3 42l6 61l-17 134l31 65q27 31 72 27q34 -3 58 -27q28 -34 31 -79h14l17 24q58 38 130 34l38 -24q27 -55 20 -120q-13 -58 -61 -102l-7 -4v-7l58 -30q24 -28 31 -62h7l6 -120l-27 -65l-10 -10l-17 -17
q-65 -42 -151 -35l-31 17l-10 21h-10q-4 -51 -24 -96q-31 -27 -72 -20zM366 216q28 24 24 61l-30 38l-69 3l-55 -13l-3 -83h3l38 7q34 -24 75 -24zM288 411q20 41 54.5 75t27.5 86l-4 13l-20 4l-58 -21l-7 -10l-24 -14v-6h-10q-18 -48 -11 -103l4 -31h34z" />
    <glyph glyph-name="C" unicode="C" horiz-adv-x="510" 
d="M253 -4q-65 4 -109 62l-17 31h-7q-45 96 -72 198.5t-27 212.5l6 27h7q7 55 41 100l11 3l6 10q35 45 83 57t99 15q48 0 91 -17t84 -41l10 -10q31 -45 27 -106q-10 -38 -27 -69h-7l-3 -10l-41 -21v-7l-66 -6q-65 27 -137 37l-27 -37h-7q-27 -59 -31 -127q4 -52 21 -98
t51 -84q31 -24 72 -17l11 4l3 10h7l7 10l24 38l10 3q7 31 31 55l37 10l11 -3v-7h7q20 -21 17 -51q-14 -69 -62 -124l-24 -10v-7h-7v-7h-10v-6q-41 -24 -93 -18z" />
    <glyph glyph-name="D" unicode="D" horiz-adv-x="510" 
d="M137 -31l-27 24v7h-7q-17 72 -31 144t-14 150l4 45q-14 55 -17.5 111.5t-6.5 114.5l3 10l-7 89q7 38 31 72l14 4v6q27 14 65 11l20 -11v-6l14 -4q38 -58 38 -133h7q37 41 99 30l48 -6v-7l20 -11l4 -10l17 -7q51 -61 65 -138t14 -160q-17 -61 -38 -119h-7q-13 -35 -31 -66
h-6v-6l-11 -11l-20 -24h-7l-14 -20q-55 -21 -120 -14l-17 10l-10 17h-7q0 -47 -34 -82zM229 168l31 7l76 -4l10 14l38 48q20 37 25 81.5t2 92.5q-7 52 -27 96l-14 14q-24 31 -58 31q-52 0 -89 -28l-7 -171v-140l3 -45h7z" />
    <glyph glyph-name="E" unicode="E" horiz-adv-x="510" 
d="M134 -24l-11 3l-10 11q-14 34 -10 78l7 28v205q3 48 8 96t5 96l-41 10v7l-10 4l-4 10h-6q-31 41 -28 99q7 34 24 65l28 24l89 14q24 -17 54 -14l35 4l27 -4q65 17 134 17l20 -7v-6l14 -4l3 -10l11 -4q27 -41 20 -99q-7 -27 -20 -51q-55 -31 -118.5 -46.5t-128.5 -22.5
l-38 4v-31l4 -27q-10 -42 -7 -86h14q61 10 123 14l14 -7q20 -24 20 -55l-17 -31l-17 -3v-7h-21q-61 7 -119 14l-4 -62l7 -127h27q59 0 113 10v7l38 4l27 -17q14 -18 11 -41l-14 -24q-38 -18 -82.5 -23t-92.5 -1l-20 3q-24 -17 -58 -17z" />
    <glyph glyph-name="F" unicode="F" horiz-adv-x="510" 
d="M161 -55q-38 55 -24 130l3 28l-3 3v161q7 72 10 144l-3 99h-17l-35 -3l-20 10v7l-10 3v7h-7q-28 45 -24 99l24 69l13 14q62 13 127 17l62 -7q41 17 89 20l92 -17v-7l14 -6l3 -11h7q24 -44 17 -99l-24 -58q-54 -28 -121 -33t-132 -8l-3 -69q10 -34 6 -75h14l14 3l14 -3
q44 17 99 14q20 -24 14 -62l-7 -14q-34 -24 -79 -27l-38 7l-13 -4l-14 4l-4 -17v-261l-13 -48h-7v-7z" />
    <glyph glyph-name="G" unicode="G" horiz-adv-x="510" 
d="M363 -89l-10 3q-31 62 -21 141h-7l-17 -7v-7q-51 -27 -116 -17q-34 3 -62 24l-3 10h-7l-38 45q-31 58 -31 128t-6 139q10 78 20 158.5t48 149.5l51 44h7v7l11 11h10v6q48 11 96 18l20 -4l31 4l65 -28v-7h14v-7l20 -10q45 -55 38 -133q-7 -38 -27 -72l-38 -31l-58 -7
l-52 31v7q-41 7 -78 17l-41 -31q-28 -58 -38 -125t-10 -135q10 -52 41 -93l27 -7v-6h55v6l44 11l11 27l10 4q24 41 20 95h-13l-17 -3l-11 3l-51 -10l-14 10v14h-7v21l7 13q45 28 96.5 40t105.5 22l21 -10q17 -28 10 -62l-14 -20h-6v-7l-31 -11v-30l3 -31l-3 -21l3 -31
l-3 -68l3 -34q4 -76 -24 -137z" />
    <glyph glyph-name="H" unicode="H" horiz-adv-x="510" 
d="M435 -17l-21 13q-13 55 -20 110l3 14l-7 17v157h-24q-61 -20 -133 -13l-45 13q0 -48 -6.5 -94t-6.5 -97l7 -38l-21 -48l-10 -3v-7l-41 -11l-18 7v7l-10 4q-34 47 -31 109l4 10l-14 113l4 14q-21 86 -26 180t-9 190q7 41 31 75q34 35 82 31l38 -17l3 -10l11 -7
q37 -51 30 -120l-6 -62v-147q54 -14 116 -10v7l69 10q3 62 3 123.5t21 116.5l27 7l14 -11q13 -48 27 -96v-147l7 -14v-208l10 -124l-17 -34q-17 -14 -41 -10z" />
    <glyph glyph-name="I" unicode="I" horiz-adv-x="510" 
d="M332 -45q-89 -3 -168 28l-10 41l14 24q34 17 72 17v89q-11 58 -16 119.5t-15 120.5l3 51l-7 62q-68 -4 -123 24v7l-17 10q-31 37 -27 92l13 45h7l4 13h6l4 11h7v7l13 3v7q62 20 134 17l21 -3l34 3q72 7 123 -31l10 -10q28 -34 28 -82l-17 -59h-7q0 -17 -17 -27l-14 -3v-7
q-31 -14 -68 -17l-21 3v-17q14 -96 22.5 -195.5t15.5 -198.5l-4 -27h7l65 10l34 -21l14 -44l-14 -31q-48 -31 -106 -31z" />
    <glyph glyph-name="J" unicode="J" horiz-adv-x="510" 
d="M192 -28l-17 7v7q-28 7 -48 28q-35 51 -53.5 109t-22.5 123q7 42 31 76l34 10l21 -14q7 -48 15.5 -97.5t32.5 -93.5h7v-11l31 -10l24 7q17 51 20 106q0 55 -10 106l3 31l-7 79l4 75h-14q-38 -10 -79 -10q-54 3 -102 24l-11 10q-34 45 -27 106q3 31 17 55l10 3v11l21 10v7
l51 7q59 -17 124 -19t123 -22l68 3l11 -3v-7l17 -10q27 -35 20 -83l-17 -44q-58 -34 -133 -34v-113q6 -42 8 -86.5t5 -88.5q0 -55 -10 -104.5t-34 -94.5l-10 -3v-7l-21 -21l-31 -10v-7z" />
    <glyph glyph-name="K" unicode="K" horiz-adv-x="510" 
d="M127 -58l-14 6v7l-10 4q-21 65 -22.5 140.5t-15.5 143.5l3 21q-13 102 -27 203t-24 204q4 45 31 79l10 3l4 11h10v6l62 7l30 -17v-7l11 -7q30 -41 30 -99l-3 -14q10 -44 10 -93.5v-101.5h14l24 10l7 11l17 17l21 7l3 10l14 3l27 42h7l3 13l11 7v7q20 20 54 14
q28 -24 21 -59l-31 -61h-7l-17 -34h-7v-7h-7v-11h-10l-10 -17l-14 -13h-10v-7l-21 -11v-6h-6v-7l34 -24l13 -24q24 -7 45 -21l3 -10l38 -14l7 -10l38 -21l3 -10q14 -3 17 -17v-20l-7 -14l-44 -10q-72 37 -141 89l-13 24l-24 3q-24 24 -55 38q-14 -62 -14 -130l4 -35l-4 -17
l4 -10q0 -82 -24 -154l-11 -4v-7z" />
    <glyph glyph-name="L" unicode="L" horiz-adv-x="510" 
d="M127 10l-17 17h-7q-21 130 -36.5 258.5t-25.5 258.5l4 21l-7 92q3 41 30 76l11 10l17 3v7l41 4l24 -11l3 -10l14 -7q34 -72 34 -161l-3 -13l3 -48l-10 -117l3 -48q-3 -51 -6.5 -102.5t-6.5 -102.5h51q69 -4 123 27l4 7h7l3 10q31 17 69 17l24 -27l3 -48l-14 -31h-7v-7
l-44 -10v-7q-45 -20 -96 -27l-130 7l-34 -38h-24z" />
    <glyph glyph-name="M" unicode="M" horiz-adv-x="510" 
d="M103 -14l-24 17q-55 52 -48 127l3 72q-10 65 -13 133q6 86 18 168t57 151h7v10h7l3 11l27 3l18 -10q10 -103 40.5 -199t65.5 -192l10 -3q34 106 63 215.5t57 219.5l20 7l14 -7q17 -28 17 -62l-7 -58q21 -99 31 -202t28 -206l-7 -34h-7v-10l-34 -7l-21 24l-20 205l3 31
l-7 31l4 10l-4 21h-7q-20 -79 -47.5 -154.5t-54.5 -150.5l-24 -10l-24 20q-21 52 -36.5 108.5t-35.5 107.5h-7v-20q10 -65 17 -132t7 -136q-10 -44 -34 -82h-7v-7q-21 -13 -48 -10z" />
    <glyph glyph-name="N" unicode="N" horiz-adv-x="510" 
d="M103 -48l-21 10v7l-14 7l-13 14q-31 75 -24 167l7 72l-4 41l4 14l-4 31l4 17l-4 38l4 17l-4 31q4 54 12.5 109t28.5 103q24 21 55 17l24 -14q24 -65 58 -126l7 -4q28 -75 60.5 -147t69.5 -144l38 -31q0 21 7 38l-4 24q7 38 14 79v144q4 54 4 110.5t20 104.5l24 7l10 -7
q17 -41 15.5 -90.5t1.5 -97.5l-6 -92l3 -72l-17 -206l7 -55l-21 -34l-51 -10q-41 20 -58 61v7h-7l-10 11v6l-11 4v10l-17 10l-17 42h-7q-3 20 -14 41h-6q-31 61 -48 126h-7v-17q3 -72 15 -140.5t12 -140.5q-7 -34 -27 -61l-10 -4l-4 -10h-7v-7q-31 -17 -68 -10z" />
    <glyph glyph-name="O" unicode="O" horiz-adv-x="510" 
d="M243 -69q-65 11 -120 48l-17 17q-44 65 -63 144t-19 165l3 10l-3 31l7 65l-4 41q7 48 26 89t26 86h7q24 41 51 82l24 13l10 21l11 3v7q34 28 78 24l21 -7l34 4l45 -21v-7l10 -3q48 -55 38 -130q-7 -48 -45 -86q-34 -31 -86 -24l-17 4l-24 -38l-27 -38
q-21 -48 -27.5 -102.5t-13.5 -109.5q3 -58 24 -113q44 -31 103 -27l37 13q14 59 31 113l-3 24l6 89l-20 127l17 38q24 17 55 13l24 -17q31 -51 37.5 -114.5t6.5 -128.5q-7 -65 -20.5 -126.5t-47.5 -116.5q-28 -31 -62 -48q-55 -14 -113 -14z" />
    <glyph glyph-name="P" unicode="P" horiz-adv-x="510" 
d="M116 -72l-30 31q-11 41 -7 89l3 44q0 86 -10 165l7 34q-14 99 -26 202t-15 205q3 52 37 90l11 3v7q24 14 51 10l24 -10v-7l17 -10q41 -69 34 -158h7v4h7v6h7l3 11q62 44 144 37l34 -24l4 -10h7l10 -10q34 -48 41 -108t7 -122q-14 -68 -58 -126l-11 -4v-7l-10 -10l-38 -20
l-10 -14h-7v-7q-41 -17 -89 -14l-13 11v6h-7l-7 11h-7v7l-21 3l-23 -164l3 -11l-3 -10l3 -44q-3 -42 -24 -72q-17 -18 -45 -14zM329 349l24 10l3 11l24 13l17 31l11 7q20 45 13 99q-10 41 -44 76l-69 7l-48 -21l-3 -14h-7l-21 -37h-6l-7 -110q27 -17 44 -44v-7h7l21 -21
l37 -3z" />
    <glyph glyph-name="Q" unicode="Q" horiz-adv-x="510" 
d="M212 -45l-54 28l-38 51l-10 4l-4 10h-7l-7 24h-6q-41 65 -51.5 142t-13.5 156l3 10l-3 31q6 85 23.5 167.5t71.5 150.5l11 4v7q27 27 68 24q28 -4 45 -28q37 -55 31 -130q-7 -48 -45 -86q-24 -17 -58 -13q-17 -52 -22.5 -108.5t-5.5 -114.5q-3 -86 42 -151l17 -10l17 -20
l58 -4q17 31 27 65q-48 62 -48 144l21 21h21l24 -18v-6h6v-7h7l10 -7l14 68l-3 28q10 38 7 82q-35 65 -52 137l21 41h31v-7l24 -10l3 -10l14 -7q37 -75 44 -161l-3 -27l3 -35q-7 -48 -12 -96t-15 -96l44 -27l4 -10h7v-7l10 -3q17 -28 14 -62l-11 -31h-7v-7l-13 -3v-7l-41 -3
l-35 17l-20 20q-10 -27 -24 -51h-7v-7h-7l-7 -24h-6v-7l-21 -10v-7h-7v-7q-38 -10 -79 -7z" />
    <glyph glyph-name="R" unicode="R" horiz-adv-x="510" 
d="M110 -62l-31 28q-11 37 -7 82q20 44 17 103q0 68 -10 130l3 20q-17 82 -30.5 162.5t-30.5 163.5l6 24l-3 41q3 48 41 82q24 20 62 17l31 -14v-7l10 -6l10 -7q31 -52 21 -117h13v7l11 10q68 48 154 48l20 -7v-6l21 -11q31 -37 43 -85t8 -100q-10 -44 -34 -83.5t-58 -73.5
l-17 -10v-11l30 -78l7 -4q24 -51 55 -103l7 -3q38 -58 38 -130l-11 -28l-24 -3l-41 17q-17 34 -31 69h-6q-24 44 -48 90.5t-31 97.5h-7l-10 45l-35 3v7l-20 7l-14 13h-17v7h-10v-31l3 -41q-10 -37 -7 -78l4 -18q3 -58 -10.5 -107.5t-34.5 -97.5q-17 -14 -37 -14zM336 414
l3 7l10 10l21 17q31 42 34 93q-3 38 -24 65l-31 10q-58 -13 -106 -48l-27 -24h-7v-6h-10l-4 -42l34 -58l35 -13v-7l41 -7v-7h14z" />
    <glyph glyph-name="S" unicode="S" horiz-adv-x="510" 
d="M171 -65q-34 3 -61 24l-24 20q-55 69 -52 158q4 27 28 44l10 4v7l31 3l24 -10v-10l10 -4v-7h7q20 -34 31 -75q44 -14 96 -17q48 7 92 27l7 69q-41 24 -87.5 37.5t-90.5 30.5l-34 28l-28 30v7l-20 10l-21 24l-24 48h-7q-31 72 -31 158q0 55 22.5 99.5t49.5 85.5h7l7 10
q62 69 158 62q48 0 89 -17v-7q30 -4 58 -24l27 -28v-6h7v-7h7q38 -52 31 -120l-14 -41h-7l-20 -31l-11 -3v-7q-37 -24 -89 -17l-44 24v6l-100 31l-17 -7q-24 -44 -24 -99q21 -44 52 -86l34 -27v-7l137 -44v-7l48 -24q41 -55 34 -127q-3 -68 -51 -120l-103 -48v-7
q-72 -10 -144 -13z" />
    <glyph glyph-name="T" unicode="T" horiz-adv-x="510" 
d="M281 14l-14 10q-17 20 -14 51l4 24l-4 93l4 78l-7 38v158h-27l-35 -4q-34 10 -75 7l-31 -3q-41 17 -55 58l-10 72q4 41 24 75h7l3 10l11 4v7q41 10 85 6q52 -13 100 -27q54 -3 98.5 12t99.5 15l34 -27q18 -34 18 -72q0 -48 -35 -82q-48 -24 -102 -27v-7l-45 -17v-155
l4 -3v-185l3 -17l-3 -27l3 -24l-14 -31z" />
    <glyph glyph-name="U" unicode="U" horiz-adv-x="510" 
d="M267 -48q-38 7 -72 27l-37 38q-76 120 -96.5 265.5t-40.5 289.5q6 44 30 79l11 3v7l13 3v7l59 7l20 -7v-7l14 -3v-7l10 -7q31 -48 36 -104.5t2 -117.5l-7 -14l7 -48v-161q0 -62 41 -103l38 -7l17 11l7 20h6l7 14l14 3l7 21h7l6 34h7v10h7q24 76 28 161l-4 48l4 17
q-21 72 -28 151l14 27l31 4l10 -17h7q17 -55 27 -111.5t14 -114.5q-4 -86 -17.5 -166.5t-51.5 -152.5h-6l-4 -13l-24 -14l-10 -24l-48 -28v-6h-14v-7z" />
    <glyph glyph-name="V" unicode="V" horiz-adv-x="510" 
d="M315 -48l-24 17q-82 158 -162.5 317t-107.5 337q3 34 20 65h7l17 24l48 10l41 -24v-10h7q31 -130 77 -250t98 -246h6q45 109 58.5 229t48.5 233l30 3v-6h7q14 -31 11 -69q-38 -154 -72.5 -310t-64.5 -313z" />
    <glyph glyph-name="W" unicode="W" horiz-adv-x="510" 
d="M178 -58l-27 30q-38 155 -75.5 307t-58.5 310q4 55 34 96h7v7l41 10q35 -17 48 -51q21 -90 34.5 -180.5t10.5 -189.5h10q7 82 19 164t32 161l24 3q24 -95 38 -196.5t41 -200.5h7q10 99 29 198.5t29 202.5l-3 31q0 24 14 41l27 7l20 -21l7 -58q-27 -158 -47.5 -319
t-54.5 -318h-7l-4 -10h-17l-24 30q-13 96 -28.5 192t-32.5 185q-11 -109 -24.5 -217t-44.5 -208z" />
    <glyph glyph-name="X" unicode="X" horiz-adv-x="510" 
d="M123 -52l-24 24l-7 48q28 52 55 103h7q17 55 41 110l-48 65h-7l-41 106h-7q-27 55 -47.5 111.5t-23.5 121.5q3 55 37 96q24 20 55 17l34 -21q31 -68 56.5 -140t63.5 -137h10l28 130h7l34 96h7l7 17l27 3l17 -10q21 -31 17 -72q-13 -44 -31 -85h-6q-11 -48 -23 -92.5
t-25 -89.5l20 -44h7l21 -48h6l52 -86l37 -24v-7h7q17 -34 14 -75q-3 -31 -27 -51l-31 -4l-10 14q-42 27 -83 48l-20 17l-41 38l-11 24l-10 6l-14 7q-24 -75 -61 -144h-7q-10 -34 -34 -61z" />
    <glyph glyph-name="Y" unicode="Y" horiz-adv-x="510" 
d="M267 -99l-17 17q-21 34 -17 78q10 79 13.5 158t10.5 157h-7v7l-24 14l-7 10l-20 7q-65 79 -115 163t-67 183q4 38 24 69h7l10 17q31 24 72 17l38 -24l14 -14q34 -72 58 -147t51 -151h7q38 41 55 93l10 3v7h7l31 55h7l3 10l10 3l11 18l41 10q17 -4 20 -21v-24
q-17 -58 -58 -109h-7l-41 -79l-14 -10q-17 -41 -42.5 -80.5t-18.5 -91.5l3 -106l-3 -96l7 -54l-7 -24l3 -31l-14 -28z" />
    <glyph glyph-name="Z" unicode="Z" horiz-adv-x="510" 
d="M103 20l-21 11v7l-10 3q-14 27 -17 58l13 38h7v7l28 27v7h7l6 17l21 21l10 24h7v6h7v7h7q41 72 85 141l24 10q4 41 28 72h-17q-21 -10 -45 -7q-24 10 -51 7l-45 -7l-17 3l-31 -3l-54 27q-38 45 -38 107q7 44 34 78q38 38 96 28l21 -7v-7l71 -3l59 3q48 3 89 -10.5
t78 -33.5v-7h7v-11h7q14 -24 10 -58q-13 -65 -41 -123h-6l-76 -144l-24 -24h-7l-6 -20l-11 -4l-20 -44l-38 -59h27q65 24 141 21l20 -7l35 -38v-6l13 -4q14 -24 11 -55l-14 -27q-17 -14 -45 -10l-17 10l-7 17h-10v7l-62 3q-58 -20 -121 -22t-118 -26z" />
    <glyph glyph-name="bracketleft" unicode="[" horiz-adv-x="512" 
 />
    <glyph glyph-name="backslash" unicode="\" horiz-adv-x="510" 
d="M288 -38l-28 17q-17 28 -13 65l-24 4l-31 -7q-24 10 -34 34l-4 38l17 31l11 3v7q30 21 68 21v30l-24 7l-34 -7l-28 7v7l-13 3l-7 42q10 24 38 34l51 17v7l-4 27l4 76h-7q-24 -18 -55 -18l-34 11v7l-21 13q-24 34 -34 76h-7q-27 41 -46 83.5t-19 94.5l21 51h7v10
q30 24 72 21l37 -21q31 -44 55 -96l10 -3q31 -45 45 -93h7l13 7l7 14l11 3l6 11l28 31h7v10h6v7l18 17h6q11 41 35 79l10 3v7l34 3l31 -20q14 -24 14 -55q-11 -31 -28 -58l-30 -35v-6h-7l-4 -18l-17 -17h-10l-10 -30l-24 -11v-7h-11q-3 -17 -17 -30l-7 -4v-14h7l4 -99
q27 4 48 -14l3 -13h7l3 -41l-13 -28l-35 -13v-11l4 -27l75 -14v-7q17 0 21 -17l3 -37l-14 -28q-34 -24 -82 -20v-7l4 -24q0 -38 -18 -69q-20 -20 -54 -17z" />
    <glyph glyph-name="bracketright" unicode="]" horiz-adv-x="512" 
 />
    <glyph glyph-name="asciicircum" unicode="^" horiz-adv-x="510" 
d="M360 568l-45 24q-20 28 -27 62l-45 7q-3 -38 -27 -65q-34 -31 -86 -24l-38 20l-13 14q-24 31 -17 75q27 59 65 113l20 7v7q45 27 100 31l30 -7l14 3q72 -13 127 -61q31 -69 37 -147l-17 -35q-30 -31 -78 -24z" />
    <glyph glyph-name="underscore" unicode="_" horiz-adv-x="512" 
 />
    <glyph glyph-name="grave" unicode="`" horiz-adv-x="512" 
 />
    <glyph glyph-name="a" unicode="a" horiz-adv-x="510" 
d="M205 -41l-27 13q-20 42 -31 86q4 55 28 99h7q10 35 30 65h7l4 11l10 3l3 7q45 31 106 27l18 -3l10 116l-17 62l-38 17q-41 -24 -86 -44q-27 -59 -54 -117q-31 -27 -76 -20l-37 20q-35 45 -31 103q7 55 48 96l31 17v7q54 27 110.5 46t121.5 15l14 -6v-7q28 -7 52 -28
q27 -37 35.5 -83.5t15.5 -94.5q-14 -61 -34.5 -117.5t-27.5 -121.5q0 -59 21 -107l-14 -24l-27 -6l-11 6l-24 76h-6v-17h-7q0 -31 -17 -52l-11 -3l-6 -14l-11 -3l-3 -11q-34 -17 -76 -13zM240 48l13 3l11 34h7l27 79l7 4v7h-7l-34 -24q-28 -48 -41 -100l13 -7z" />
    <glyph glyph-name="b" unicode="b" horiz-adv-x="510" 
d="M158 -69l-31 17q-17 24 -17 59l10 58l-4 27l4 35q-31 140 -51.5 284t-41.5 287l28 59q44 37 106 27l27 -14l35 -44q20 -48 22 -104.5t5 -114.5l-7 -86q10 -20 7 -44q-10 -21 -7 -48h10q31 10 69 6q41 -6 75 -27l4 -10h7l44 -55q21 -51 24 -110q-17 -61 -68 -113
q-45 -24 -100 -30l-72 24q7 -42 -20 -69q-24 -21 -58 -14zM349 120l24 24l7 31q-10 30 -31 54l-7 4v7q-27 17 -61 13l-38 -20l-3 -38q10 -24 10 -48l21 -7v-7q27 -13 58 -24z" />
    <glyph glyph-name="c" unicode="c" horiz-adv-x="510" 
d="M226 -45q-41 21 -86 38l-3 10l-24 17q-38 62 -65 127t-17 147q10 45 25.5 86t46.5 75q48 41 104.5 58.5t121.5 13.5l51 -24v-7l52 -30l10 -11q37 -48 27 -116l-27 -51h-7l-3 -11l-28 -13v-7q-41 -17 -92 -11l-28 11v7l-24 10v7l-20 3l-72 -38q-10 -37 -21 -71
q17 -48 45 -96q41 -28 96 -21l17 17l17 7v7q31 20 68 24l21 -10q17 -18 14 -45l-28 -51l-34 -31q-62 -31 -137 -21z" />
    <glyph glyph-name="d" unicode="d" horiz-adv-x="510" 
d="M199 -58q-65 3 -113 44l-24 24q-24 38 -26 86t-5 96q10 61 55 106l20 10v7q55 20 117 17v51l-14 96l3 28l-3 27l7 21l-4 41l4 13l-4 42l4 13l-4 45q7 41 38 68q41 35 99 28l45 -17v-7l24 -17l24 -45v-233l3 -44q-13 -89 -27 -176.5t-24 -176.5q10 -34 7 -75l-24 -38
q-28 -17 -65 -14l-38 14q-34 -24 -75 -34zM212 75v7l21 3v7q20 4 14 28l-18 113l-34 3l-20 -7l-4 -7h-10q-21 -47 -17 -106l17 -37l34 -11z" />
    <glyph glyph-name="e" unicode="e" horiz-adv-x="510" 
d="M291 -76q-55 18 -104.5 43.5t-90.5 73.5l-31 38q-20 65 -31 133l4 14l-7 65q14 44 37 82h7l14 24q34 41 82 56.5t100 15.5q85 -10 157 -62v-6l10 -4v-7h7q28 -44 28 -102q0 -66 -48 -113q-62 -42 -148 -31l-13 3v-7l78 -65v-7q38 -3 66 -24q13 -17 10 -44l-17 -41h-7v-7
h-7v-7h-10v-7q-41 -14 -86 -14zM353 236l17 7l10 27l-24 14q-65 0 -120 -20l-3 -7l-10 -7v-10q44 -18 99 -14z" />
    <glyph glyph-name="f" unicode="f" horiz-adv-x="510" 
d="M195 -62q-20 10 -31 31l-3 31q14 44 21 92q-21 72 -31 151h-14l-31 -7l-10 4l-45 -4l-13 10v7l-14 4q-14 13 -10 37l10 17l38 11l10 -4v7l55 14l3 10q-7 55 -15.5 110t-11.5 113q7 44 15.5 87t35.5 77l10 4q7 24 28 41l13 3v7q69 14 141 10l51 -27l4 -10h17v-7l20 -4v-7
h7v-6l10 -4q45 -51 35 -123q-11 -38 -35 -69q-41 -37 -99 -27v7q-24 0 -41 17q-20 27 -51 41h-14q-21 -41 -22.5 -89t-1.5 -96l7 -38h20q31 14 69 14l27 -17l7 -38l-3 -13h-7v-7l-10 -4l-4 -10q-37 -17 -82 -24l-3 -17q6 -41 11.5 -85.5t5.5 -89.5q-7 -65 -35 -120
q-13 -10 -34 -10z" />
    <glyph glyph-name="g" unicode="g" horiz-adv-x="510" 
d="M168 -130l-55 37l-3 11h-7v10h-7l-7 17l-14 7q-24 31 -17 75l24 41l34 7l38 -24l10 -20h4v-7l20 -14q4 -20 28 -17q48 -3 79 34l13 41h7l7 35q-3 51 -21 95h-6q-52 -37 -117 -44q-41 -3 -72 21l-24 34h-7q-20 51 -13 113q13 55 37 102.5t59 92.5h6l7 14l14 3l3 10h7v7
q28 17 65 14q-7 58 35 96l24 10v7l58 7q34 -7 58 -34q24 -76 25.5 -160t8.5 -166l-3 -3v-185q-11 -62 -28 -120l-13 -14h-7q0 -27 -17 -51l-35 -28h-6v-6q-38 -35 -91 -36.5t-101 -11.5zM236 264q48 37 52 92q-11 41 -21 82h-7l-34 -34q-44 -65 -48 -147h38z" />
    <glyph glyph-name="h" unicode="h" horiz-adv-x="510" 
d="M164 -76l-41 24q-37 52 -27 124l3 27q-3 65 -18.5 127t-29.5 123l4 41q-17 72 -24 149t-10 156q6 34 27 65l10 4v6q38 31 89 24l31 -6v-7l34 -21l4 -10h7q27 -75 27 -161l-3 -45q6 -54 13 -109l-3 -72l10 -62h10q31 21 72 17q28 -7 52 -30l13 -31q14 -4 18 -17
q10 -55 22 -108t25 -108l-34 -38h-27l-17 10l-21 21q-20 38 -17 82l3 38l-10 38l4 10l-18 51h-17l-34 -14q-27 -61 -17 -137l3 -54q-10 -48 -41 -86q-31 -27 -72 -21z" />
    <glyph glyph-name="i" unicode="i" horiz-adv-x="510" 
d="M271 -41l-31 17q-21 62 -19 132t-16 132l4 20l-7 34l27 41q21 14 52 11l38 -35q17 -78 30 -157l-7 -116l4 -28l-17 -34q-24 -17 -58 -17zM216 414q-45 7 -79 41q-31 41 -31 93q4 61 45 106q41 34 96 31q41 -7 72 -38q41 -51 30 -123q-7 -41 -34 -76q-41 -34 -99 -34z" />
    <glyph glyph-name="j" unicode="j" horiz-adv-x="510" 
d="M192 -120q-38 10 -69 34v7l-17 7l-3 10l-28 17q-48 69 -48 154l21 72h7l7 17l34 7l10 -3v-7h7q31 -55 41 -120h7q3 -27 21 -48l17 -7l6 -17l28 -3l38 7v7l17 20q17 41 13 89l-3 24l3 24q-13 31 -10 72l4 72l-4 24l10 24q21 20 48 17l11 -3v-7l13 -4q28 -41 24 -99l-3 -14
l10 -51v-151l-27 -75h-7l-14 -31l-10 -7v-7l-10 -10l-48 -17v-7l-62 -10v-7h-34zM339 483l-92 51l-11 10q-34 41 -27 96l24 55l10 3v7q41 35 99 28q55 -24 103 -55l10 -10q35 -41 24 -100q-6 -34 -37 -61q-41 -35 -103 -24z" />
    <glyph glyph-name="k" unicode="k" horiz-adv-x="510" 
d="M182 -58q-24 13 -38 37l-4 62l4 31q-17 92 -34.5 184.5t-27.5 188.5l4 17l-18 82l4 21q-21 44 -21 99q7 41 41 72q42 34 96 28q38 -7 69 -35q41 -44 31 -113q-4 -61 -12.5 -119.5t-11.5 -119.5l3 -48l-7 -79h14v7l21 10v7l17 7l3 10h7v7l17 7l3 13h7v7l17 7l4 10h7v7h7
l3 10h7l10 14l41 4l28 -14l3 -14h7l3 -44l-27 -45l-10 -10h-11l-6 -17l-55 -38v-10l-11 -10h-10v-7l-10 -11h-10l-11 -17l-10 -3v-10l65 -38v-7q24 3 38 -14q14 -20 10 -48l-17 -27l-48 -7l-41 17l-27 24l-45 11l-10 -59h-7l-14 -27q-17 -14 -37 -10z" />
    <glyph glyph-name="l" unicode="l" horiz-adv-x="510" 
d="M264 -65l-31 20q-34 165 -53 334.5t-50 333.5q7 41 41 72q41 34 103 24q38 -10 65 -44q27 -69 32.5 -149.5t15.5 -155.5q-17 -103 -31 -207.5t-34 -207.5l-10 -10q-21 -14 -48 -10z" />
    <glyph glyph-name="m" unicode="m" horiz-adv-x="510" 
d="M113 -28l-45 28q-41 68 -41 154t-17 164q7 41 38 72l14 14q30 17 72 14l20 -4v-7l28 -10q47 -44 44 -113q38 4 65 -20v-4h7l10 7l4 14l10 7l3 10l11 3q3 14 17 17h48l48 -27q34 -45 39 -99.5t9 -109.5l-21 -48l-31 -7l-13 7v7l-21 14q-21 72 -24 154h-7q-24 -69 -44 -137
l-38 -14l-31 21q-17 41 -20 89h-14q0 -48 -2 -94.5t-36 -80.5q-34 -27 -82 -21z" />
    <glyph glyph-name="n" unicode="n" horiz-adv-x="510" 
d="M154 -28q-31 4 -55 28v7l-17 10l-3 10h-7q-21 58 -41.5 116.5t-16.5 126.5q3 38 31 69h6l7 14q41 30 96 24l51 -21l11 -10l10 -11l21 -44h10q48 31 109 27l35 -20l3 -10l17 -11l11 -17h6l11 -31h6q21 -78 24 -161l-20 -30l-21 -11v-7h-20l-28 7v7l-17 7q-24 72 -34 147
l-10 4q-34 -24 -55 -59l-31 -34q0 -61 -38 -109z" />
    <glyph glyph-name="o" unicode="o" horiz-adv-x="510" 
d="M267 -76l-44 11v7q-59 13 -107 51l-6 17h-7q-41 55 -49.5 121.5t-15.5 135.5q10 41 23.5 84t34.5 80l10 4l14 13q58 59 140 55l100 -31v-6l24 -11v-7h6q38 -41 38 -99q-3 -44 -27 -82l34 -14q38 -58 41 -133q-14 -65 -41 -127h-7l-10 -21l-14 -3v-7l-27 -14v-6
q-55 -14 -110 -18zM319 68q17 35 20 76q-24 34 -20 78h-14l-21 -3q-37 3 -72 24l-13 -103l34 -58q31 -17 65 -21z" />
    <glyph glyph-name="p" unicode="p" horiz-adv-x="510" 
d="M151 -130l-21 7v6l-17 7q-24 28 -21 65l11 76q-7 92 -34.5 177.5t-51.5 171.5q7 41 34 72l38 20v7q34 14 72 11q41 -7 72 -38l14 -21h6q38 24 83 24q72 0 123 -48q41 -72 34 -161q-10 -41 -38 -75l-17 -17l-17 -3v-7q-61 -38 -140 -41l-17 6q-11 -54 -14 -112.5
t-34 -106.5q-28 -24 -65 -20zM366 229l18 7q20 31 13 72l-17 41q-27 21 -61 21l-45 -31q-3 -51 -10 -103l20 -14l7 -10h31q20 10 44 17z" />
    <glyph glyph-name="q" unicode="q" horiz-adv-x="510" 
d="M373 -123l-34 24q-27 44 -37.5 95.5t-20.5 102.5l-10 4q-45 -28 -100 -24v6q-27 0 -51 14v7q-21 7 -38 24l-14 14v7h-6q-31 47 -41 102q0 52 17 96l10 4l3 13h7l4 11h6v6h7l14 31l38 21v7q58 24 123 30q10 35 38 62q41 34 99 24q34 -7 62 -38l3 -10h7q20 -55 22 -118
t5 -125l-3 -79l3 -92q-13 -52 -22 -103t-29 -99q-27 -21 -62 -17zM219 198l31 18l17 17v31l-10 51q-21 24 -52 24l-30 -14v-7h-7l-7 -13l-10 -4v-7h-7l-4 -58h7l41 -44h17z" />
    <glyph glyph-name="r" unicode="r" horiz-adv-x="510" 
d="M182 -55l-42 24q-27 79 -46 161t-36 168l14 41h7l20 31l17 7v6q35 18 79 14l41 -14v-6q17 0 28 -18l3 -10h7q17 -27 21 -65h17l75 10q41 -10 79 -34l7 -34q-7 -21 -28 -28h-41l-79 14l-13 -7v-7l-14 -6l-3 -89l3 -45q3 -55 -34 -92q-35 -28 -82 -21z" />
    <glyph glyph-name="s" unicode="s" horiz-adv-x="510" 
d="M199 -55l-35 24q-17 24 -13 55l13 31h7v6q58 21 127 18v6l-3 11q-42 3 -79 10v7l-79 38l-7 17h-7q-24 41 -34 89t-17 96q3 68 44 119l55 45q76 21 165 14q58 -24 113 -59q41 -44 30 -113l-34 -58q-44 -41 -113 -31q-37 11 -65 45l-3 10l-38 4q-17 -24 -17 -55l20 -41
l24 -14l7 -10q45 -7 82 -24l14 -14l10 -20l11 -4q41 -44 31 -106l-24 -34l-28 -24q-72 -35 -157 -38z" />
    <glyph glyph-name="t" unicode="t" horiz-adv-x="510" 
d="M339 -24l-55 27l-13 28h-7q-31 68 -21 154h-10q-58 -7 -120 -10l-51 23l-4 11h-7v7l-10 6q-31 38 -27 93q7 34 27 65h7l3 10h7v7q41 31 100 28l85 -11v24l-7 34l24 35l38 7l27 -18q21 -54 28 -116q44 3 79 -17l23 -28l7 -65q-7 -30 -34 -51q-34 -21 -79 -14l-3 -120
q10 -13 27 -10q31 24 72 24l17 -10l7 -34h-7q-10 -31 -37 -55q-38 -28 -86 -24z" />
    <glyph glyph-name="u" unicode="u" horiz-adv-x="510" 
d="M192 -76l-72 38q-45 69 -60 147.5t-39 157.5q6 38 37 68q41 35 100 28q41 -7 68 -41q34 -41 24 -103q-17 -51 -24 -104.5t-17 -104.5l14 -7q37 14 68 38v7l34 31l4 17h7q17 24 13 55l-3 54l10 21l10 3l7 11q17 13 41 10l31 -17q14 -48 22.5 -96t29.5 -93l-11 -17
q-24 -13 -51 -10l-45 21l-17 -21h-7v-7h-6v-7h-7v-7h-11l-3 -10l-17 -7v-7l-31 -24q-44 -24 -99 -24z" />
    <glyph glyph-name="v" unicode="v" horiz-adv-x="510" 
d="M226 -62q-41 17 -75 52l-21 34l-20 14q-31 51 -62 102.5t-34 112.5q7 41 37 72q41 34 96 31q41 -7 72 -38q24 -37 38 -81.5t31 -85.5h10q14 34 41 61h7l3 10h7v7l17 7v7h7l7 10l21 14l3 7l38 10l24 -14q13 -17 10 -44q-10 -34 -34 -65h-7l-24 -58h-7l-7 -24h-7
q-17 -35 -37 -65l-35 -42h-6l-4 -10q-34 -34 -89 -24z" />
    <glyph glyph-name="w" unicode="w" horiz-adv-x="510" 
d="M185 -7l-34 24q-28 48 -46.5 99.5t-42.5 99.5h-7q-28 41 -24 95q7 42 37 72q31 24 76 21l44 -24l14 -14q31 -61 24 -137h7l31 48l34 11l17 -7q17 -48 41 -96h7q27 79 62 157l34 4l24 -14q17 -24 14 -55q-18 -58 -40 -116t-56 -110l-41 -7l-21 14q-10 41 -34 79l-10 3
q-21 -68 -48 -130q-24 -20 -62 -17z" />
    <glyph glyph-name="x" unicode="x" horiz-adv-x="510" 
d="M168 -69l-31 21q-17 20 -14 48l17 41l11 3l7 11l17 10v7l17 24h3v7q-61 37 -123 72q-58 54 -55 136l17 48h7l10 21l11 3v7l17 4v7l65 6q34 -3 58 -27q38 -48 58 -99l21 -7v-7l14 -7l13 -17h11q10 31 30 58h7l4 10h6v7l45 7l27 -14q21 -23 17 -58l-41 -65l-17 -17v-14
q55 -34 93 -89l3 -48l-24 -41q-27 -24 -68 -17l-76 55l-6 10l-31 7v-10l-11 -10h-6l-18 -31h-6l-24 -38l-14 -3v-7z" />
    <glyph glyph-name="y" unicode="y" horiz-adv-x="510" 
d="M158 -113l-59 37l-10 21l-10 7q-28 34 -24 79q3 24 24 41q24 17 58 13l34 -17l14 -27h7v-10h7v-7l54 -4l42 18v6l20 14l21 48h-14l-14 -3q-75 -4 -130 41l-14 27l-17 10q-37 59 -42.5 130.5t-22.5 136.5l28 59q41 34 95 31q31 -7 59 -31q37 -41 27 -100l-7 -72
q11 -37 21 -78h7l41 24v7h7q17 58 37 116q17 17 41 14l24 -14q14 -72 17 -147q-34 -72 -49.5 -149t-59.5 -146l-10 -10l-14 -7l-24 -24q-72 -44 -164 -34z" />
    <glyph glyph-name="z" unicode="z" horiz-adv-x="510" 
d="M116 -41l-27 20l-7 35l24 30l21 11q20 24 51 41l17 10l76 110q-86 0 -161 24v6l-18 7q-34 38 -30 93q6 41 41 68q34 24 82 21q65 -17 137 -22.5t123 -53.5q21 -24 14 -58l-4 -10h-6l-7 -17l-10 -4l-11 -17l-44 -34l-21 -21h-7l-20 -41l-10 -3q-14 -34 -35 -65
q62 0 117 -21q17 -24 10 -54l-17 -28q-24 -17 -55 -14q-51 21 -113 24q-48 -30 -110 -37z" />
    <glyph glyph-name="braceleft" unicode="{" horiz-adv-x="512" 
 />
    <glyph glyph-name="bar" unicode="|" horiz-adv-x="510" 
d="M243 -41l-38 20q-41 69 -37 154l3 14l-3 21l3 17l-10 75l3 45l-13 99l3 17l-14 89l4 24l-4 41l7 69l-3 37q7 41 41 72q38 31 89 24q41 -7 72 -44q24 -45 22 -99.5t2 -106.5q-7 -61 -10.5 -126.5t-13.5 -126.5l3 -48q-7 -69 -10 -141q14 -27 10 -65l-27 -44
q-34 -24 -79 -17z" />
    <glyph glyph-name="braceright" unicode="}" horiz-adv-x="512" 
 />
    <glyph glyph-name="asciitilde" unicode="~" horiz-adv-x="510" 
d="M336 585q-72 21 -131 76l-20 -38l-27 -14v-6l-45 -4l-48 34q-20 28 -17 69q24 58 72 106q48 27 106 24q82 -17 147 -79l31 4l38 -24q20 -24 17 -58l-7 -18h-7q-13 -27 -37 -51q-35 -17 -72 -21z" />
    <glyph glyph-name="uni00A0" unicode="&#xa0;" horiz-adv-x="512" 
 />
    <glyph glyph-name="exclamdown" unicode="&#xa1;" horiz-adv-x="512" 
 />
    <glyph glyph-name="cent" unicode="&#xa2;" 
 />
    <glyph glyph-name="sterling" unicode="&#xa3;" 
 />
    <glyph glyph-name="currency" unicode="&#xa4;" horiz-adv-x="512" 
 />
    <glyph glyph-name="yen" unicode="&#xa5;" horiz-adv-x="512" 
 />
    <glyph glyph-name="brokenbar" unicode="&#xa6;" horiz-adv-x="512" 
 />
    <glyph glyph-name="section" unicode="&#xa7;" 
 />
    <glyph glyph-name="dieresis" unicode="&#xa8;" 
 />
    <glyph glyph-name="copyright" unicode="&#xa9;" horiz-adv-x="512" 
 />
    <glyph glyph-name="ordfeminine" unicode="&#xaa;" horiz-adv-x="512" 
 />
    <glyph glyph-name="guillemotleft" unicode="&#xab;" 
 />
    <glyph glyph-name="logicalnot" unicode="&#xac;" 
 />
    <glyph glyph-name="uni00AD" unicode="&#xad;" horiz-adv-x="512" 
 />
    <glyph glyph-name="registered" unicode="&#xae;" horiz-adv-x="512" 
 />
    <glyph glyph-name="macron" unicode="&#xaf;" 
 />
    <glyph glyph-name="degree" unicode="&#xb0;" 
 />
    <glyph glyph-name="plusminus" unicode="&#xb1;" 
 />
    <glyph glyph-name="uni00B2" unicode="&#xb2;" horiz-adv-x="512" 
 />
    <glyph glyph-name="uni00B3" unicode="&#xb3;" horiz-adv-x="512" 
 />
    <glyph glyph-name="acute" unicode="&#xb4;" 
 />
    <glyph glyph-name="mu" unicode="&#xb5;" 
 />
    <glyph glyph-name="paragraph" unicode="&#xb6;" 
 />
    <glyph glyph-name="periodcentered" unicode="&#xb7;" 
 />
    <glyph glyph-name="cedilla" unicode="&#xb8;" 
 />
    <glyph glyph-name="uni00B9" unicode="&#xb9;" horiz-adv-x="512" 
 />
    <glyph glyph-name="ordmasculine" unicode="&#xba;" horiz-adv-x="512" 
 />
    <glyph glyph-name="guillemotright" unicode="&#xbb;" 
 />
    <glyph glyph-name="onequarter" unicode="&#xbc;" horiz-adv-x="512" 
 />
    <glyph glyph-name="onehalf" unicode="&#xbd;" horiz-adv-x="512" 
 />
    <glyph glyph-name="threequarters" unicode="&#xbe;" horiz-adv-x="512" 
 />
    <glyph glyph-name="questiondown" unicode="&#xbf;" horiz-adv-x="512" 
 />
    <glyph glyph-name="Agrave" unicode="&#xc0;" horiz-adv-x="512" 
 />
    <glyph glyph-name="Aacute" unicode="&#xc1;" horiz-adv-x="512" 
 />
    <glyph glyph-name="Acircumflex" unicode="&#xc2;" horiz-adv-x="512" 
 />
    <glyph glyph-name="Atilde" unicode="&#xc3;" horiz-adv-x="512" 
 />
    <glyph glyph-name="Adieresis" unicode="&#xc4;" horiz-adv-x="512" 
 />
    <glyph glyph-name="Aring" unicode="&#xc5;" horiz-adv-x="512" 
 />
    <glyph glyph-name="AE" unicode="&#xc6;" horiz-adv-x="512" 
 />
    <glyph glyph-name="Ccedilla" unicode="&#xc7;" horiz-adv-x="512" 
 />
    <glyph glyph-name="Egrave" unicode="&#xc8;" horiz-adv-x="512" 
 />
    <glyph glyph-name="Eacute" unicode="&#xc9;" horiz-adv-x="512" 
 />
    <glyph glyph-name="Ecircumflex" unicode="&#xca;" horiz-adv-x="512" 
 />
    <glyph glyph-name="Edieresis" unicode="&#xcb;" horiz-adv-x="512" 
 />
    <glyph glyph-name="Igrave" unicode="&#xcc;" horiz-adv-x="512" 
 />
    <glyph glyph-name="Iacute" unicode="&#xcd;" horiz-adv-x="512" 
 />
    <glyph glyph-name="Icircumflex" unicode="&#xce;" horiz-adv-x="512" 
 />
    <glyph glyph-name="Idieresis" unicode="&#xcf;" horiz-adv-x="512" 
 />
    <glyph glyph-name="Eth" unicode="&#xd0;" horiz-adv-x="512" 
 />
    <glyph glyph-name="Ntilde" unicode="&#xd1;" horiz-adv-x="512" 
 />
    <glyph glyph-name="Ograve" unicode="&#xd2;" horiz-adv-x="512" 
 />
    <glyph glyph-name="Oacute" unicode="&#xd3;" horiz-adv-x="512" 
 />
    <glyph glyph-name="Ocircumflex" unicode="&#xd4;" horiz-adv-x="512" 
 />
    <glyph glyph-name="Otilde" unicode="&#xd5;" horiz-adv-x="512" 
 />
    <glyph glyph-name="Odieresis" unicode="&#xd6;" horiz-adv-x="512" 
 />
    <glyph glyph-name="multiply" unicode="&#xd7;" 
 />
    <glyph glyph-name="Oslash" unicode="&#xd8;" horiz-adv-x="512" 
 />
    <glyph glyph-name="Ugrave" unicode="&#xd9;" horiz-adv-x="512" 
 />
    <glyph glyph-name="Uacute" unicode="&#xda;" horiz-adv-x="512" 
 />
    <glyph glyph-name="Ucircumflex" unicode="&#xdb;" horiz-adv-x="512" 
 />
    <glyph glyph-name="Udieresis" unicode="&#xdc;" horiz-adv-x="512" 
 />
    <glyph glyph-name="Yacute" unicode="&#xdd;" horiz-adv-x="512" 
 />
    <glyph glyph-name="Thorn" unicode="&#xde;" horiz-adv-x="512" 
 />
    <glyph glyph-name="germandbls" unicode="&#xdf;" horiz-adv-x="512" 
 />
    <glyph glyph-name="agrave" unicode="&#xe0;" horiz-adv-x="512" 
 />
    <glyph glyph-name="aacute" unicode="&#xe1;" horiz-adv-x="512" 
 />
    <glyph glyph-name="acircumflex" unicode="&#xe2;" horiz-adv-x="512" 
 />
    <glyph glyph-name="atilde" unicode="&#xe3;" horiz-adv-x="512" 
 />
    <glyph glyph-name="adieresis" unicode="&#xe4;" horiz-adv-x="512" 
 />
    <glyph glyph-name="aring" unicode="&#xe5;" horiz-adv-x="512" 
 />
    <glyph glyph-name="ae" unicode="&#xe6;" horiz-adv-x="512" 
 />
    <glyph glyph-name="ccedilla" unicode="&#xe7;" horiz-adv-x="512" 
 />
    <glyph glyph-name="egrave" unicode="&#xe8;" horiz-adv-x="512" 
 />
    <glyph glyph-name="eacute" unicode="&#xe9;" horiz-adv-x="512" 
 />
    <glyph glyph-name="ecircumflex" unicode="&#xea;" horiz-adv-x="512" 
 />
    <glyph glyph-name="edieresis" unicode="&#xeb;" horiz-adv-x="512" 
 />
    <glyph glyph-name="igrave" unicode="&#xec;" horiz-adv-x="512" 
 />
    <glyph glyph-name="iacute" unicode="&#xed;" horiz-adv-x="512" 
 />
    <glyph glyph-name="icircumflex" unicode="&#xee;" horiz-adv-x="512" 
 />
    <glyph glyph-name="idieresis" unicode="&#xef;" horiz-adv-x="512" 
 />
    <glyph glyph-name="eth" unicode="&#xf0;" horiz-adv-x="512" 
 />
    <glyph glyph-name="ntilde" unicode="&#xf1;" horiz-adv-x="512" 
 />
    <glyph glyph-name="ograve" unicode="&#xf2;" horiz-adv-x="512" 
 />
    <glyph glyph-name="oacute" unicode="&#xf3;" horiz-adv-x="512" 
 />
    <glyph glyph-name="ocircumflex" unicode="&#xf4;" horiz-adv-x="512" 
 />
    <glyph glyph-name="otilde" unicode="&#xf5;" horiz-adv-x="512" 
 />
    <glyph glyph-name="odieresis" unicode="&#xf6;" horiz-adv-x="512" 
 />
    <glyph glyph-name="divide" unicode="&#xf7;" 
 />
    <glyph glyph-name="oslash" unicode="&#xf8;" horiz-adv-x="512" 
 />
    <glyph glyph-name="ugrave" unicode="&#xf9;" horiz-adv-x="512" 
 />
    <glyph glyph-name="uacute" unicode="&#xfa;" horiz-adv-x="512" 
 />
    <glyph glyph-name="ucircumflex" unicode="&#xfb;" horiz-adv-x="512" 
 />
    <glyph glyph-name="udieresis" unicode="&#xfc;" horiz-adv-x="512" 
 />
    <glyph glyph-name="yacute" unicode="&#xfd;" horiz-adv-x="512" 
 />
    <glyph glyph-name="thorn" unicode="&#xfe;" horiz-adv-x="512" 
 />
    <glyph glyph-name="ydieresis" unicode="&#xff;" horiz-adv-x="512" 
 />
    <glyph glyph-name="Amacron" unicode="&#x100;" horiz-adv-x="512" 
 />
    <glyph glyph-name="amacron" unicode="&#x101;" horiz-adv-x="512" 
 />
    <glyph glyph-name="Abreve" unicode="&#x102;" horiz-adv-x="512" 
 />
    <glyph glyph-name="abreve" unicode="&#x103;" horiz-adv-x="512" 
 />
    <glyph glyph-name="Aogonek" unicode="&#x104;" horiz-adv-x="512" 
 />
    <glyph glyph-name="aogonek" unicode="&#x105;" horiz-adv-x="512" 
 />
    <glyph glyph-name="Cacute" unicode="&#x106;" horiz-adv-x="512" 
 />
    <glyph glyph-name="cacute" unicode="&#x107;" horiz-adv-x="512" 
 />
    <glyph glyph-name="Ccircumflex" unicode="&#x108;" horiz-adv-x="512" 
 />
    <glyph glyph-name="ccircumflex" unicode="&#x109;" horiz-adv-x="512" 
 />
    <glyph glyph-name="Cdotaccent" unicode="&#x10a;" horiz-adv-x="512" 
 />
    <glyph glyph-name="cdotaccent" unicode="&#x10b;" horiz-adv-x="512" 
 />
    <glyph glyph-name="Ccaron" unicode="&#x10c;" horiz-adv-x="512" 
 />
    <glyph glyph-name="ccaron" unicode="&#x10d;" horiz-adv-x="512" 
 />
    <glyph glyph-name="Dcaron" unicode="&#x10e;" horiz-adv-x="512" 
 />
    <glyph glyph-name="dcaron" unicode="&#x10f;" horiz-adv-x="512" 
 />
    <glyph glyph-name="Dcroat" unicode="&#x110;" horiz-adv-x="512" 
 />
    <glyph glyph-name="dcroat" unicode="&#x111;" horiz-adv-x="512" 
 />
    <glyph glyph-name="Emacron" unicode="&#x112;" horiz-adv-x="512" 
 />
    <glyph glyph-name="emacron" unicode="&#x113;" horiz-adv-x="512" 
 />
    <glyph glyph-name="Ebreve" unicode="&#x114;" horiz-adv-x="512" 
 />
    <glyph glyph-name="ebreve" unicode="&#x115;" horiz-adv-x="512" 
 />
    <glyph glyph-name="Edotaccent" unicode="&#x116;" horiz-adv-x="512" 
 />
    <glyph glyph-name="edotaccent" unicode="&#x117;" horiz-adv-x="512" 
 />
    <glyph glyph-name="Eogonek" unicode="&#x118;" horiz-adv-x="512" 
 />
    <glyph glyph-name="eogonek" unicode="&#x119;" horiz-adv-x="512" 
 />
    <glyph glyph-name="Ecaron" unicode="&#x11a;" horiz-adv-x="512" 
 />
    <glyph glyph-name="ecaron" unicode="&#x11b;" horiz-adv-x="512" 
 />
    <glyph glyph-name="Gcircumflex" unicode="&#x11c;" horiz-adv-x="512" 
 />
    <glyph glyph-name="gcircumflex" unicode="&#x11d;" horiz-adv-x="512" 
 />
    <glyph glyph-name="Gbreve" unicode="&#x11e;" horiz-adv-x="512" 
 />
    <glyph glyph-name="gbreve" unicode="&#x11f;" horiz-adv-x="512" 
 />
    <glyph glyph-name="Gdotaccent" unicode="&#x120;" horiz-adv-x="512" 
 />
    <glyph glyph-name="gdotaccent" unicode="&#x121;" horiz-adv-x="512" 
 />
    <glyph glyph-name="uni0122" unicode="&#x122;" horiz-adv-x="512" 
 />
    <glyph glyph-name="uni0123" unicode="&#x123;" horiz-adv-x="512" 
 />
    <glyph glyph-name="Hcircumflex" unicode="&#x124;" horiz-adv-x="512" 
 />
    <glyph glyph-name="hcircumflex" unicode="&#x125;" horiz-adv-x="512" 
 />
    <glyph glyph-name="Hbar" unicode="&#x126;" horiz-adv-x="512" 
 />
    <glyph glyph-name="hbar" unicode="&#x127;" horiz-adv-x="512" 
 />
    <glyph glyph-name="Itilde" unicode="&#x128;" horiz-adv-x="512" 
 />
    <glyph glyph-name="itilde" unicode="&#x129;" horiz-adv-x="512" 
 />
    <glyph glyph-name="Imacron" unicode="&#x12a;" horiz-adv-x="512" 
 />
    <glyph glyph-name="imacron" unicode="&#x12b;" horiz-adv-x="512" 
 />
    <glyph glyph-name="Ibreve" unicode="&#x12c;" horiz-adv-x="512" 
 />
    <glyph glyph-name="ibreve" unicode="&#x12d;" horiz-adv-x="512" 
 />
    <glyph glyph-name="Iogonek" unicode="&#x12e;" horiz-adv-x="512" 
 />
    <glyph glyph-name="iogonek" unicode="&#x12f;" horiz-adv-x="512" 
 />
    <glyph glyph-name="Idotaccent" unicode="&#x130;" horiz-adv-x="512" 
 />
    <glyph glyph-name="dotlessi" unicode="&#x131;" horiz-adv-x="512" 
 />
    <glyph glyph-name="IJ" unicode="&#x132;" horiz-adv-x="512" 
 />
    <glyph glyph-name="ij" unicode="&#x133;" horiz-adv-x="512" 
 />
    <glyph glyph-name="Jcircumflex" unicode="&#x134;" horiz-adv-x="512" 
 />
    <glyph glyph-name="jcircumflex" unicode="&#x135;" horiz-adv-x="512" 
 />
    <glyph glyph-name="uni0136" unicode="&#x136;" horiz-adv-x="512" 
 />
    <glyph glyph-name="uni0137" unicode="&#x137;" horiz-adv-x="512" 
 />
    <glyph glyph-name="kgreenlandic" unicode="&#x138;" horiz-adv-x="512" 
 />
    <glyph glyph-name="Lacute" unicode="&#x139;" horiz-adv-x="512" 
 />
    <glyph glyph-name="lacute" unicode="&#x13a;" horiz-adv-x="512" 
 />
    <glyph glyph-name="uni013B" unicode="&#x13b;" horiz-adv-x="512" 
 />
    <glyph glyph-name="uni013C" unicode="&#x13c;" horiz-adv-x="512" 
 />
    <glyph glyph-name="Lcaron" unicode="&#x13d;" horiz-adv-x="512" 
 />
    <glyph glyph-name="lcaron" unicode="&#x13e;" horiz-adv-x="512" 
 />
    <glyph glyph-name="Ldot" unicode="&#x13f;" horiz-adv-x="512" 
 />
    <glyph glyph-name="ldot" unicode="&#x140;" horiz-adv-x="512" 
 />
    <glyph glyph-name="Lslash" unicode="&#x141;" horiz-adv-x="512" 
 />
    <glyph glyph-name="lslash" unicode="&#x142;" horiz-adv-x="512" 
 />
    <glyph glyph-name="Nacute" unicode="&#x143;" horiz-adv-x="512" 
 />
    <glyph glyph-name="nacute" unicode="&#x144;" horiz-adv-x="512" 
 />
    <glyph glyph-name="uni0145" unicode="&#x145;" horiz-adv-x="512" 
 />
    <glyph glyph-name="uni0146" unicode="&#x146;" horiz-adv-x="512" 
 />
    <glyph glyph-name="Ncaron" unicode="&#x147;" horiz-adv-x="512" 
 />
    <glyph glyph-name="ncaron" unicode="&#x148;" horiz-adv-x="512" 
 />
    <glyph glyph-name="napostrophe" unicode="&#x149;" horiz-adv-x="512" 
 />
    <glyph glyph-name="Eng" unicode="&#x14a;" horiz-adv-x="512" 
 />
    <glyph glyph-name="eng" unicode="&#x14b;" horiz-adv-x="512" 
 />
    <glyph glyph-name="Omacron" unicode="&#x14c;" horiz-adv-x="512" 
 />
    <glyph glyph-name="omacron" unicode="&#x14d;" horiz-adv-x="512" 
 />
    <glyph glyph-name="Obreve" unicode="&#x14e;" horiz-adv-x="512" 
 />
    <glyph glyph-name="obreve" unicode="&#x14f;" horiz-adv-x="512" 
 />
    <glyph glyph-name="Ohungarumlaut" unicode="&#x150;" horiz-adv-x="512" 
 />
    <glyph glyph-name="ohungarumlaut" unicode="&#x151;" horiz-adv-x="512" 
 />
    <glyph glyph-name="OE" unicode="&#x152;" horiz-adv-x="512" 
 />
    <glyph glyph-name="oe" unicode="&#x153;" horiz-adv-x="512" 
 />
    <glyph glyph-name="Racute" unicode="&#x154;" horiz-adv-x="512" 
 />
    <glyph glyph-name="racute" unicode="&#x155;" horiz-adv-x="512" 
 />
    <glyph glyph-name="uni0156" unicode="&#x156;" horiz-adv-x="512" 
 />
    <glyph glyph-name="uni0157" unicode="&#x157;" horiz-adv-x="512" 
 />
    <glyph glyph-name="Rcaron" unicode="&#x158;" horiz-adv-x="512" 
 />
    <glyph glyph-name="rcaron" unicode="&#x159;" horiz-adv-x="512" 
 />
    <glyph glyph-name="Sacute" unicode="&#x15a;" horiz-adv-x="512" 
 />
    <glyph glyph-name="sacute" unicode="&#x15b;" horiz-adv-x="512" 
 />
    <glyph glyph-name="Scircumflex" unicode="&#x15c;" horiz-adv-x="512" 
 />
    <glyph glyph-name="scircumflex" unicode="&#x15d;" horiz-adv-x="512" 
 />
    <glyph glyph-name="Scedilla" unicode="&#x15e;" horiz-adv-x="512" 
 />
    <glyph glyph-name="scedilla" unicode="&#x15f;" horiz-adv-x="512" 
 />
    <glyph glyph-name="Scaron" unicode="&#x160;" horiz-adv-x="512" 
 />
    <glyph glyph-name="scaron" unicode="&#x161;" horiz-adv-x="512" 
 />
    <glyph glyph-name="uni0162" unicode="&#x162;" horiz-adv-x="512" 
 />
    <glyph glyph-name="uni0163" unicode="&#x163;" horiz-adv-x="512" 
 />
    <glyph glyph-name="Tcaron" unicode="&#x164;" horiz-adv-x="512" 
 />
    <glyph glyph-name="tcaron" unicode="&#x165;" horiz-adv-x="512" 
 />
    <glyph glyph-name="Tbar" unicode="&#x166;" horiz-adv-x="512" 
 />
    <glyph glyph-name="tbar" unicode="&#x167;" horiz-adv-x="512" 
 />
    <glyph glyph-name="Utilde" unicode="&#x168;" horiz-adv-x="512" 
 />
    <glyph glyph-name="utilde" unicode="&#x169;" horiz-adv-x="512" 
 />
    <glyph glyph-name="Umacron" unicode="&#x16a;" horiz-adv-x="512" 
 />
    <glyph glyph-name="umacron" unicode="&#x16b;" horiz-adv-x="512" 
 />
    <glyph glyph-name="Ubreve" unicode="&#x16c;" horiz-adv-x="512" 
 />
    <glyph glyph-name="ubreve" unicode="&#x16d;" horiz-adv-x="512" 
 />
    <glyph glyph-name="Uring" unicode="&#x16e;" horiz-adv-x="512" 
 />
    <glyph glyph-name="uring" unicode="&#x16f;" horiz-adv-x="512" 
 />
    <glyph glyph-name="Uhungarumlaut" unicode="&#x170;" horiz-adv-x="512" 
 />
    <glyph glyph-name="uhungarumlaut" unicode="&#x171;" horiz-adv-x="512" 
 />
    <glyph glyph-name="Uogonek" unicode="&#x172;" horiz-adv-x="512" 
 />
    <glyph glyph-name="uogonek" unicode="&#x173;" horiz-adv-x="512" 
 />
    <glyph glyph-name="Wcircumflex" unicode="&#x174;" horiz-adv-x="512" 
 />
    <glyph glyph-name="wcircumflex" unicode="&#x175;" horiz-adv-x="512" 
 />
    <glyph glyph-name="Ycircumflex" unicode="&#x176;" horiz-adv-x="512" 
 />
    <glyph glyph-name="ycircumflex" unicode="&#x177;" horiz-adv-x="512" 
 />
    <glyph glyph-name="Ydieresis" unicode="&#x178;" horiz-adv-x="512" 
 />
    <glyph glyph-name="Zacute" unicode="&#x179;" horiz-adv-x="512" 
 />
    <glyph glyph-name="zacute" unicode="&#x17a;" horiz-adv-x="512" 
 />
    <glyph glyph-name="Zdotaccent" unicode="&#x17b;" horiz-adv-x="512" 
 />
    <glyph glyph-name="zdotaccent" unicode="&#x17c;" horiz-adv-x="512" 
 />
    <glyph glyph-name="Zcaron" unicode="&#x17d;" horiz-adv-x="512" 
 />
    <glyph glyph-name="zcaron" unicode="&#x17e;" horiz-adv-x="512" 
 />
    <glyph glyph-name="longs" unicode="&#x17f;" horiz-adv-x="512" 
 />
    <glyph glyph-name="florin" unicode="&#x192;" horiz-adv-x="512" 
 />
    <glyph glyph-name="uni01CD" unicode="&#x1cd;" horiz-adv-x="512" 
 />
    <glyph glyph-name="uni01CE" unicode="&#x1ce;" horiz-adv-x="512" 
 />
    <glyph glyph-name="uni01CF" unicode="&#x1cf;" horiz-adv-x="512" 
 />
    <glyph glyph-name="uni01D0" unicode="&#x1d0;" horiz-adv-x="512" 
 />
    <glyph glyph-name="uni01D1" unicode="&#x1d1;" horiz-adv-x="512" 
 />
    <glyph glyph-name="uni01D2" unicode="&#x1d2;" horiz-adv-x="512" 
 />
    <glyph glyph-name="uni01D3" unicode="&#x1d3;" horiz-adv-x="512" 
 />
    <glyph glyph-name="uni01D4" unicode="&#x1d4;" horiz-adv-x="512" 
 />
    <glyph glyph-name="uni01D5" unicode="&#x1d5;" horiz-adv-x="512" 
 />
    <glyph glyph-name="uni01D6" unicode="&#x1d6;" horiz-adv-x="512" 
 />
    <glyph glyph-name="uni01D7" unicode="&#x1d7;" horiz-adv-x="512" 
 />
    <glyph glyph-name="uni01D8" unicode="&#x1d8;" horiz-adv-x="512" 
 />
    <glyph glyph-name="uni01D9" unicode="&#x1d9;" horiz-adv-x="512" 
 />
    <glyph glyph-name="uni01DA" unicode="&#x1da;" horiz-adv-x="512" 
 />
    <glyph glyph-name="uni01DB" unicode="&#x1db;" horiz-adv-x="512" 
 />
    <glyph glyph-name="uni01DC" unicode="&#x1dc;" horiz-adv-x="512" 
 />
    <glyph glyph-name="uni01F5" unicode="&#x1f5;" horiz-adv-x="512" 
 />
    <glyph glyph-name="Aringacute" unicode="&#x1fa;" horiz-adv-x="512" 
 />
    <glyph glyph-name="aringacute" unicode="&#x1fb;" horiz-adv-x="512" 
 />
    <glyph glyph-name="AEacute" unicode="&#x1fc;" horiz-adv-x="512" 
 />
    <glyph glyph-name="aeacute" unicode="&#x1fd;" horiz-adv-x="512" 
 />
    <glyph glyph-name="Oslashacute" unicode="&#x1fe;" horiz-adv-x="512" 
 />
    <glyph glyph-name="oslashacute" unicode="&#x1ff;" horiz-adv-x="512" 
 />
    <glyph glyph-name="uni0250" unicode="&#x250;" horiz-adv-x="512" 
 />
    <glyph glyph-name="uni0251" unicode="&#x251;" horiz-adv-x="512" 
 />
    <glyph glyph-name="uni0252" unicode="&#x252;" horiz-adv-x="512" 
 />
    <glyph glyph-name="uni0253" unicode="&#x253;" horiz-adv-x="512" 
 />
    <glyph glyph-name="uni0254" unicode="&#x254;" horiz-adv-x="512" 
 />
    <glyph glyph-name="uni0255" unicode="&#x255;" horiz-adv-x="512" 
 />
    <glyph glyph-name="uni0256" unicode="&#x256;" horiz-adv-x="512" 
 />
    <glyph glyph-name="uni0257" unicode="&#x257;" horiz-adv-x="512" 
 />
    <glyph glyph-name="uni0258" unicode="&#x258;" horiz-adv-x="512" 
 />
    <glyph glyph-name="uni0259" unicode="&#x259;" horiz-adv-x="512" 
 />
    <glyph glyph-name="uni025A" unicode="&#x25a;" horiz-adv-x="512" 
 />
    <glyph glyph-name="uni025B" unicode="&#x25b;" horiz-adv-x="512" 
 />
    <glyph glyph-name="uni025C" unicode="&#x25c;" horiz-adv-x="512" 
 />
    <glyph glyph-name="uni025D" unicode="&#x25d;" horiz-adv-x="512" 
 />
    <glyph glyph-name="uni025E" unicode="&#x25e;" horiz-adv-x="512" 
 />
    <glyph glyph-name="uni025F" unicode="&#x25f;" horiz-adv-x="512" 
 />
    <glyph glyph-name="uni0260" unicode="&#x260;" horiz-adv-x="512" 
 />
    <glyph glyph-name="uni0261" unicode="&#x261;" horiz-adv-x="512" 
 />
    <glyph glyph-name="uni0262" unicode="&#x262;" horiz-adv-x="512" 
 />
    <glyph glyph-name="uni0263" unicode="&#x263;" horiz-adv-x="512" 
 />
    <glyph glyph-name="uni0264" unicode="&#x264;" horiz-adv-x="512" 
 />
    <glyph glyph-name="uni0265" unicode="&#x265;" horiz-adv-x="512" 
 />
    <glyph glyph-name="uni0266" unicode="&#x266;" horiz-adv-x="512" 
 />
    <glyph glyph-name="uni0267" unicode="&#x267;" horiz-adv-x="512" 
 />
    <glyph glyph-name="uni0268" unicode="&#x268;" horiz-adv-x="512" 
 />
    <glyph glyph-name="uni0269" unicode="&#x269;" horiz-adv-x="512" 
 />
    <glyph glyph-name="uni026A" unicode="&#x26a;" horiz-adv-x="512" 
 />
    <glyph glyph-name="uni026B" unicode="&#x26b;" horiz-adv-x="512" 
 />
    <glyph glyph-name="uni026C" unicode="&#x26c;" horiz-adv-x="512" 
 />
    <glyph glyph-name="uni026D" unicode="&#x26d;" horiz-adv-x="512" 
 />
    <glyph glyph-name="uni026E" unicode="&#x26e;" horiz-adv-x="512" 
 />
    <glyph glyph-name="uni026F" unicode="&#x26f;" horiz-adv-x="512" 
 />
    <glyph glyph-name="uni0270" unicode="&#x270;" horiz-adv-x="512" 
 />
    <glyph glyph-name="uni0271" unicode="&#x271;" horiz-adv-x="512" 
 />
    <glyph glyph-name="uni0272" unicode="&#x272;" horiz-adv-x="512" 
 />
    <glyph glyph-name="uni0273" unicode="&#x273;" horiz-adv-x="512" 
 />
    <glyph glyph-name="uni0274" unicode="&#x274;" horiz-adv-x="512" 
 />
    <glyph glyph-name="uni0275" unicode="&#x275;" horiz-adv-x="512" 
 />
    <glyph glyph-name="uni0276" unicode="&#x276;" horiz-adv-x="512" 
 />
    <glyph glyph-name="uni0277" unicode="&#x277;" horiz-adv-x="512" 
 />
    <glyph glyph-name="uni0278" unicode="&#x278;" horiz-adv-x="512" 
 />
    <glyph glyph-name="uni0279" unicode="&#x279;" horiz-adv-x="512" 
 />
    <glyph glyph-name="uni027A" unicode="&#x27a;" horiz-adv-x="512" 
 />
    <glyph glyph-name="uni027B" unicode="&#x27b;" horiz-adv-x="512" 
 />
    <glyph glyph-name="uni027C" unicode="&#x27c;" horiz-adv-x="512" 
 />
    <glyph glyph-name="uni027D" unicode="&#x27d;" horiz-adv-x="512" 
 />
    <glyph glyph-name="uni027E" unicode="&#x27e;" horiz-adv-x="512" 
 />
    <glyph glyph-name="uni027F" unicode="&#x27f;" horiz-adv-x="512" 
 />
    <glyph glyph-name="uni0280" unicode="&#x280;" horiz-adv-x="512" 
 />
    <glyph glyph-name="uni0281" unicode="&#x281;" horiz-adv-x="512" 
 />
    <glyph glyph-name="uni0282" unicode="&#x282;" horiz-adv-x="512" 
 />
    <glyph glyph-name="uni0283" unicode="&#x283;" horiz-adv-x="512" 
 />
    <glyph glyph-name="uni0284" unicode="&#x284;" horiz-adv-x="512" 
 />
    <glyph glyph-name="uni0285" unicode="&#x285;" horiz-adv-x="512" 
 />
    <glyph glyph-name="uni0286" unicode="&#x286;" horiz-adv-x="512" 
 />
    <glyph glyph-name="uni0287" unicode="&#x287;" horiz-adv-x="512" 
 />
    <glyph glyph-name="uni0288" unicode="&#x288;" horiz-adv-x="512" 
 />
    <glyph glyph-name="uni0289" unicode="&#x289;" horiz-adv-x="512" 
 />
    <glyph glyph-name="uni028A" unicode="&#x28a;" horiz-adv-x="512" 
 />
    <glyph glyph-name="uni028B" unicode="&#x28b;" horiz-adv-x="512" 
 />
    <glyph glyph-name="uni028C" unicode="&#x28c;" horiz-adv-x="512" 
 />
    <glyph glyph-name="uni028D" unicode="&#x28d;" horiz-adv-x="512" 
 />
    <glyph glyph-name="uni028E" unicode="&#x28e;" horiz-adv-x="512" 
 />
    <glyph glyph-name="uni028F" unicode="&#x28f;" horiz-adv-x="512" 
 />
    <glyph glyph-name="uni0290" unicode="&#x290;" horiz-adv-x="512" 
 />
    <glyph glyph-name="uni0291" unicode="&#x291;" horiz-adv-x="512" 
 />
    <glyph glyph-name="uni0292" unicode="&#x292;" horiz-adv-x="512" 
 />
    <glyph glyph-name="uni0293" unicode="&#x293;" horiz-adv-x="512" 
 />
    <glyph glyph-name="uni0294" unicode="&#x294;" horiz-adv-x="512" 
 />
    <glyph glyph-name="uni0295" unicode="&#x295;" horiz-adv-x="512" 
 />
    <glyph glyph-name="uni0296" unicode="&#x296;" horiz-adv-x="512" 
 />
    <glyph glyph-name="uni0297" unicode="&#x297;" horiz-adv-x="512" 
 />
    <glyph glyph-name="uni0298" unicode="&#x298;" horiz-adv-x="512" 
 />
    <glyph glyph-name="uni0299" unicode="&#x299;" horiz-adv-x="512" 
 />
    <glyph glyph-name="uni029A" unicode="&#x29a;" horiz-adv-x="512" 
 />
    <glyph glyph-name="uni029B" unicode="&#x29b;" horiz-adv-x="512" 
 />
    <glyph glyph-name="uni029C" unicode="&#x29c;" horiz-adv-x="512" 
 />
    <glyph glyph-name="uni029D" unicode="&#x29d;" horiz-adv-x="512" 
 />
    <glyph glyph-name="uni029E" unicode="&#x29e;" horiz-adv-x="512" 
 />
    <glyph glyph-name="uni029F" unicode="&#x29f;" horiz-adv-x="512" 
 />
    <glyph glyph-name="uni02A0" unicode="&#x2a0;" horiz-adv-x="512" 
 />
    <glyph glyph-name="uni02A1" unicode="&#x2a1;" horiz-adv-x="512" 
 />
    <glyph glyph-name="uni02A2" unicode="&#x2a2;" horiz-adv-x="512" 
 />
    <glyph glyph-name="uni02A3" unicode="&#x2a3;" horiz-adv-x="512" 
 />
    <glyph glyph-name="uni02A4" unicode="&#x2a4;" horiz-adv-x="512" 
 />
    <glyph glyph-name="uni02A5" unicode="&#x2a5;" horiz-adv-x="512" 
 />
    <glyph glyph-name="uni02A6" unicode="&#x2a6;" horiz-adv-x="512" 
 />
    <glyph glyph-name="uni02A7" unicode="&#x2a7;" horiz-adv-x="512" 
 />
    <glyph glyph-name="uni02A8" unicode="&#x2a8;" horiz-adv-x="512" 
 />
    <glyph glyph-name="circumflex" unicode="&#x2c6;" horiz-adv-x="512" 
 />
    <glyph glyph-name="caron" unicode="&#x2c7;" horiz-adv-x="512" 
 />
    <glyph glyph-name="uni02C9" unicode="&#x2c9;" horiz-adv-x="512" 
 />
    <glyph glyph-name="breve" unicode="&#x2d8;" horiz-adv-x="512" 
 />
    <glyph glyph-name="dotaccent" unicode="&#x2d9;" horiz-adv-x="512" 
 />
    <glyph glyph-name="ring" unicode="&#x2da;" horiz-adv-x="512" 
 />
    <glyph glyph-name="ogonek" unicode="&#x2db;" horiz-adv-x="512" 
 />
    <glyph glyph-name="tilde" unicode="&#x2dc;" horiz-adv-x="512" 
 />
    <glyph glyph-name="hungarumlaut" unicode="&#x2dd;" horiz-adv-x="512" 
 />
    <glyph glyph-name="uni0374" unicode="&#x374;" horiz-adv-x="512" 
 />
    <glyph glyph-name="uni0375" unicode="&#x375;" horiz-adv-x="512" 
 />
    <glyph glyph-name="uni037A" unicode="&#x37a;" horiz-adv-x="512" 
 />
    <glyph glyph-name="uni037E" unicode="&#x37e;" horiz-adv-x="512" 
 />
    <glyph glyph-name="tonos" unicode="&#x384;" horiz-adv-x="512" 
 />
    <glyph glyph-name="dieresistonos" unicode="&#x385;" horiz-adv-x="512" 
 />
    <glyph glyph-name="Alphatonos" unicode="&#x386;" horiz-adv-x="512" 
 />
    <glyph glyph-name="anoteleia" unicode="&#x387;" horiz-adv-x="512" 
 />
    <glyph glyph-name="Epsilontonos" unicode="&#x388;" horiz-adv-x="512" 
 />
    <glyph glyph-name="Etatonos" unicode="&#x389;" horiz-adv-x="512" 
 />
    <glyph glyph-name="Iotatonos" unicode="&#x38a;" horiz-adv-x="512" 
 />
    <glyph glyph-name="Omicrontonos" unicode="&#x38c;" horiz-adv-x="512" 
 />
    <glyph glyph-name="Upsilontonos" unicode="&#x38e;" horiz-adv-x="512" 
 />
    <glyph glyph-name="Omegatonos" unicode="&#x38f;" horiz-adv-x="512" 
 />
    <glyph glyph-name="iotadieresistonos" unicode="&#x390;" horiz-adv-x="512" 
 />
    <glyph glyph-name="Alpha" unicode="&#x391;" 
 />
    <glyph glyph-name="Beta" unicode="&#x392;" 
 />
    <glyph glyph-name="Gamma" unicode="&#x393;" 
 />
    <glyph glyph-name="uni0394" unicode="&#x394;" 
 />
    <glyph glyph-name="Epsilon" unicode="&#x395;" 
 />
    <glyph glyph-name="Zeta" unicode="&#x396;" 
 />
    <glyph glyph-name="Eta" unicode="&#x397;" 
 />
    <glyph glyph-name="Theta" unicode="&#x398;" 
 />
    <glyph glyph-name="Iota" unicode="&#x399;" 
 />
    <glyph glyph-name="Kappa" unicode="&#x39a;" 
 />
    <glyph glyph-name="Lambda" unicode="&#x39b;" 
 />
    <glyph glyph-name="Mu" unicode="&#x39c;" 
 />
    <glyph glyph-name="Nu" unicode="&#x39d;" 
 />
    <glyph glyph-name="Xi" unicode="&#x39e;" 
 />
    <glyph glyph-name="Omicron" unicode="&#x39f;" 
 />
    <glyph glyph-name="Pi" unicode="&#x3a0;" 
 />
    <glyph glyph-name="Rho" unicode="&#x3a1;" 
 />
    <glyph glyph-name="Sigma" unicode="&#x3a3;" 
 />
    <glyph glyph-name="Tau" unicode="&#x3a4;" 
 />
    <glyph glyph-name="Upsilon" unicode="&#x3a5;" 
 />
    <glyph glyph-name="Phi" unicode="&#x3a6;" 
 />
    <glyph glyph-name="Chi" unicode="&#x3a7;" 
 />
    <glyph glyph-name="Psi" unicode="&#x3a8;" 
 />
    <glyph glyph-name="uni03A9" unicode="&#x3a9;" 
 />
    <glyph glyph-name="Iotadieresis" unicode="&#x3aa;" horiz-adv-x="512" 
 />
    <glyph glyph-name="Upsilondieresis" unicode="&#x3ab;" horiz-adv-x="512" 
 />
    <glyph glyph-name="alphatonos" unicode="&#x3ac;" horiz-adv-x="512" 
 />
    <glyph glyph-name="epsilontonos" unicode="&#x3ad;" horiz-adv-x="512" 
 />
    <glyph glyph-name="etatonos" unicode="&#x3ae;" horiz-adv-x="512" 
 />
    <glyph glyph-name="iotatonos" unicode="&#x3af;" horiz-adv-x="512" 
 />
    <glyph glyph-name="upsilondieresistonos" unicode="&#x3b0;" horiz-adv-x="512" 
 />
    <glyph glyph-name="alpha" unicode="&#x3b1;" 
 />
    <glyph glyph-name="beta" unicode="&#x3b2;" 
 />
    <glyph glyph-name="gamma" unicode="&#x3b3;" 
 />
    <glyph glyph-name="delta" unicode="&#x3b4;" 
 />
    <glyph glyph-name="epsilon" unicode="&#x3b5;" 
 />
    <glyph glyph-name="zeta" unicode="&#x3b6;" 
 />
    <glyph glyph-name="eta" unicode="&#x3b7;" 
 />
    <glyph glyph-name="theta" unicode="&#x3b8;" 
 />
    <glyph glyph-name="iota" unicode="&#x3b9;" 
 />
    <glyph glyph-name="kappa" unicode="&#x3ba;" 
 />
    <glyph glyph-name="lambda" unicode="&#x3bb;" 
 />
    <glyph glyph-name="uni03BC" unicode="&#x3bc;" 
 />
    <glyph glyph-name="nu" unicode="&#x3bd;" 
 />
    <glyph glyph-name="xi" unicode="&#x3be;" 
 />
    <glyph glyph-name="omicron" unicode="&#x3bf;" 
 />
    <glyph glyph-name="pi" unicode="&#x3c0;" 
 />
    <glyph glyph-name="rho" unicode="&#x3c1;" 
 />
    <glyph glyph-name="sigma1" unicode="&#x3c2;" horiz-adv-x="512" 
 />
    <glyph glyph-name="sigma" unicode="&#x3c3;" 
 />
    <glyph glyph-name="tau" unicode="&#x3c4;" 
 />
    <glyph glyph-name="upsilon" unicode="&#x3c5;" 
 />
    <glyph glyph-name="phi" unicode="&#x3c6;" 
 />
    <glyph glyph-name="chi" unicode="&#x3c7;" 
 />
    <glyph glyph-name="psi" unicode="&#x3c8;" 
 />
    <glyph glyph-name="omega" unicode="&#x3c9;" 
 />
    <glyph glyph-name="iotadieresis" unicode="&#x3ca;" horiz-adv-x="512" 
 />
    <glyph glyph-name="upsilondieresis" unicode="&#x3cb;" horiz-adv-x="512" 
 />
    <glyph glyph-name="omicrontonos" unicode="&#x3cc;" horiz-adv-x="512" 
 />
    <glyph glyph-name="upsilontonos" unicode="&#x3cd;" horiz-adv-x="512" 
 />
    <glyph glyph-name="omegatonos" unicode="&#x3ce;" horiz-adv-x="512" 
 />
    <glyph glyph-name="uni0401" unicode="&#x401;" 
 />
    <glyph glyph-name="uni0402" unicode="&#x402;" horiz-adv-x="512" 
 />
    <glyph glyph-name="uni0403" unicode="&#x403;" horiz-adv-x="512" 
 />
    <glyph glyph-name="uni0404" unicode="&#x404;" horiz-adv-x="512" 
 />
    <glyph glyph-name="uni0405" unicode="&#x405;" horiz-adv-x="512" 
 />
    <glyph glyph-name="uni0406" unicode="&#x406;" horiz-adv-x="512" 
 />
    <glyph glyph-name="uni0407" unicode="&#x407;" horiz-adv-x="512" 
 />
    <glyph glyph-name="uni0408" unicode="&#x408;" horiz-adv-x="512" 
 />
    <glyph glyph-name="uni0409" unicode="&#x409;" horiz-adv-x="512" 
 />
    <glyph glyph-name="uni040A" unicode="&#x40a;" horiz-adv-x="512" 
 />
    <glyph glyph-name="uni040B" unicode="&#x40b;" horiz-adv-x="512" 
 />
    <glyph glyph-name="uni040C" unicode="&#x40c;" horiz-adv-x="512" 
 />
    <glyph glyph-name="uni040E" unicode="&#x40e;" horiz-adv-x="512" 
 />
    <glyph glyph-name="uni040F" unicode="&#x40f;" horiz-adv-x="512" 
 />
    <glyph glyph-name="uni0410" unicode="&#x410;" 
 />
    <glyph glyph-name="uni0411" unicode="&#x411;" 
 />
    <glyph glyph-name="uni0412" unicode="&#x412;" 
 />
    <glyph glyph-name="uni0413" unicode="&#x413;" 
 />
    <glyph glyph-name="uni0414" unicode="&#x414;" 
 />
    <glyph glyph-name="uni0415" unicode="&#x415;" 
 />
    <glyph glyph-name="uni0416" unicode="&#x416;" 
 />
    <glyph glyph-name="uni0417" unicode="&#x417;" 
 />
    <glyph glyph-name="uni0418" unicode="&#x418;" 
 />
    <glyph glyph-name="uni0419" unicode="&#x419;" 
 />
    <glyph glyph-name="uni041A" unicode="&#x41a;" 
 />
    <glyph glyph-name="uni041B" unicode="&#x41b;" 
 />
    <glyph glyph-name="uni041C" unicode="&#x41c;" 
 />
    <glyph glyph-name="uni041D" unicode="&#x41d;" 
 />
    <glyph glyph-name="uni041E" unicode="&#x41e;" 
 />
    <glyph glyph-name="uni041F" unicode="&#x41f;" 
 />
    <glyph glyph-name="uni0420" unicode="&#x420;" 
 />
    <glyph glyph-name="uni0421" unicode="&#x421;" 
 />
    <glyph glyph-name="uni0422" unicode="&#x422;" 
 />
    <glyph glyph-name="uni0423" unicode="&#x423;" 
 />
    <glyph glyph-name="uni0424" unicode="&#x424;" 
 />
    <glyph glyph-name="uni0425" unicode="&#x425;" 
 />
    <glyph glyph-name="uni0426" unicode="&#x426;" 
 />
    <glyph glyph-name="uni0427" unicode="&#x427;" 
 />
    <glyph glyph-name="uni0428" unicode="&#x428;" 
 />
    <glyph glyph-name="uni0429" unicode="&#x429;" 
 />
    <glyph glyph-name="uni042A" unicode="&#x42a;" 
 />
    <glyph glyph-name="uni042B" unicode="&#x42b;" 
 />
    <glyph glyph-name="uni042C" unicode="&#x42c;" 
 />
    <glyph glyph-name="uni042D" unicode="&#x42d;" 
 />
    <glyph glyph-name="uni042E" unicode="&#x42e;" 
 />
    <glyph glyph-name="uni042F" unicode="&#x42f;" 
 />
    <glyph glyph-name="uni0430" unicode="&#x430;" 
 />
    <glyph glyph-name="uni0431" unicode="&#x431;" 
 />
    <glyph glyph-name="uni0432" unicode="&#x432;" 
 />
    <glyph glyph-name="uni0433" unicode="&#x433;" 
 />
    <glyph glyph-name="uni0434" unicode="&#x434;" 
 />
    <glyph glyph-name="uni0435" unicode="&#x435;" 
 />
    <glyph glyph-name="uni0436" unicode="&#x436;" 
 />
    <glyph glyph-name="uni0437" unicode="&#x437;" 
 />
    <glyph glyph-name="uni0438" unicode="&#x438;" 
 />
    <glyph glyph-name="uni0439" unicode="&#x439;" 
 />
    <glyph glyph-name="uni043A" unicode="&#x43a;" 
 />
    <glyph glyph-name="uni043B" unicode="&#x43b;" 
 />
    <glyph glyph-name="uni043C" unicode="&#x43c;" 
 />
    <glyph glyph-name="uni043D" unicode="&#x43d;" 
 />
    <glyph glyph-name="uni043E" unicode="&#x43e;" 
 />
    <glyph glyph-name="uni043F" unicode="&#x43f;" 
 />
    <glyph glyph-name="uni0440" unicode="&#x440;" 
 />
    <glyph glyph-name="uni0441" unicode="&#x441;" 
 />
    <glyph glyph-name="uni0442" unicode="&#x442;" 
 />
    <glyph glyph-name="uni0443" unicode="&#x443;" 
 />
    <glyph glyph-name="uni0444" unicode="&#x444;" 
 />
    <glyph glyph-name="uni0445" unicode="&#x445;" 
 />
    <glyph glyph-name="uni0446" unicode="&#x446;" 
 />
    <glyph glyph-name="uni0447" unicode="&#x447;" 
 />
    <glyph glyph-name="uni0448" unicode="&#x448;" 
 />
    <glyph glyph-name="uni0449" unicode="&#x449;" 
 />
    <glyph glyph-name="uni044A" unicode="&#x44a;" 
 />
    <glyph glyph-name="uni044B" unicode="&#x44b;" 
 />
    <glyph glyph-name="uni044C" unicode="&#x44c;" 
 />
    <glyph glyph-name="uni044D" unicode="&#x44d;" 
 />
    <glyph glyph-name="uni044E" unicode="&#x44e;" 
 />
    <glyph glyph-name="uni044F" unicode="&#x44f;" 
 />
    <glyph glyph-name="uni0451" unicode="&#x451;" 
 />
    <glyph glyph-name="uni0452" unicode="&#x452;" horiz-adv-x="512" 
 />
    <glyph glyph-name="uni0453" unicode="&#x453;" horiz-adv-x="512" 
 />
    <glyph glyph-name="uni0454" unicode="&#x454;" horiz-adv-x="512" 
 />
    <glyph glyph-name="uni0455" unicode="&#x455;" horiz-adv-x="512" 
 />
    <glyph glyph-name="uni0456" unicode="&#x456;" horiz-adv-x="512" 
 />
    <glyph glyph-name="uni0457" unicode="&#x457;" horiz-adv-x="512" 
 />
    <glyph glyph-name="uni0458" unicode="&#x458;" horiz-adv-x="512" 
 />
    <glyph glyph-name="uni0459" unicode="&#x459;" horiz-adv-x="512" 
 />
    <glyph glyph-name="uni045A" unicode="&#x45a;" horiz-adv-x="512" 
 />
    <glyph glyph-name="uni045B" unicode="&#x45b;" horiz-adv-x="512" 
 />
    <glyph glyph-name="uni045C" unicode="&#x45c;" horiz-adv-x="512" 
 />
    <glyph glyph-name="uni045E" unicode="&#x45e;" horiz-adv-x="512" 
 />
    <glyph glyph-name="uni045F" unicode="&#x45f;" horiz-adv-x="512" 
 />
    <glyph glyph-name="uni0460" unicode="&#x460;" horiz-adv-x="512" 
 />
    <glyph glyph-name="uni0461" unicode="&#x461;" horiz-adv-x="512" 
 />
    <glyph glyph-name="uni0462" unicode="&#x462;" horiz-adv-x="512" 
 />
    <glyph glyph-name="uni0463" unicode="&#x463;" horiz-adv-x="512" 
 />
    <glyph glyph-name="uni0464" unicode="&#x464;" horiz-adv-x="512" 
 />
    <glyph glyph-name="uni0465" unicode="&#x465;" horiz-adv-x="512" 
 />
    <glyph glyph-name="uni0466" unicode="&#x466;" horiz-adv-x="512" 
 />
    <glyph glyph-name="uni0467" unicode="&#x467;" horiz-adv-x="512" 
 />
    <glyph glyph-name="uni0468" unicode="&#x468;" horiz-adv-x="512" 
 />
    <glyph glyph-name="uni0469" unicode="&#x469;" horiz-adv-x="512" 
 />
    <glyph glyph-name="uni046A" unicode="&#x46a;" horiz-adv-x="512" 
 />
    <glyph glyph-name="uni046B" unicode="&#x46b;" horiz-adv-x="512" 
 />
    <glyph glyph-name="uni046C" unicode="&#x46c;" horiz-adv-x="512" 
 />
    <glyph glyph-name="uni046D" unicode="&#x46d;" horiz-adv-x="512" 
 />
    <glyph glyph-name="uni046E" unicode="&#x46e;" horiz-adv-x="512" 
 />
    <glyph glyph-name="uni046F" unicode="&#x46f;" horiz-adv-x="512" 
 />
    <glyph glyph-name="uni0470" unicode="&#x470;" horiz-adv-x="512" 
 />
    <glyph glyph-name="uni0471" unicode="&#x471;" horiz-adv-x="512" 
 />
    <glyph glyph-name="uni0472" unicode="&#x472;" horiz-adv-x="512" 
 />
    <glyph glyph-name="uni0473" unicode="&#x473;" horiz-adv-x="512" 
 />
    <glyph glyph-name="uni0474" unicode="&#x474;" horiz-adv-x="512" 
 />
    <glyph glyph-name="uni0475" unicode="&#x475;" horiz-adv-x="512" 
 />
    <glyph glyph-name="uni0476" unicode="&#x476;" horiz-adv-x="512" 
 />
    <glyph glyph-name="uni0477" unicode="&#x477;" horiz-adv-x="512" 
 />
    <glyph glyph-name="uni0478" unicode="&#x478;" horiz-adv-x="512" 
 />
    <glyph glyph-name="uni0479" unicode="&#x479;" horiz-adv-x="512" 
 />
    <glyph glyph-name="uni047A" unicode="&#x47a;" horiz-adv-x="512" 
 />
    <glyph glyph-name="uni047B" unicode="&#x47b;" horiz-adv-x="512" 
 />
    <glyph glyph-name="uni047C" unicode="&#x47c;" horiz-adv-x="512" 
 />
    <glyph glyph-name="uni047D" unicode="&#x47d;" horiz-adv-x="512" 
 />
    <glyph glyph-name="uni047E" unicode="&#x47e;" horiz-adv-x="512" 
 />
    <glyph glyph-name="uni047F" unicode="&#x47f;" horiz-adv-x="512" 
 />
    <glyph glyph-name="uni0480" unicode="&#x480;" horiz-adv-x="512" 
 />
    <glyph glyph-name="uni0481" unicode="&#x481;" horiz-adv-x="512" 
 />
    <glyph glyph-name="uni0482" unicode="&#x482;" horiz-adv-x="512" 
 />
    <glyph glyph-name="uni0483" unicode="&#x483;" horiz-adv-x="512" 
 />
    <glyph glyph-name="uni0484" unicode="&#x484;" horiz-adv-x="512" 
 />
    <glyph glyph-name="uni0485" unicode="&#x485;" horiz-adv-x="512" 
 />
    <glyph glyph-name="uni0486" unicode="&#x486;" horiz-adv-x="512" 
 />
    <glyph glyph-name="uni0490" unicode="&#x490;" horiz-adv-x="512" 
 />
    <glyph glyph-name="uni0491" unicode="&#x491;" horiz-adv-x="512" 
 />
    <glyph glyph-name="uni0492" unicode="&#x492;" horiz-adv-x="512" 
 />
    <glyph glyph-name="uni0493" unicode="&#x493;" horiz-adv-x="512" 
 />
    <glyph glyph-name="uni0494" unicode="&#x494;" horiz-adv-x="512" 
 />
    <glyph glyph-name="uni0495" unicode="&#x495;" horiz-adv-x="512" 
 />
    <glyph glyph-name="uni0496" unicode="&#x496;" horiz-adv-x="512" 
 />
    <glyph glyph-name="uni0497" unicode="&#x497;" horiz-adv-x="512" 
 />
    <glyph glyph-name="uni0498" unicode="&#x498;" horiz-adv-x="512" 
 />
    <glyph glyph-name="uni0499" unicode="&#x499;" horiz-adv-x="512" 
 />
    <glyph glyph-name="uni049A" unicode="&#x49a;" horiz-adv-x="512" 
 />
    <glyph glyph-name="uni049B" unicode="&#x49b;" horiz-adv-x="512" 
 />
    <glyph glyph-name="uni049C" unicode="&#x49c;" horiz-adv-x="512" 
 />
    <glyph glyph-name="uni049D" unicode="&#x49d;" horiz-adv-x="512" 
 />
    <glyph glyph-name="uni049E" unicode="&#x49e;" horiz-adv-x="512" 
 />
    <glyph glyph-name="uni049F" unicode="&#x49f;" horiz-adv-x="512" 
 />
    <glyph glyph-name="uni04A0" unicode="&#x4a0;" horiz-adv-x="512" 
 />
    <glyph glyph-name="uni04A1" unicode="&#x4a1;" horiz-adv-x="512" 
 />
    <glyph glyph-name="uni04A2" unicode="&#x4a2;" horiz-adv-x="512" 
 />
    <glyph glyph-name="uni04A3" unicode="&#x4a3;" horiz-adv-x="512" 
 />
    <glyph glyph-name="uni04A4" unicode="&#x4a4;" horiz-adv-x="512" 
 />
    <glyph glyph-name="uni04A5" unicode="&#x4a5;" horiz-adv-x="512" 
 />
    <glyph glyph-name="uni04A6" unicode="&#x4a6;" horiz-adv-x="512" 
 />
    <glyph glyph-name="uni04A7" unicode="&#x4a7;" horiz-adv-x="512" 
 />
    <glyph glyph-name="uni04A8" unicode="&#x4a8;" horiz-adv-x="512" 
 />
    <glyph glyph-name="uni04A9" unicode="&#x4a9;" horiz-adv-x="512" 
 />
    <glyph glyph-name="uni04AA" unicode="&#x4aa;" horiz-adv-x="512" 
 />
    <glyph glyph-name="uni04AB" unicode="&#x4ab;" horiz-adv-x="512" 
 />
    <glyph glyph-name="uni04AC" unicode="&#x4ac;" horiz-adv-x="512" 
 />
    <glyph glyph-name="uni04AD" unicode="&#x4ad;" horiz-adv-x="512" 
 />
    <glyph glyph-name="uni04AE" unicode="&#x4ae;" horiz-adv-x="512" 
 />
    <glyph glyph-name="uni04AF" unicode="&#x4af;" horiz-adv-x="512" 
 />
    <glyph glyph-name="uni04B0" unicode="&#x4b0;" horiz-adv-x="512" 
 />
    <glyph glyph-name="uni04B1" unicode="&#x4b1;" horiz-adv-x="512" 
 />
    <glyph glyph-name="uni04B2" unicode="&#x4b2;" horiz-adv-x="512" 
 />
    <glyph glyph-name="uni04B3" unicode="&#x4b3;" horiz-adv-x="512" 
 />
    <glyph glyph-name="uni04B4" unicode="&#x4b4;" horiz-adv-x="512" 
 />
    <glyph glyph-name="uni04B5" unicode="&#x4b5;" horiz-adv-x="512" 
 />
    <glyph glyph-name="uni04B6" unicode="&#x4b6;" horiz-adv-x="512" 
 />
    <glyph glyph-name="uni04B7" unicode="&#x4b7;" horiz-adv-x="512" 
 />
    <glyph glyph-name="uni04B8" unicode="&#x4b8;" horiz-adv-x="512" 
 />
    <glyph glyph-name="uni04B9" unicode="&#x4b9;" horiz-adv-x="512" 
 />
    <glyph glyph-name="uni04BA" unicode="&#x4ba;" horiz-adv-x="512" 
 />
    <glyph glyph-name="uni04BB" unicode="&#x4bb;" horiz-adv-x="512" 
 />
    <glyph glyph-name="uni04BC" unicode="&#x4bc;" horiz-adv-x="512" 
 />
    <glyph glyph-name="uni04BD" unicode="&#x4bd;" horiz-adv-x="512" 
 />
    <glyph glyph-name="uni04BE" unicode="&#x4be;" horiz-adv-x="512" 
 />
    <glyph glyph-name="uni04BF" unicode="&#x4bf;" horiz-adv-x="512" 
 />
    <glyph glyph-name="uni04C0" unicode="&#x4c0;" horiz-adv-x="512" 
 />
    <glyph glyph-name="uni04C1" unicode="&#x4c1;" horiz-adv-x="512" 
 />
    <glyph glyph-name="uni04C2" unicode="&#x4c2;" horiz-adv-x="512" 
 />
    <glyph glyph-name="uni04C3" unicode="&#x4c3;" horiz-adv-x="512" 
 />
    <glyph glyph-name="uni04C4" unicode="&#x4c4;" horiz-adv-x="512" 
 />
    <glyph glyph-name="uni04C7" unicode="&#x4c7;" horiz-adv-x="512" 
 />
    <glyph glyph-name="uni04C8" unicode="&#x4c8;" horiz-adv-x="512" 
 />
    <glyph glyph-name="uni04CB" unicode="&#x4cb;" horiz-adv-x="512" 
 />
    <glyph glyph-name="uni04CC" unicode="&#x4cc;" horiz-adv-x="512" 
 />
    <glyph glyph-name="uni04D0" unicode="&#x4d0;" horiz-adv-x="512" 
 />
    <glyph glyph-name="uni04D1" unicode="&#x4d1;" horiz-adv-x="512" 
 />
    <glyph glyph-name="uni04D2" unicode="&#x4d2;" horiz-adv-x="512" 
 />
    <glyph glyph-name="uni04D3" unicode="&#x4d3;" horiz-adv-x="512" 
 />
    <glyph glyph-name="uni04D4" unicode="&#x4d4;" horiz-adv-x="512" 
 />
    <glyph glyph-name="uni04D5" unicode="&#x4d5;" horiz-adv-x="512" 
 />
    <glyph glyph-name="uni04D6" unicode="&#x4d6;" horiz-adv-x="512" 
 />
    <glyph glyph-name="uni04D7" unicode="&#x4d7;" horiz-adv-x="512" 
 />
    <glyph glyph-name="uni04D8" unicode="&#x4d8;" horiz-adv-x="512" 
 />
    <glyph glyph-name="uni04D9" unicode="&#x4d9;" horiz-adv-x="512" 
 />
    <glyph glyph-name="uni04DA" unicode="&#x4da;" horiz-adv-x="512" 
 />
    <glyph glyph-name="uni04DB" unicode="&#x4db;" horiz-adv-x="512" 
 />
    <glyph glyph-name="uni04DC" unicode="&#x4dc;" horiz-adv-x="512" 
 />
    <glyph glyph-name="uni04DD" unicode="&#x4dd;" horiz-adv-x="512" 
 />
    <glyph glyph-name="uni04DE" unicode="&#x4de;" horiz-adv-x="512" 
 />
    <glyph glyph-name="uni04DF" unicode="&#x4df;" horiz-adv-x="512" 
 />
    <glyph glyph-name="uni04E0" unicode="&#x4e0;" horiz-adv-x="512" 
 />
    <glyph glyph-name="uni04E1" unicode="&#x4e1;" horiz-adv-x="512" 
 />
    <glyph glyph-name="uni04E2" unicode="&#x4e2;" horiz-adv-x="512" 
 />
    <glyph glyph-name="uni04E3" unicode="&#x4e3;" horiz-adv-x="512" 
 />
    <glyph glyph-name="uni04E4" unicode="&#x4e4;" horiz-adv-x="512" 
 />
    <glyph glyph-name="uni04E5" unicode="&#x4e5;" horiz-adv-x="512" 
 />
    <glyph glyph-name="uni04E6" unicode="&#x4e6;" horiz-adv-x="512" 
 />
    <glyph glyph-name="uni04E7" unicode="&#x4e7;" horiz-adv-x="512" 
 />
    <glyph glyph-name="uni04E8" unicode="&#x4e8;" horiz-adv-x="512" 
 />
    <glyph glyph-name="uni04E9" unicode="&#x4e9;" horiz-adv-x="512" 
 />
    <glyph glyph-name="uni04EA" unicode="&#x4ea;" horiz-adv-x="512" 
 />
    <glyph glyph-name="uni04EB" unicode="&#x4eb;" horiz-adv-x="512" 
 />
    <glyph glyph-name="uni04EE" unicode="&#x4ee;" horiz-adv-x="512" 
 />
    <glyph glyph-name="uni04EF" unicode="&#x4ef;" horiz-adv-x="512" 
 />
    <glyph glyph-name="uni04F0" unicode="&#x4f0;" horiz-adv-x="512" 
 />
    <glyph glyph-name="uni04F1" unicode="&#x4f1;" horiz-adv-x="512" 
 />
    <glyph glyph-name="uni04F2" unicode="&#x4f2;" horiz-adv-x="512" 
 />
    <glyph glyph-name="uni04F3" unicode="&#x4f3;" horiz-adv-x="512" 
 />
    <glyph glyph-name="uni04F4" unicode="&#x4f4;" horiz-adv-x="512" 
 />
    <glyph glyph-name="uni04F5" unicode="&#x4f5;" horiz-adv-x="512" 
 />
    <glyph glyph-name="uni04F8" unicode="&#x4f8;" horiz-adv-x="512" 
 />
    <glyph glyph-name="uni04F9" unicode="&#x4f9;" horiz-adv-x="512" 
 />
    <glyph glyph-name="Wgrave" unicode="&#x1e80;" horiz-adv-x="512" 
 />
    <glyph glyph-name="wgrave" unicode="&#x1e81;" horiz-adv-x="512" 
 />
    <glyph glyph-name="Wacute" unicode="&#x1e82;" horiz-adv-x="512" 
 />
    <glyph glyph-name="wacute" unicode="&#x1e83;" horiz-adv-x="512" 
 />
    <glyph glyph-name="Wdieresis" unicode="&#x1e84;" horiz-adv-x="512" 
 />
    <glyph glyph-name="wdieresis" unicode="&#x1e85;" horiz-adv-x="512" 
 />
    <glyph glyph-name="Ygrave" unicode="&#x1ef2;" horiz-adv-x="512" 
 />
    <glyph glyph-name="ygrave" unicode="&#x1ef3;" horiz-adv-x="512" 
 />
    <glyph glyph-name="uni2000" unicode="&#x2000;" 
 />
    <glyph glyph-name="uni2001" unicode="&#x2001;" 
 />
    <glyph glyph-name="uni2002" unicode="&#x2002;" 
 />
    <glyph glyph-name="uni2003" unicode="&#x2003;" 
 />
    <glyph glyph-name="uni2004" unicode="&#x2004;" 
 />
    <glyph glyph-name="uni2005" unicode="&#x2005;" 
 />
    <glyph glyph-name="uni2006" unicode="&#x2006;" 
 />
    <glyph glyph-name="uni2007" unicode="&#x2007;" 
 />
    <glyph glyph-name="uni2008" unicode="&#x2008;" 
 />
    <glyph glyph-name="uni2009" unicode="&#x2009;" 
 />
    <glyph glyph-name="uni200A" unicode="&#x200a;" 
 />
    <glyph glyph-name="uni200B" unicode="&#x200b;" horiz-adv-x="512" 
 />
    <glyph glyph-name="uni200C" unicode="&#x200c;" horiz-adv-x="512" 
 />
    <glyph glyph-name="uni200D" unicode="&#x200d;" horiz-adv-x="512" 
 />
    <glyph glyph-name="uni200E" unicode="&#x200e;" horiz-adv-x="512" 
 />
    <glyph glyph-name="uni200F" unicode="&#x200f;" horiz-adv-x="512" 
 />
    <glyph glyph-name="uni2010" unicode="&#x2010;" 
 />
    <glyph glyph-name="uni2011" unicode="&#x2011;" 
 />
    <glyph glyph-name="figuredash" unicode="&#x2012;" 
 />
    <glyph glyph-name="endash" unicode="&#x2013;" 
 />
    <glyph glyph-name="emdash" unicode="&#x2014;" 
 />
    <glyph glyph-name="uni2015" unicode="&#x2015;" 
 />
    <glyph glyph-name="underscoredbl" unicode="&#x2017;" 
 />
    <glyph glyph-name="quoteleft" unicode="&#x2018;" 
 />
    <glyph glyph-name="quoteright" unicode="&#x2019;" 
 />
    <glyph glyph-name="quotesinglbase" unicode="&#x201a;" 
 />
    <glyph glyph-name="quotereversed" unicode="&#x201b;" 
 />
    <glyph glyph-name="quotedblleft" unicode="&#x201c;" 
 />
    <glyph glyph-name="quotedblright" unicode="&#x201d;" 
 />
    <glyph glyph-name="quotedblbase" unicode="&#x201e;" 
 />
    <glyph glyph-name="uni201F" unicode="&#x201f;" 
 />
    <glyph glyph-name="dagger" unicode="&#x2020;" 
 />
    <glyph glyph-name="daggerdbl" unicode="&#x2021;" 
 />
    <glyph glyph-name="bullet" unicode="&#x2022;" 
 />
    <glyph glyph-name="uni2023" unicode="&#x2023;" 
 />
    <glyph glyph-name="onedotenleader" unicode="&#x2024;" 
 />
    <glyph glyph-name="twodotenleader" unicode="&#x2025;" 
 />
    <glyph glyph-name="ellipsis" unicode="&#x2026;" 
 />
    <glyph glyph-name="uni2027" unicode="&#x2027;" 
 />
    <glyph glyph-name="uni2028" unicode="&#x2028;" 
 />
    <glyph glyph-name="uni2029" unicode="&#x2029;" horiz-adv-x="512" 
 />
    <glyph glyph-name="uni202A" unicode="&#x202a;" horiz-adv-x="512" 
 />
    <glyph glyph-name="uni202B" unicode="&#x202b;" horiz-adv-x="512" 
 />
    <glyph glyph-name="uni202C" unicode="&#x202c;" horiz-adv-x="512" 
 />
    <glyph glyph-name="uni202D" unicode="&#x202d;" horiz-adv-x="512" 
 />
    <glyph glyph-name="uni202E" unicode="&#x202e;" horiz-adv-x="512" 
 />
    <glyph glyph-name="perthousand" unicode="&#x2030;" 
 />
    <glyph glyph-name="uni2031" unicode="&#x2031;" 
 />
    <glyph glyph-name="minute" unicode="&#x2032;" 
 />
    <glyph glyph-name="second" unicode="&#x2033;" 
 />
    <glyph glyph-name="uni2034" unicode="&#x2034;" 
 />
    <glyph glyph-name="uni2035" unicode="&#x2035;" 
 />
    <glyph glyph-name="uni2036" unicode="&#x2036;" 
 />
    <glyph glyph-name="uni2037" unicode="&#x2037;" 
 />
    <glyph glyph-name="uni2038" unicode="&#x2038;" 
 />
    <glyph glyph-name="guilsinglleft" unicode="&#x2039;" 
 />
    <glyph glyph-name="guilsinglright" unicode="&#x203a;" 
 />
    <glyph glyph-name="uni203B" unicode="&#x203b;" 
 />
    <glyph glyph-name="exclamdbl" unicode="&#x203c;" 
 />
    <glyph glyph-name="uni203D" unicode="&#x203d;" 
 />
    <glyph glyph-name="uni203E" unicode="&#x203e;" 
 />
    <glyph glyph-name="uni203F" unicode="&#x203f;" 
 />
    <glyph glyph-name="uni2040" unicode="&#x2040;" 
 />
    <glyph glyph-name="uni2041" unicode="&#x2041;" 
 />
    <glyph glyph-name="uni2042" unicode="&#x2042;" 
 />
    <glyph glyph-name="uni2043" unicode="&#x2043;" 
 />
    <glyph glyph-name="fraction" unicode="&#x2044;" 
 />
    <glyph glyph-name="uni2045" unicode="&#x2045;" 
 />
    <glyph glyph-name="uni2046" unicode="&#x2046;" 
 />
    <glyph glyph-name="uni2070" unicode="&#x2070;" horiz-adv-x="512" 
 />
    <glyph glyph-name="uni2074" unicode="&#x2074;" horiz-adv-x="512" 
 />
    <glyph glyph-name="uni2075" unicode="&#x2075;" horiz-adv-x="512" 
 />
    <glyph glyph-name="uni2076" unicode="&#x2076;" horiz-adv-x="512" 
 />
    <glyph glyph-name="uni2077" unicode="&#x2077;" horiz-adv-x="512" 
 />
    <glyph glyph-name="uni2078" unicode="&#x2078;" horiz-adv-x="512" 
 />
    <glyph glyph-name="uni2079" unicode="&#x2079;" horiz-adv-x="512" 
 />
    <glyph glyph-name="uni207A" unicode="&#x207a;" horiz-adv-x="512" 
 />
    <glyph glyph-name="uni207B" unicode="&#x207b;" horiz-adv-x="512" 
 />
    <glyph glyph-name="uni207C" unicode="&#x207c;" horiz-adv-x="512" 
 />
    <glyph glyph-name="uni207D" unicode="&#x207d;" horiz-adv-x="512" 
 />
    <glyph glyph-name="uni207E" unicode="&#x207e;" horiz-adv-x="512" 
 />
    <glyph glyph-name="uni207F" unicode="&#x207f;" horiz-adv-x="512" 
 />
    <glyph glyph-name="uni2080" unicode="&#x2080;" horiz-adv-x="512" 
 />
    <glyph glyph-name="uni2081" unicode="&#x2081;" horiz-adv-x="512" 
 />
    <glyph glyph-name="uni2082" unicode="&#x2082;" horiz-adv-x="512" 
 />
    <glyph glyph-name="uni2083" unicode="&#x2083;" horiz-adv-x="512" 
 />
    <glyph glyph-name="uni2084" unicode="&#x2084;" horiz-adv-x="512" 
 />
    <glyph glyph-name="uni2085" unicode="&#x2085;" horiz-adv-x="512" 
 />
    <glyph glyph-name="uni2086" unicode="&#x2086;" horiz-adv-x="512" 
 />
    <glyph glyph-name="uni2087" unicode="&#x2087;" horiz-adv-x="512" 
 />
    <glyph glyph-name="uni2088" unicode="&#x2088;" horiz-adv-x="512" 
 />
    <glyph glyph-name="uni2089" unicode="&#x2089;" horiz-adv-x="512" 
 />
    <glyph glyph-name="uni208A" unicode="&#x208a;" horiz-adv-x="512" 
 />
    <glyph glyph-name="uni208B" unicode="&#x208b;" horiz-adv-x="512" 
 />
    <glyph glyph-name="uni208C" unicode="&#x208c;" horiz-adv-x="512" 
 />
    <glyph glyph-name="uni208D" unicode="&#x208d;" horiz-adv-x="512" 
 />
    <glyph glyph-name="uni208E" unicode="&#x208e;" horiz-adv-x="512" 
 />
    <glyph glyph-name="uni20A0" unicode="&#x20a0;" horiz-adv-x="512" 
 />
    <glyph glyph-name="colonmonetary" unicode="&#x20a1;" horiz-adv-x="512" 
 />
    <glyph glyph-name="uni20A2" unicode="&#x20a2;" horiz-adv-x="512" 
 />
    <glyph glyph-name="franc" unicode="&#x20a3;" horiz-adv-x="512" 
 />
    <glyph glyph-name="lira" unicode="&#x20a4;" horiz-adv-x="512" 
 />
    <glyph glyph-name="uni20A5" unicode="&#x20a5;" horiz-adv-x="512" 
 />
    <glyph glyph-name="uni20A6" unicode="&#x20a6;" horiz-adv-x="512" 
 />
    <glyph glyph-name="peseta" unicode="&#x20a7;" horiz-adv-x="512" 
 />
    <glyph glyph-name="uni20A8" unicode="&#x20a8;" horiz-adv-x="512" 
 />
    <glyph glyph-name="uni20A9" unicode="&#x20a9;" horiz-adv-x="512" 
 />
    <glyph glyph-name="uni20AA" unicode="&#x20aa;" horiz-adv-x="512" 
 />
    <glyph glyph-name="uni2100" unicode="&#x2100;" 
 />
    <glyph glyph-name="uni2101" unicode="&#x2101;" 
 />
    <glyph glyph-name="uni2102" unicode="&#x2102;" 
 />
    <glyph glyph-name="uni2103" unicode="&#x2103;" 
 />
    <glyph glyph-name="uni2104" unicode="&#x2104;" 
 />
    <glyph glyph-name="uni2105" unicode="&#x2105;" 
 />
    <glyph glyph-name="uni2106" unicode="&#x2106;" 
 />
    <glyph glyph-name="uni2107" unicode="&#x2107;" 
 />
    <glyph glyph-name="uni2108" unicode="&#x2108;" 
 />
    <glyph glyph-name="uni2109" unicode="&#x2109;" 
 />
    <glyph glyph-name="uni210A" unicode="&#x210a;" 
 />
    <glyph glyph-name="uni210B" unicode="&#x210b;" 
 />
    <glyph glyph-name="uni210C" unicode="&#x210c;" 
 />
    <glyph glyph-name="uni210D" unicode="&#x210d;" 
 />
    <glyph glyph-name="uni210E" unicode="&#x210e;" 
 />
    <glyph glyph-name="uni210F" unicode="&#x210f;" 
 />
    <glyph glyph-name="uni2110" unicode="&#x2110;" 
 />
    <glyph glyph-name="Ifraktur" unicode="&#x2111;" 
 />
    <glyph glyph-name="uni2112" unicode="&#x2112;" 
 />
    <glyph glyph-name="uni2113" unicode="&#x2113;" 
 />
    <glyph glyph-name="uni2114" unicode="&#x2114;" 
 />
    <glyph glyph-name="uni2115" unicode="&#x2115;" 
 />
    <glyph glyph-name="uni2116" unicode="&#x2116;" 
 />
    <glyph glyph-name="uni2117" unicode="&#x2117;" 
 />
    <glyph glyph-name="weierstrass" unicode="&#x2118;" 
 />
    <glyph glyph-name="uni2119" unicode="&#x2119;" 
 />
    <glyph glyph-name="uni211A" unicode="&#x211a;" 
 />
    <glyph glyph-name="uni211B" unicode="&#x211b;" 
 />
    <glyph glyph-name="Rfraktur" unicode="&#x211c;" 
 />
    <glyph glyph-name="uni211D" unicode="&#x211d;" 
 />
    <glyph glyph-name="prescription" unicode="&#x211e;" 
 />
    <glyph glyph-name="uni211F" unicode="&#x211f;" 
 />
    <glyph glyph-name="uni2120" unicode="&#x2120;" 
 />
    <glyph glyph-name="uni2121" unicode="&#x2121;" 
 />
    <glyph glyph-name="trademark" unicode="&#x2122;" 
 />
    <glyph glyph-name="uni2123" unicode="&#x2123;" 
 />
    <glyph glyph-name="uni2124" unicode="&#x2124;" 
 />
    <glyph glyph-name="uni2125" unicode="&#x2125;" 
 />
    <glyph glyph-name="Omega" unicode="&#x2126;" 
 />
    <glyph glyph-name="uni2127" unicode="&#x2127;" 
 />
    <glyph glyph-name="uni2128" unicode="&#x2128;" 
 />
    <glyph glyph-name="uni2129" unicode="&#x2129;" 
 />
    <glyph glyph-name="uni212A" unicode="&#x212a;" 
 />
    <glyph glyph-name="uni212B" unicode="&#x212b;" 
 />
    <glyph glyph-name="uni212C" unicode="&#x212c;" 
 />
    <glyph glyph-name="uni212D" unicode="&#x212d;" 
 />
    <glyph glyph-name="estimated" unicode="&#x212e;" 
 />
    <glyph glyph-name="uni212F" unicode="&#x212f;" 
 />
    <glyph glyph-name="uni2130" unicode="&#x2130;" 
 />
    <glyph glyph-name="uni2131" unicode="&#x2131;" 
 />
    <glyph glyph-name="uni2132" unicode="&#x2132;" 
 />
    <glyph glyph-name="uni2133" unicode="&#x2133;" 
 />
    <glyph glyph-name="uni2134" unicode="&#x2134;" 
 />
    <glyph glyph-name="aleph" unicode="&#x2135;" 
 />
    <glyph glyph-name="uni2136" unicode="&#x2136;" 
 />
    <glyph glyph-name="uni2137" unicode="&#x2137;" 
 />
    <glyph glyph-name="uni2138" unicode="&#x2138;" 
 />
    <glyph glyph-name="onethird" unicode="&#x2153;" horiz-adv-x="512" 
 />
    <glyph glyph-name="twothirds" unicode="&#x2154;" horiz-adv-x="512" 
 />
    <glyph glyph-name="uni2155" unicode="&#x2155;" horiz-adv-x="512" 
 />
    <glyph glyph-name="uni2156" unicode="&#x2156;" horiz-adv-x="512" 
 />
    <glyph glyph-name="uni2157" unicode="&#x2157;" horiz-adv-x="512" 
 />
    <glyph glyph-name="uni2158" unicode="&#x2158;" horiz-adv-x="512" 
 />
    <glyph glyph-name="uni2159" unicode="&#x2159;" horiz-adv-x="512" 
 />
    <glyph glyph-name="uni215A" unicode="&#x215a;" horiz-adv-x="512" 
 />
    <glyph glyph-name="oneeighth" unicode="&#x215b;" horiz-adv-x="512" 
 />
    <glyph glyph-name="threeeighths" unicode="&#x215c;" horiz-adv-x="512" 
 />
    <glyph glyph-name="fiveeighths" unicode="&#x215d;" horiz-adv-x="512" 
 />
    <glyph glyph-name="seveneighths" unicode="&#x215e;" horiz-adv-x="512" 
 />
    <glyph glyph-name="uni215F" unicode="&#x215f;" horiz-adv-x="512" 
 />
    <glyph glyph-name="uni2160" unicode="&#x2160;" 
 />
    <glyph glyph-name="uni2161" unicode="&#x2161;" 
 />
    <glyph glyph-name="uni2162" unicode="&#x2162;" 
 />
    <glyph glyph-name="uni2163" unicode="&#x2163;" 
 />
    <glyph glyph-name="uni2164" unicode="&#x2164;" 
 />
    <glyph glyph-name="uni2165" unicode="&#x2165;" 
 />
    <glyph glyph-name="uni2166" unicode="&#x2166;" 
 />
    <glyph glyph-name="uni2167" unicode="&#x2167;" 
 />
    <glyph glyph-name="uni2168" unicode="&#x2168;" 
 />
    <glyph glyph-name="uni2169" unicode="&#x2169;" 
 />
    <glyph glyph-name="uni216A" unicode="&#x216a;" horiz-adv-x="512" 
 />
    <glyph glyph-name="uni216B" unicode="&#x216b;" horiz-adv-x="512" 
 />
    <glyph glyph-name="uni216C" unicode="&#x216c;" horiz-adv-x="512" 
 />
    <glyph glyph-name="uni216D" unicode="&#x216d;" horiz-adv-x="512" 
 />
    <glyph glyph-name="uni216E" unicode="&#x216e;" horiz-adv-x="512" 
 />
    <glyph glyph-name="uni216F" unicode="&#x216f;" horiz-adv-x="512" 
 />
    <glyph glyph-name="uni2170" unicode="&#x2170;" 
 />
    <glyph glyph-name="uni2171" unicode="&#x2171;" 
 />
    <glyph glyph-name="uni2172" unicode="&#x2172;" 
 />
    <glyph glyph-name="uni2173" unicode="&#x2173;" 
 />
    <glyph glyph-name="uni2174" unicode="&#x2174;" 
 />
    <glyph glyph-name="uni2175" unicode="&#x2175;" 
 />
    <glyph glyph-name="uni2176" unicode="&#x2176;" 
 />
    <glyph glyph-name="uni2177" unicode="&#x2177;" 
 />
    <glyph glyph-name="uni2178" unicode="&#x2178;" 
 />
    <glyph glyph-name="uni2179" unicode="&#x2179;" 
 />
    <glyph glyph-name="uni217A" unicode="&#x217a;" horiz-adv-x="512" 
 />
    <glyph glyph-name="uni217B" unicode="&#x217b;" horiz-adv-x="512" 
 />
    <glyph glyph-name="uni217C" unicode="&#x217c;" horiz-adv-x="512" 
 />
    <glyph glyph-name="uni217D" unicode="&#x217d;" horiz-adv-x="512" 
 />
    <glyph glyph-name="uni217E" unicode="&#x217e;" horiz-adv-x="512" 
 />
    <glyph glyph-name="uni217F" unicode="&#x217f;" horiz-adv-x="512" 
 />
    <glyph glyph-name="uni2180" unicode="&#x2180;" horiz-adv-x="512" 
 />
    <glyph glyph-name="uni2181" unicode="&#x2181;" horiz-adv-x="512" 
 />
    <glyph glyph-name="uni2182" unicode="&#x2182;" horiz-adv-x="512" 
 />
    <glyph glyph-name="arrowleft" unicode="&#x2190;" 
 />
    <glyph glyph-name="arrowup" unicode="&#x2191;" 
 />
    <glyph glyph-name="arrowright" unicode="&#x2192;" 
 />
    <glyph glyph-name="arrowdown" unicode="&#x2193;" 
 />
    <glyph glyph-name="arrowboth" unicode="&#x2194;" horiz-adv-x="512" 
 />
    <glyph glyph-name="arrowupdn" unicode="&#x2195;" horiz-adv-x="512" 
 />
    <glyph glyph-name="uni2196" unicode="&#x2196;" horiz-adv-x="512" 
 />
    <glyph glyph-name="uni2197" unicode="&#x2197;" horiz-adv-x="512" 
 />
    <glyph glyph-name="uni2198" unicode="&#x2198;" horiz-adv-x="512" 
 />
    <glyph glyph-name="uni2199" unicode="&#x2199;" horiz-adv-x="512" 
 />
    <glyph glyph-name="uni219A" unicode="&#x219a;" horiz-adv-x="512" 
 />
    <glyph glyph-name="uni219B" unicode="&#x219b;" horiz-adv-x="512" 
 />
    <glyph glyph-name="uni219C" unicode="&#x219c;" horiz-adv-x="512" 
 />
    <glyph glyph-name="uni219D" unicode="&#x219d;" horiz-adv-x="512" 
 />
    <glyph glyph-name="uni219E" unicode="&#x219e;" horiz-adv-x="512" 
 />
    <glyph glyph-name="uni219F" unicode="&#x219f;" horiz-adv-x="512" 
 />
    <glyph glyph-name="uni21A0" unicode="&#x21a0;" horiz-adv-x="512" 
 />
    <glyph glyph-name="uni21A1" unicode="&#x21a1;" horiz-adv-x="512" 
 />
    <glyph glyph-name="uni21A2" unicode="&#x21a2;" horiz-adv-x="512" 
 />
    <glyph glyph-name="uni21A3" unicode="&#x21a3;" horiz-adv-x="512" 
 />
    <glyph glyph-name="uni21A4" unicode="&#x21a4;" horiz-adv-x="512" 
 />
    <glyph glyph-name="uni21A5" unicode="&#x21a5;" horiz-adv-x="512" 
 />
    <glyph glyph-name="uni21A6" unicode="&#x21a6;" horiz-adv-x="512" 
 />
    <glyph glyph-name="uni21A7" unicode="&#x21a7;" horiz-adv-x="512" 
 />
    <glyph glyph-name="arrowupdnbse" unicode="&#x21a8;" horiz-adv-x="512" 
 />
    <glyph glyph-name="uni21A9" unicode="&#x21a9;" horiz-adv-x="512" 
 />
    <glyph glyph-name="uni21AA" unicode="&#x21aa;" horiz-adv-x="512" 
 />
    <glyph glyph-name="uni21AB" unicode="&#x21ab;" horiz-adv-x="512" 
 />
    <glyph glyph-name="uni21AC" unicode="&#x21ac;" horiz-adv-x="512" 
 />
    <glyph glyph-name="uni21AD" unicode="&#x21ad;" horiz-adv-x="512" 
 />
    <glyph glyph-name="uni21AE" unicode="&#x21ae;" horiz-adv-x="512" 
 />
    <glyph glyph-name="uni21AF" unicode="&#x21af;" horiz-adv-x="512" 
 />
    <glyph glyph-name="uni21B0" unicode="&#x21b0;" horiz-adv-x="512" 
 />
    <glyph glyph-name="uni21B1" unicode="&#x21b1;" horiz-adv-x="512" 
 />
    <glyph glyph-name="uni21B2" unicode="&#x21b2;" horiz-adv-x="512" 
 />
    <glyph glyph-name="uni21B3" unicode="&#x21b3;" horiz-adv-x="512" 
 />
    <glyph glyph-name="uni21B4" unicode="&#x21b4;" horiz-adv-x="512" 
 />
    <glyph glyph-name="carriagereturn" unicode="&#x21b5;" horiz-adv-x="512" 
 />
    <glyph glyph-name="uni21B6" unicode="&#x21b6;" horiz-adv-x="512" 
 />
    <glyph glyph-name="uni21B7" unicode="&#x21b7;" horiz-adv-x="512" 
 />
    <glyph glyph-name="uni21B8" unicode="&#x21b8;" horiz-adv-x="512" 
 />
    <glyph glyph-name="uni21B9" unicode="&#x21b9;" horiz-adv-x="512" 
 />
    <glyph glyph-name="uni21BA" unicode="&#x21ba;" horiz-adv-x="512" 
 />
    <glyph glyph-name="uni21BB" unicode="&#x21bb;" horiz-adv-x="512" 
 />
    <glyph glyph-name="uni21BC" unicode="&#x21bc;" horiz-adv-x="512" 
 />
    <glyph glyph-name="uni21BD" unicode="&#x21bd;" horiz-adv-x="512" 
 />
    <glyph glyph-name="uni21BE" unicode="&#x21be;" horiz-adv-x="512" 
 />
    <glyph glyph-name="uni21BF" unicode="&#x21bf;" horiz-adv-x="512" 
 />
    <glyph glyph-name="uni21C0" unicode="&#x21c0;" horiz-adv-x="512" 
 />
    <glyph glyph-name="uni21C1" unicode="&#x21c1;" horiz-adv-x="512" 
 />
    <glyph glyph-name="uni21C2" unicode="&#x21c2;" horiz-adv-x="512" 
 />
    <glyph glyph-name="uni21C3" unicode="&#x21c3;" horiz-adv-x="512" 
 />
    <glyph glyph-name="uni21C4" unicode="&#x21c4;" horiz-adv-x="512" 
 />
    <glyph glyph-name="uni21C5" unicode="&#x21c5;" horiz-adv-x="512" 
 />
    <glyph glyph-name="uni21C6" unicode="&#x21c6;" horiz-adv-x="512" 
 />
    <glyph glyph-name="uni21C7" unicode="&#x21c7;" horiz-adv-x="512" 
 />
    <glyph glyph-name="uni21C8" unicode="&#x21c8;" horiz-adv-x="512" 
 />
    <glyph glyph-name="uni21C9" unicode="&#x21c9;" horiz-adv-x="512" 
 />
    <glyph glyph-name="uni21CA" unicode="&#x21ca;" horiz-adv-x="512" 
 />
    <glyph glyph-name="uni21CB" unicode="&#x21cb;" horiz-adv-x="512" 
 />
    <glyph glyph-name="uni21CC" unicode="&#x21cc;" horiz-adv-x="512" 
 />
    <glyph glyph-name="uni21CD" unicode="&#x21cd;" horiz-adv-x="512" 
 />
    <glyph glyph-name="uni21CE" unicode="&#x21ce;" horiz-adv-x="512" 
 />
    <glyph glyph-name="uni21CF" unicode="&#x21cf;" horiz-adv-x="512" 
 />
    <glyph glyph-name="arrowdblleft" unicode="&#x21d0;" horiz-adv-x="512" 
 />
    <glyph glyph-name="arrowdblup" unicode="&#x21d1;" horiz-adv-x="512" 
 />
    <glyph glyph-name="arrowdblright" unicode="&#x21d2;" 
 />
    <glyph glyph-name="arrowdbldown" unicode="&#x21d3;" horiz-adv-x="512" 
 />
    <glyph glyph-name="arrowdblboth" unicode="&#x21d4;" 
 />
    <glyph glyph-name="uni21D5" unicode="&#x21d5;" horiz-adv-x="512" 
 />
    <glyph glyph-name="uni21D6" unicode="&#x21d6;" horiz-adv-x="512" 
 />
    <glyph glyph-name="uni21D7" unicode="&#x21d7;" horiz-adv-x="512" 
 />
    <glyph glyph-name="uni21D8" unicode="&#x21d8;" horiz-adv-x="512" 
 />
    <glyph glyph-name="uni21D9" unicode="&#x21d9;" horiz-adv-x="512" 
 />
    <glyph glyph-name="uni21DA" unicode="&#x21da;" horiz-adv-x="512" 
 />
    <glyph glyph-name="uni21DB" unicode="&#x21db;" horiz-adv-x="512" 
 />
    <glyph glyph-name="uni21DC" unicode="&#x21dc;" horiz-adv-x="512" 
 />
    <glyph glyph-name="uni21DD" unicode="&#x21dd;" horiz-adv-x="512" 
 />
    <glyph glyph-name="uni21DE" unicode="&#x21de;" horiz-adv-x="512" 
 />
    <glyph glyph-name="uni21DF" unicode="&#x21df;" horiz-adv-x="512" 
 />
    <glyph glyph-name="uni21E0" unicode="&#x21e0;" horiz-adv-x="512" 
 />
    <glyph glyph-name="uni21E1" unicode="&#x21e1;" horiz-adv-x="512" 
 />
    <glyph glyph-name="uni21E2" unicode="&#x21e2;" horiz-adv-x="512" 
 />
    <glyph glyph-name="uni21E3" unicode="&#x21e3;" horiz-adv-x="512" 
 />
    <glyph glyph-name="uni21E4" unicode="&#x21e4;" horiz-adv-x="512" 
 />
    <glyph glyph-name="uni21E5" unicode="&#x21e5;" horiz-adv-x="512" 
 />
    <glyph glyph-name="uni21E6" unicode="&#x21e6;" horiz-adv-x="512" 
 />
    <glyph glyph-name="uni21E7" unicode="&#x21e7;" horiz-adv-x="512" 
 />
    <glyph glyph-name="uni21E8" unicode="&#x21e8;" horiz-adv-x="512" 
 />
    <glyph glyph-name="uni21E9" unicode="&#x21e9;" horiz-adv-x="512" 
 />
    <glyph glyph-name="uni21EA" unicode="&#x21ea;" horiz-adv-x="512" 
 />
    <glyph glyph-name="universal" unicode="&#x2200;" 
 />
    <glyph glyph-name="uni2201" unicode="&#x2201;" horiz-adv-x="512" 
 />
    <glyph glyph-name="partialdiff" unicode="&#x2202;" 
 />
    <glyph glyph-name="existential" unicode="&#x2203;" 
 />
    <glyph glyph-name="uni2204" unicode="&#x2204;" horiz-adv-x="512" 
 />
    <glyph glyph-name="emptyset" unicode="&#x2205;" horiz-adv-x="512" 
 />
    <glyph glyph-name="Delta" unicode="&#x2206;" horiz-adv-x="512" 
 />
    <glyph glyph-name="gradient" unicode="&#x2207;" 
 />
    <glyph glyph-name="element" unicode="&#x2208;" 
 />
    <glyph glyph-name="notelement" unicode="&#x2209;" horiz-adv-x="512" 
 />
    <glyph glyph-name="uni220A" unicode="&#x220a;" horiz-adv-x="512" 
 />
    <glyph glyph-name="suchthat" unicode="&#x220b;" 
 />
    <glyph glyph-name="uni220C" unicode="&#x220c;" horiz-adv-x="512" 
 />
    <glyph glyph-name="uni220D" unicode="&#x220d;" horiz-adv-x="512" 
 />
    <glyph glyph-name="uni220E" unicode="&#x220e;" horiz-adv-x="512" 
 />
    <glyph glyph-name="product" unicode="&#x220f;" horiz-adv-x="512" 
 />
    <glyph glyph-name="uni2210" unicode="&#x2210;" horiz-adv-x="512" 
 />
    <glyph glyph-name="summation" unicode="&#x2211;" 
 />
    <glyph glyph-name="minus" unicode="&#x2212;" horiz-adv-x="512" 
 />
    <glyph glyph-name="uni2213" unicode="&#x2213;" horiz-adv-x="512" 
 />
    <glyph glyph-name="uni2214" unicode="&#x2214;" horiz-adv-x="512" 
 />
    <glyph glyph-name="uni2215" unicode="&#x2215;" horiz-adv-x="512" 
 />
    <glyph glyph-name="uni2216" unicode="&#x2216;" horiz-adv-x="512" 
 />
    <glyph glyph-name="asteriskmath" unicode="&#x2217;" horiz-adv-x="512" 
 />
    <glyph glyph-name="uni2218" unicode="&#x2218;" horiz-adv-x="512" 
 />
    <glyph glyph-name="uni2219" unicode="&#x2219;" horiz-adv-x="512" 
 />
    <glyph glyph-name="radical" unicode="&#x221a;" 
 />
    <glyph glyph-name="uni221B" unicode="&#x221b;" horiz-adv-x="512" 
 />
    <glyph glyph-name="uni221C" unicode="&#x221c;" horiz-adv-x="512" 
 />
    <glyph glyph-name="proportional" unicode="&#x221d;" 
 />
    <glyph glyph-name="infinity" unicode="&#x221e;" 
 />
    <glyph glyph-name="orthogonal" unicode="&#x221f;" 
 />
    <glyph glyph-name="angle" unicode="&#x2220;" 
 />
    <glyph glyph-name="uni2221" unicode="&#x2221;" horiz-adv-x="512" 
 />
    <glyph glyph-name="uni2222" unicode="&#x2222;" horiz-adv-x="512" 
 />
    <glyph glyph-name="uni2223" unicode="&#x2223;" horiz-adv-x="512" 
 />
    <glyph glyph-name="uni2224" unicode="&#x2224;" horiz-adv-x="512" 
 />
    <glyph glyph-name="uni2225" unicode="&#x2225;" 
 />
    <glyph glyph-name="uni2226" unicode="&#x2226;" horiz-adv-x="512" 
 />
    <glyph glyph-name="logicaland" unicode="&#x2227;" 
 />
    <glyph glyph-name="logicalor" unicode="&#x2228;" 
 />
    <glyph glyph-name="intersection" unicode="&#x2229;" 
 />
    <glyph glyph-name="union" unicode="&#x222a;" 
 />
    <glyph glyph-name="integral" unicode="&#x222b;" 
 />
    <glyph glyph-name="uni222C" unicode="&#x222c;" 
 />
    <glyph glyph-name="uni222D" unicode="&#x222d;" horiz-adv-x="512" 
 />
    <glyph glyph-name="uni222E" unicode="&#x222e;" 
 />
    <glyph glyph-name="uni222F" unicode="&#x222f;" horiz-adv-x="512" 
 />
    <glyph glyph-name="uni2230" unicode="&#x2230;" horiz-adv-x="512" 
 />
    <glyph glyph-name="uni2231" unicode="&#x2231;" horiz-adv-x="512" 
 />
    <glyph glyph-name="uni2232" unicode="&#x2232;" horiz-adv-x="512" 
 />
    <glyph glyph-name="uni2233" unicode="&#x2233;" horiz-adv-x="512" 
 />
    <glyph glyph-name="therefore" unicode="&#x2234;" 
 />
    <glyph glyph-name="uni2235" unicode="&#x2235;" 
 />
    <glyph glyph-name="uni2236" unicode="&#x2236;" horiz-adv-x="512" 
 />
    <glyph glyph-name="uni2237" unicode="&#x2237;" horiz-adv-x="512" 
 />
    <glyph glyph-name="uni2238" unicode="&#x2238;" horiz-adv-x="512" 
 />
    <glyph glyph-name="uni2239" unicode="&#x2239;" horiz-adv-x="512" 
 />
    <glyph glyph-name="uni223A" unicode="&#x223a;" horiz-adv-x="512" 
 />
    <glyph glyph-name="uni223B" unicode="&#x223b;" horiz-adv-x="512" 
 />
    <glyph glyph-name="similar" unicode="&#x223c;" horiz-adv-x="512" 
 />
    <glyph glyph-name="uni223D" unicode="&#x223d;" 
 />
    <glyph glyph-name="uni223E" unicode="&#x223e;" horiz-adv-x="512" 
 />
    <glyph glyph-name="uni223F" unicode="&#x223f;" horiz-adv-x="512" 
 />
    <glyph glyph-name="uni2240" unicode="&#x2240;" horiz-adv-x="512" 
 />
    <glyph glyph-name="uni2241" unicode="&#x2241;" horiz-adv-x="512" 
 />
    <glyph glyph-name="uni2242" unicode="&#x2242;" horiz-adv-x="512" 
 />
    <glyph glyph-name="uni2243" unicode="&#x2243;" horiz-adv-x="512" 
 />
    <glyph glyph-name="uni2244" unicode="&#x2244;" horiz-adv-x="512" 
 />
    <glyph glyph-name="congruent" unicode="&#x2245;" horiz-adv-x="512" 
 />
    <glyph glyph-name="uni2246" unicode="&#x2246;" horiz-adv-x="512" 
 />
    <glyph glyph-name="uni2247" unicode="&#x2247;" horiz-adv-x="512" 
 />
    <glyph glyph-name="approxequal" unicode="&#x2248;" horiz-adv-x="512" 
 />
    <glyph glyph-name="uni2249" unicode="&#x2249;" horiz-adv-x="512" 
 />
    <glyph glyph-name="uni224A" unicode="&#x224a;" horiz-adv-x="512" 
 />
    <glyph glyph-name="uni224B" unicode="&#x224b;" horiz-adv-x="512" 
 />
    <glyph glyph-name="uni224C" unicode="&#x224c;" horiz-adv-x="512" 
 />
    <glyph glyph-name="uni224D" unicode="&#x224d;" horiz-adv-x="512" 
 />
    <glyph glyph-name="uni224E" unicode="&#x224e;" horiz-adv-x="512" 
 />
    <glyph glyph-name="uni224F" unicode="&#x224f;" horiz-adv-x="512" 
 />
    <glyph glyph-name="uni2250" unicode="&#x2250;" horiz-adv-x="512" 
 />
    <glyph glyph-name="uni2251" unicode="&#x2251;" horiz-adv-x="512" 
 />
    <glyph glyph-name="uni2252" unicode="&#x2252;" 
 />
    <glyph glyph-name="uni2253" unicode="&#x2253;" horiz-adv-x="512" 
 />
    <glyph glyph-name="uni2254" unicode="&#x2254;" horiz-adv-x="512" 
 />
    <glyph glyph-name="uni2255" unicode="&#x2255;" horiz-adv-x="512" 
 />
    <glyph glyph-name="uni2256" unicode="&#x2256;" horiz-adv-x="512" 
 />
    <glyph glyph-name="uni2257" unicode="&#x2257;" horiz-adv-x="512" 
 />
    <glyph glyph-name="uni2258" unicode="&#x2258;" horiz-adv-x="512" 
 />
    <glyph glyph-name="uni2259" unicode="&#x2259;" horiz-adv-x="512" 
 />
    <glyph glyph-name="uni225A" unicode="&#x225a;" horiz-adv-x="512" 
 />
    <glyph glyph-name="uni225B" unicode="&#x225b;" horiz-adv-x="512" 
 />
    <glyph glyph-name="uni225C" unicode="&#x225c;" horiz-adv-x="512" 
 />
    <glyph glyph-name="uni225D" unicode="&#x225d;" horiz-adv-x="512" 
 />
    <glyph glyph-name="uni225E" unicode="&#x225e;" horiz-adv-x="512" 
 />
    <glyph glyph-name="uni225F" unicode="&#x225f;" horiz-adv-x="512" 
 />
    <glyph glyph-name="notequal" unicode="&#x2260;" 
 />
    <glyph glyph-name="equivalence" unicode="&#x2261;" 
 />
    <glyph glyph-name="uni2262" unicode="&#x2262;" horiz-adv-x="512" 
 />
    <glyph glyph-name="uni2263" unicode="&#x2263;" horiz-adv-x="512" 
 />
    <glyph glyph-name="lessequal" unicode="&#x2264;" horiz-adv-x="512" 
 />
    <glyph glyph-name="greaterequal" unicode="&#x2265;" horiz-adv-x="512" 
 />
    <glyph glyph-name="uni2266" unicode="&#x2266;" 
 />
    <glyph glyph-name="uni2267" unicode="&#x2267;" 
 />
    <glyph glyph-name="uni2268" unicode="&#x2268;" horiz-adv-x="512" 
 />
    <glyph glyph-name="uni2269" unicode="&#x2269;" horiz-adv-x="512" 
 />
    <glyph glyph-name="uni226A" unicode="&#x226a;" 
 />
    <glyph glyph-name="uni226B" unicode="&#x226b;" 
 />
    <glyph glyph-name="uni226C" unicode="&#x226c;" horiz-adv-x="512" 
 />
    <glyph glyph-name="uni226D" unicode="&#x226d;" horiz-adv-x="512" 
 />
    <glyph glyph-name="uni226E" unicode="&#x226e;" horiz-adv-x="512" 
 />
    <glyph glyph-name="uni226F" unicode="&#x226f;" horiz-adv-x="512" 
 />
    <glyph glyph-name="uni2270" unicode="&#x2270;" horiz-adv-x="512" 
 />
    <glyph glyph-name="uni2271" unicode="&#x2271;" horiz-adv-x="512" 
 />
    <glyph glyph-name="uni2272" unicode="&#x2272;" horiz-adv-x="512" 
 />
    <glyph glyph-name="uni2273" unicode="&#x2273;" horiz-adv-x="512" 
 />
    <glyph glyph-name="uni2274" unicode="&#x2274;" horiz-adv-x="512" 
 />
    <glyph glyph-name="uni2275" unicode="&#x2275;" horiz-adv-x="512" 
 />
    <glyph glyph-name="uni2276" unicode="&#x2276;" horiz-adv-x="512" 
 />
    <glyph glyph-name="uni2277" unicode="&#x2277;" horiz-adv-x="512" 
 />
    <glyph glyph-name="uni2278" unicode="&#x2278;" horiz-adv-x="512" 
 />
    <glyph glyph-name="uni2279" unicode="&#x2279;" horiz-adv-x="512" 
 />
    <glyph glyph-name="uni227A" unicode="&#x227a;" horiz-adv-x="512" 
 />
    <glyph glyph-name="uni227B" unicode="&#x227b;" horiz-adv-x="512" 
 />
    <glyph glyph-name="uni227C" unicode="&#x227c;" horiz-adv-x="512" 
 />
    <glyph glyph-name="uni227D" unicode="&#x227d;" horiz-adv-x="512" 
 />
    <glyph glyph-name="uni227E" unicode="&#x227e;" horiz-adv-x="512" 
 />
    <glyph glyph-name="uni227F" unicode="&#x227f;" horiz-adv-x="512" 
 />
    <glyph glyph-name="uni2280" unicode="&#x2280;" horiz-adv-x="512" 
 />
    <glyph glyph-name="uni2281" unicode="&#x2281;" horiz-adv-x="512" 
 />
    <glyph glyph-name="propersubset" unicode="&#x2282;" 
 />
    <glyph glyph-name="propersuperset" unicode="&#x2283;" 
 />
    <glyph glyph-name="notsubset" unicode="&#x2284;" horiz-adv-x="512" 
 />
    <glyph glyph-name="uni2285" unicode="&#x2285;" horiz-adv-x="512" 
 />
    <glyph glyph-name="reflexsubset" unicode="&#x2286;" 
 />
    <glyph glyph-name="reflexsuperset" unicode="&#x2287;" 
 />
    <glyph glyph-name="uni2288" unicode="&#x2288;" horiz-adv-x="512" 
 />
    <glyph glyph-name="uni2289" unicode="&#x2289;" horiz-adv-x="512" 
 />
    <glyph glyph-name="uni228A" unicode="&#x228a;" horiz-adv-x="512" 
 />
    <glyph glyph-name="uni228B" unicode="&#x228b;" horiz-adv-x="512" 
 />
    <glyph glyph-name="uni228C" unicode="&#x228c;" horiz-adv-x="512" 
 />
    <glyph glyph-name="uni228D" unicode="&#x228d;" horiz-adv-x="512" 
 />
    <glyph glyph-name="uni228E" unicode="&#x228e;" horiz-adv-x="512" 
 />
    <glyph glyph-name="uni228F" unicode="&#x228f;" horiz-adv-x="512" 
 />
    <glyph glyph-name="uni2290" unicode="&#x2290;" horiz-adv-x="512" 
 />
    <glyph glyph-name="uni2291" unicode="&#x2291;" horiz-adv-x="512" 
 />
    <glyph glyph-name="uni2292" unicode="&#x2292;" horiz-adv-x="512" 
 />
    <glyph glyph-name="uni2293" unicode="&#x2293;" horiz-adv-x="512" 
 />
    <glyph glyph-name="uni2294" unicode="&#x2294;" horiz-adv-x="512" 
 />
    <glyph glyph-name="circleplus" unicode="&#x2295;" horiz-adv-x="512" 
 />
    <glyph glyph-name="uni2296" unicode="&#x2296;" horiz-adv-x="512" 
 />
    <glyph glyph-name="circlemultiply" unicode="&#x2297;" horiz-adv-x="512" 
 />
    <glyph glyph-name="uni2298" unicode="&#x2298;" horiz-adv-x="512" 
 />
    <glyph glyph-name="uni2299" unicode="&#x2299;" horiz-adv-x="512" 
 />
    <glyph glyph-name="uni229A" unicode="&#x229a;" horiz-adv-x="512" 
 />
    <glyph glyph-name="uni229B" unicode="&#x229b;" horiz-adv-x="512" 
 />
    <glyph glyph-name="uni229C" unicode="&#x229c;" horiz-adv-x="512" 
 />
    <glyph glyph-name="uni229D" unicode="&#x229d;" horiz-adv-x="512" 
 />
    <glyph glyph-name="uni229E" unicode="&#x229e;" horiz-adv-x="512" 
 />
    <glyph glyph-name="uni229F" unicode="&#x229f;" horiz-adv-x="512" 
 />
    <glyph glyph-name="uni22A0" unicode="&#x22a0;" horiz-adv-x="512" 
 />
    <glyph glyph-name="uni22A1" unicode="&#x22a1;" horiz-adv-x="512" 
 />
    <glyph glyph-name="uni22A2" unicode="&#x22a2;" horiz-adv-x="512" 
 />
    <glyph glyph-name="uni22A3" unicode="&#x22a3;" horiz-adv-x="512" 
 />
    <glyph glyph-name="uni22A4" unicode="&#x22a4;" horiz-adv-x="512" 
 />
    <glyph glyph-name="perpendicular" unicode="&#x22a5;" 
 />
    <glyph glyph-name="uni22A6" unicode="&#x22a6;" horiz-adv-x="512" 
 />
    <glyph glyph-name="uni22A7" unicode="&#x22a7;" horiz-adv-x="512" 
 />
    <glyph glyph-name="uni22A8" unicode="&#x22a8;" horiz-adv-x="512" 
 />
    <glyph glyph-name="uni22A9" unicode="&#x22a9;" horiz-adv-x="512" 
 />
    <glyph glyph-name="uni22AA" unicode="&#x22aa;" horiz-adv-x="512" 
 />
    <glyph glyph-name="uni22AB" unicode="&#x22ab;" horiz-adv-x="512" 
 />
    <glyph glyph-name="uni22AC" unicode="&#x22ac;" horiz-adv-x="512" 
 />
    <glyph glyph-name="uni22AD" unicode="&#x22ad;" horiz-adv-x="512" 
 />
    <glyph glyph-name="uni22AE" unicode="&#x22ae;" horiz-adv-x="512" 
 />
    <glyph glyph-name="uni22AF" unicode="&#x22af;" horiz-adv-x="512" 
 />
    <glyph glyph-name="uni22B0" unicode="&#x22b0;" horiz-adv-x="512" 
 />
    <glyph glyph-name="uni22B1" unicode="&#x22b1;" horiz-adv-x="512" 
 />
    <glyph glyph-name="uni22B2" unicode="&#x22b2;" horiz-adv-x="512" 
 />
    <glyph glyph-name="uni22B3" unicode="&#x22b3;" horiz-adv-x="512" 
 />
    <glyph glyph-name="uni22B4" unicode="&#x22b4;" horiz-adv-x="512" 
 />
    <glyph glyph-name="uni22B5" unicode="&#x22b5;" horiz-adv-x="512" 
 />
    <glyph glyph-name="uni22B6" unicode="&#x22b6;" horiz-adv-x="512" 
 />
    <glyph glyph-name="uni22B7" unicode="&#x22b7;" horiz-adv-x="512" 
 />
    <glyph glyph-name="uni22B8" unicode="&#x22b8;" horiz-adv-x="512" 
 />
    <glyph glyph-name="uni22B9" unicode="&#x22b9;" horiz-adv-x="512" 
 />
    <glyph glyph-name="uni22BA" unicode="&#x22ba;" horiz-adv-x="512" 
 />
    <glyph glyph-name="uni22BB" unicode="&#x22bb;" horiz-adv-x="512" 
 />
    <glyph glyph-name="uni22BC" unicode="&#x22bc;" horiz-adv-x="512" 
 />
    <glyph glyph-name="uni22BD" unicode="&#x22bd;" horiz-adv-x="512" 
 />
    <glyph glyph-name="uni22BE" unicode="&#x22be;" horiz-adv-x="512" 
 />
    <glyph glyph-name="uni22BF" unicode="&#x22bf;" 
 />
    <glyph glyph-name="uni22C0" unicode="&#x22c0;" horiz-adv-x="512" 
 />
    <glyph glyph-name="uni22C1" unicode="&#x22c1;" horiz-adv-x="512" 
 />
    <glyph glyph-name="uni22C2" unicode="&#x22c2;" horiz-adv-x="512" 
 />
    <glyph glyph-name="uni22C3" unicode="&#x22c3;" horiz-adv-x="512" 
 />
    <glyph glyph-name="uni22C4" unicode="&#x22c4;" horiz-adv-x="512" 
 />
    <glyph glyph-name="dotmath" unicode="&#x22c5;" horiz-adv-x="512" 
 />
    <glyph glyph-name="uni22C6" unicode="&#x22c6;" horiz-adv-x="512" 
 />
    <glyph glyph-name="uni22C7" unicode="&#x22c7;" horiz-adv-x="512" 
 />
    <glyph glyph-name="uni22C8" unicode="&#x22c8;" horiz-adv-x="512" 
 />
    <glyph glyph-name="uni22C9" unicode="&#x22c9;" horiz-adv-x="512" 
 />
    <glyph glyph-name="uni22CA" unicode="&#x22ca;" horiz-adv-x="512" 
 />
    <glyph glyph-name="uni22CB" unicode="&#x22cb;" horiz-adv-x="512" 
 />
    <glyph glyph-name="uni22CC" unicode="&#x22cc;" horiz-adv-x="512" 
 />
    <glyph glyph-name="uni22CD" unicode="&#x22cd;" horiz-adv-x="512" 
 />
    <glyph glyph-name="uni22CE" unicode="&#x22ce;" horiz-adv-x="512" 
 />
    <glyph glyph-name="uni22CF" unicode="&#x22cf;" horiz-adv-x="512" 
 />
    <glyph glyph-name="uni22D0" unicode="&#x22d0;" horiz-adv-x="512" 
 />
    <glyph glyph-name="uni22D1" unicode="&#x22d1;" horiz-adv-x="512" 
 />
    <glyph glyph-name="uni22D2" unicode="&#x22d2;" horiz-adv-x="512" 
 />
    <glyph glyph-name="uni22D3" unicode="&#x22d3;" horiz-adv-x="512" 
 />
    <glyph glyph-name="uni22D4" unicode="&#x22d4;" horiz-adv-x="512" 
 />
    <glyph glyph-name="uni22D5" unicode="&#x22d5;" horiz-adv-x="512" 
 />
    <glyph glyph-name="uni22D6" unicode="&#x22d6;" horiz-adv-x="512" 
 />
    <glyph glyph-name="uni22D7" unicode="&#x22d7;" horiz-adv-x="512" 
 />
    <glyph glyph-name="uni22D8" unicode="&#x22d8;" horiz-adv-x="512" 
 />
    <glyph glyph-name="uni22D9" unicode="&#x22d9;" horiz-adv-x="512" 
 />
    <glyph glyph-name="uni22DA" unicode="&#x22da;" horiz-adv-x="512" 
 />
    <glyph glyph-name="uni22DB" unicode="&#x22db;" horiz-adv-x="512" 
 />
    <glyph glyph-name="uni22DC" unicode="&#x22dc;" horiz-adv-x="512" 
 />
    <glyph glyph-name="uni22DD" unicode="&#x22dd;" horiz-adv-x="512" 
 />
    <glyph glyph-name="uni22DE" unicode="&#x22de;" horiz-adv-x="512" 
 />
    <glyph glyph-name="uni22DF" unicode="&#x22df;" horiz-adv-x="512" 
 />
    <glyph glyph-name="uni22E0" unicode="&#x22e0;" horiz-adv-x="512" 
 />
    <glyph glyph-name="uni22E1" unicode="&#x22e1;" horiz-adv-x="512" 
 />
    <glyph glyph-name="uni22E2" unicode="&#x22e2;" horiz-adv-x="512" 
 />
    <glyph glyph-name="uni22E3" unicode="&#x22e3;" horiz-adv-x="512" 
 />
    <glyph glyph-name="uni22E4" unicode="&#x22e4;" horiz-adv-x="512" 
 />
    <glyph glyph-name="uni22E5" unicode="&#x22e5;" horiz-adv-x="512" 
 />
    <glyph glyph-name="uni22E6" unicode="&#x22e6;" horiz-adv-x="512" 
 />
    <glyph glyph-name="uni22E7" unicode="&#x22e7;" horiz-adv-x="512" 
 />
    <glyph glyph-name="uni22E8" unicode="&#x22e8;" horiz-adv-x="512" 
 />
    <glyph glyph-name="uni22E9" unicode="&#x22e9;" horiz-adv-x="512" 
 />
    <glyph glyph-name="uni22EA" unicode="&#x22ea;" horiz-adv-x="512" 
 />
    <glyph glyph-name="uni22EB" unicode="&#x22eb;" horiz-adv-x="512" 
 />
    <glyph glyph-name="uni22EC" unicode="&#x22ec;" horiz-adv-x="512" 
 />
    <glyph glyph-name="uni22ED" unicode="&#x22ed;" horiz-adv-x="512" 
 />
    <glyph glyph-name="uni22EE" unicode="&#x22ee;" horiz-adv-x="512" 
 />
    <glyph glyph-name="uni22EF" unicode="&#x22ef;" horiz-adv-x="512" 
 />
    <glyph glyph-name="uni22F0" unicode="&#x22f0;" horiz-adv-x="512" 
 />
    <glyph glyph-name="uni22F1" unicode="&#x22f1;" horiz-adv-x="512" 
 />
    <glyph glyph-name="house" unicode="&#x2302;" horiz-adv-x="512" 
 />
    <glyph glyph-name="revlogicalnot" unicode="&#x2310;" horiz-adv-x="512" 
 />
    <glyph glyph-name="uni2312" unicode="&#x2312;" 
 />
    <glyph glyph-name="integraltp" unicode="&#x2320;" horiz-adv-x="512" 
 />
    <glyph glyph-name="integralbt" unicode="&#x2321;" horiz-adv-x="512" 
 />
    <glyph glyph-name="uni2460" unicode="&#x2460;" 
 />
    <glyph glyph-name="uni2461" unicode="&#x2461;" 
 />
    <glyph glyph-name="uni2462" unicode="&#x2462;" 
 />
    <glyph glyph-name="uni2463" unicode="&#x2463;" 
 />
    <glyph glyph-name="uni2464" unicode="&#x2464;" 
 />
    <glyph glyph-name="uni2465" unicode="&#x2465;" 
 />
    <glyph glyph-name="uni2466" unicode="&#x2466;" 
 />
    <glyph glyph-name="uni2467" unicode="&#x2467;" 
 />
    <glyph glyph-name="uni2468" unicode="&#x2468;" 
 />
    <glyph glyph-name="uni2469" unicode="&#x2469;" 
 />
    <glyph glyph-name="uni246A" unicode="&#x246a;" 
 />
    <glyph glyph-name="uni246B" unicode="&#x246b;" 
 />
    <glyph glyph-name="uni246C" unicode="&#x246c;" 
 />
    <glyph glyph-name="uni246D" unicode="&#x246d;" 
 />
    <glyph glyph-name="uni246E" unicode="&#x246e;" 
 />
    <glyph glyph-name="uni246F" unicode="&#x246f;" 
 />
    <glyph glyph-name="uni2470" unicode="&#x2470;" 
 />
    <glyph glyph-name="uni2471" unicode="&#x2471;" 
 />
    <glyph glyph-name="uni2472" unicode="&#x2472;" 
 />
    <glyph glyph-name="uni2473" unicode="&#x2473;" 
 />
    <glyph glyph-name="uni2474" unicode="&#x2474;" 
 />
    <glyph glyph-name="uni2475" unicode="&#x2475;" 
 />
    <glyph glyph-name="uni2476" unicode="&#x2476;" 
 />
    <glyph glyph-name="uni2477" unicode="&#x2477;" 
 />
    <glyph glyph-name="uni2478" unicode="&#x2478;" 
 />
    <glyph glyph-name="uni2479" unicode="&#x2479;" 
 />
    <glyph glyph-name="uni247A" unicode="&#x247a;" 
 />
    <glyph glyph-name="uni247B" unicode="&#x247b;" 
 />
    <glyph glyph-name="uni247C" unicode="&#x247c;" 
 />
    <glyph glyph-name="uni247D" unicode="&#x247d;" 
 />
    <glyph glyph-name="uni247E" unicode="&#x247e;" 
 />
    <glyph glyph-name="uni247F" unicode="&#x247f;" 
 />
    <glyph glyph-name="uni2480" unicode="&#x2480;" 
 />
    <glyph glyph-name="uni2481" unicode="&#x2481;" 
 />
    <glyph glyph-name="uni2482" unicode="&#x2482;" 
 />
    <glyph glyph-name="uni2483" unicode="&#x2483;" 
 />
    <glyph glyph-name="uni2484" unicode="&#x2484;" 
 />
    <glyph glyph-name="uni2485" unicode="&#x2485;" 
 />
    <glyph glyph-name="uni2486" unicode="&#x2486;" 
 />
    <glyph glyph-name="uni2487" unicode="&#x2487;" 
 />
    <glyph glyph-name="uni2488" unicode="&#x2488;" 
 />
    <glyph glyph-name="uni2489" unicode="&#x2489;" 
 />
    <glyph glyph-name="uni248A" unicode="&#x248a;" 
 />
    <glyph glyph-name="uni248B" unicode="&#x248b;" 
 />
    <glyph glyph-name="uni248C" unicode="&#x248c;" 
 />
    <glyph glyph-name="uni248D" unicode="&#x248d;" 
 />
    <glyph glyph-name="uni248E" unicode="&#x248e;" 
 />
    <glyph glyph-name="uni248F" unicode="&#x248f;" 
 />
    <glyph glyph-name="uni2490" unicode="&#x2490;" 
 />
    <glyph glyph-name="uni2491" unicode="&#x2491;" 
 />
    <glyph glyph-name="uni2492" unicode="&#x2492;" 
 />
    <glyph glyph-name="uni2493" unicode="&#x2493;" 
 />
    <glyph glyph-name="uni2494" unicode="&#x2494;" 
 />
    <glyph glyph-name="uni2495" unicode="&#x2495;" 
 />
    <glyph glyph-name="uni2496" unicode="&#x2496;" 
 />
    <glyph glyph-name="uni2497" unicode="&#x2497;" 
 />
    <glyph glyph-name="uni2498" unicode="&#x2498;" 
 />
    <glyph glyph-name="uni2499" unicode="&#x2499;" 
 />
    <glyph glyph-name="uni249A" unicode="&#x249a;" 
 />
    <glyph glyph-name="uni249B" unicode="&#x249b;" 
 />
    <glyph glyph-name="uni249C" unicode="&#x249c;" 
 />
    <glyph glyph-name="uni249D" unicode="&#x249d;" 
 />
    <glyph glyph-name="uni249E" unicode="&#x249e;" 
 />
    <glyph glyph-name="uni249F" unicode="&#x249f;" 
 />
    <glyph glyph-name="uni24A0" unicode="&#x24a0;" 
 />
    <glyph glyph-name="uni24A1" unicode="&#x24a1;" 
 />
    <glyph glyph-name="uni24A2" unicode="&#x24a2;" 
 />
    <glyph glyph-name="uni24A3" unicode="&#x24a3;" 
 />
    <glyph glyph-name="uni24A4" unicode="&#x24a4;" 
 />
    <glyph glyph-name="uni24A5" unicode="&#x24a5;" 
 />
    <glyph glyph-name="uni24A6" unicode="&#x24a6;" 
 />
    <glyph glyph-name="uni24A7" unicode="&#x24a7;" 
 />
    <glyph glyph-name="uni24A8" unicode="&#x24a8;" 
 />
    <glyph glyph-name="uni24A9" unicode="&#x24a9;" 
 />
    <glyph glyph-name="uni24AA" unicode="&#x24aa;" 
 />
    <glyph glyph-name="uni24AB" unicode="&#x24ab;" 
 />
    <glyph glyph-name="uni24AC" unicode="&#x24ac;" 
 />
    <glyph glyph-name="uni24AD" unicode="&#x24ad;" 
 />
    <glyph glyph-name="uni24AE" unicode="&#x24ae;" 
 />
    <glyph glyph-name="uni24AF" unicode="&#x24af;" 
 />
    <glyph glyph-name="uni24B0" unicode="&#x24b0;" 
 />
    <glyph glyph-name="uni24B1" unicode="&#x24b1;" 
 />
    <glyph glyph-name="uni24B2" unicode="&#x24b2;" 
 />
    <glyph glyph-name="uni24B3" unicode="&#x24b3;" 
 />
    <glyph glyph-name="uni24B4" unicode="&#x24b4;" 
 />
    <glyph glyph-name="uni24B5" unicode="&#x24b5;" 
 />
    <glyph glyph-name="uni24B6" unicode="&#x24b6;" 
 />
    <glyph glyph-name="uni24B7" unicode="&#x24b7;" 
 />
    <glyph glyph-name="uni24B8" unicode="&#x24b8;" 
 />
    <glyph glyph-name="uni24B9" unicode="&#x24b9;" 
 />
    <glyph glyph-name="uni24BA" unicode="&#x24ba;" 
 />
    <glyph glyph-name="uni24BB" unicode="&#x24bb;" 
 />
    <glyph glyph-name="uni24BC" unicode="&#x24bc;" 
 />
    <glyph glyph-name="uni24BD" unicode="&#x24bd;" 
 />
    <glyph glyph-name="uni24BE" unicode="&#x24be;" 
 />
    <glyph glyph-name="uni24BF" unicode="&#x24bf;" 
 />
    <glyph glyph-name="uni24C0" unicode="&#x24c0;" 
 />
    <glyph glyph-name="uni24C1" unicode="&#x24c1;" 
 />
    <glyph glyph-name="uni24C2" unicode="&#x24c2;" 
 />
    <glyph glyph-name="uni24C3" unicode="&#x24c3;" 
 />
    <glyph glyph-name="uni24C4" unicode="&#x24c4;" 
 />
    <glyph glyph-name="uni24C5" unicode="&#x24c5;" 
 />
    <glyph glyph-name="uni24C6" unicode="&#x24c6;" 
 />
    <glyph glyph-name="uni24C7" unicode="&#x24c7;" 
 />
    <glyph glyph-name="uni24C8" unicode="&#x24c8;" 
 />
    <glyph glyph-name="uni24C9" unicode="&#x24c9;" 
 />
    <glyph glyph-name="uni24CA" unicode="&#x24ca;" 
 />
    <glyph glyph-name="uni24CB" unicode="&#x24cb;" 
 />
    <glyph glyph-name="uni24CC" unicode="&#x24cc;" 
 />
    <glyph glyph-name="uni24CD" unicode="&#x24cd;" 
 />
    <glyph glyph-name="uni24CE" unicode="&#x24ce;" 
 />
    <glyph glyph-name="uni24CF" unicode="&#x24cf;" 
 />
    <glyph glyph-name="uni24D0" unicode="&#x24d0;" 
 />
    <glyph glyph-name="uni24D1" unicode="&#x24d1;" 
 />
    <glyph glyph-name="uni24D2" unicode="&#x24d2;" 
 />
    <glyph glyph-name="uni24D3" unicode="&#x24d3;" 
 />
    <glyph glyph-name="uni24D4" unicode="&#x24d4;" 
 />
    <glyph glyph-name="uni24D5" unicode="&#x24d5;" 
 />
    <glyph glyph-name="uni24D6" unicode="&#x24d6;" 
 />
    <glyph glyph-name="uni24D7" unicode="&#x24d7;" 
 />
    <glyph glyph-name="uni24D8" unicode="&#x24d8;" 
 />
    <glyph glyph-name="uni24D9" unicode="&#x24d9;" 
 />
    <glyph glyph-name="uni24DA" unicode="&#x24da;" 
 />
    <glyph glyph-name="uni24DB" unicode="&#x24db;" 
 />
    <glyph glyph-name="uni24DC" unicode="&#x24dc;" 
 />
    <glyph glyph-name="uni24DD" unicode="&#x24dd;" 
 />
    <glyph glyph-name="uni24DE" unicode="&#x24de;" 
 />
    <glyph glyph-name="uni24DF" unicode="&#x24df;" 
 />
    <glyph glyph-name="uni24E0" unicode="&#x24e0;" 
 />
    <glyph glyph-name="uni24E1" unicode="&#x24e1;" 
 />
    <glyph glyph-name="uni24E2" unicode="&#x24e2;" 
 />
    <glyph glyph-name="uni24E3" unicode="&#x24e3;" 
 />
    <glyph glyph-name="uni24E4" unicode="&#x24e4;" 
 />
    <glyph glyph-name="uni24E5" unicode="&#x24e5;" 
 />
    <glyph glyph-name="uni24E6" unicode="&#x24e6;" 
 />
    <glyph glyph-name="uni24E7" unicode="&#x24e7;" 
 />
    <glyph glyph-name="uni24E8" unicode="&#x24e8;" 
 />
    <glyph glyph-name="uni24E9" unicode="&#x24e9;" 
 />
    <glyph glyph-name="uni24EA" unicode="&#x24ea;" 
 />
    <glyph glyph-name="SF100000" unicode="&#x2500;" 
 />
    <glyph glyph-name="uni2501" unicode="&#x2501;" 
 />
    <glyph glyph-name="SF110000" unicode="&#x2502;" 
 />
    <glyph glyph-name="uni2503" unicode="&#x2503;" 
 />
    <glyph glyph-name="uni2504" unicode="&#x2504;" horiz-adv-x="512" 
 />
    <glyph glyph-name="uni2505" unicode="&#x2505;" horiz-adv-x="512" 
 />
    <glyph glyph-name="uni2506" unicode="&#x2506;" horiz-adv-x="512" 
 />
    <glyph glyph-name="uni2507" unicode="&#x2507;" horiz-adv-x="512" 
 />
    <glyph glyph-name="uni2508" unicode="&#x2508;" horiz-adv-x="512" 
 />
    <glyph glyph-name="uni2509" unicode="&#x2509;" horiz-adv-x="512" 
 />
    <glyph glyph-name="uni250A" unicode="&#x250a;" horiz-adv-x="512" 
 />
    <glyph glyph-name="uni250B" unicode="&#x250b;" horiz-adv-x="512" 
 />
    <glyph glyph-name="SF010000" unicode="&#x250c;" 
 />
    <glyph glyph-name="uni250D" unicode="&#x250d;" horiz-adv-x="512" 
 />
    <glyph glyph-name="uni250E" unicode="&#x250e;" horiz-adv-x="512" 
 />
    <glyph glyph-name="uni250F" unicode="&#x250f;" 
 />
    <glyph glyph-name="SF030000" unicode="&#x2510;" 
 />
    <glyph glyph-name="uni2511" unicode="&#x2511;" horiz-adv-x="512" 
 />
    <glyph glyph-name="uni2512" unicode="&#x2512;" horiz-adv-x="512" 
 />
    <glyph glyph-name="uni2513" unicode="&#x2513;" 
 />
    <glyph glyph-name="SF020000" unicode="&#x2514;" 
 />
    <glyph glyph-name="uni2515" unicode="&#x2515;" horiz-adv-x="512" 
 />
    <glyph glyph-name="uni2516" unicode="&#x2516;" horiz-adv-x="512" 
 />
    <glyph glyph-name="uni2517" unicode="&#x2517;" 
 />
    <glyph glyph-name="SF040000" unicode="&#x2518;" 
 />
    <glyph glyph-name="uni2519" unicode="&#x2519;" horiz-adv-x="512" 
 />
    <glyph glyph-name="uni251A" unicode="&#x251a;" horiz-adv-x="512" 
 />
    <glyph glyph-name="uni251B" unicode="&#x251b;" 
 />
    <glyph glyph-name="SF080000" unicode="&#x251c;" 
 />
    <glyph glyph-name="uni251D" unicode="&#x251d;" 
 />
    <glyph glyph-name="uni251E" unicode="&#x251e;" horiz-adv-x="512" 
 />
    <glyph glyph-name="uni251F" unicode="&#x251f;" horiz-adv-x="512" 
 />
    <glyph glyph-name="uni2520" unicode="&#x2520;" 
 />
    <glyph glyph-name="uni2521" unicode="&#x2521;" horiz-adv-x="512" 
 />
    <glyph glyph-name="uni2522" unicode="&#x2522;" horiz-adv-x="512" 
 />
    <glyph glyph-name="uni2523" unicode="&#x2523;" 
 />
    <glyph glyph-name="SF090000" unicode="&#x2524;" 
 />
    <glyph glyph-name="uni2525" unicode="&#x2525;" 
 />
    <glyph glyph-name="uni2526" unicode="&#x2526;" horiz-adv-x="512" 
 />
    <glyph glyph-name="uni2527" unicode="&#x2527;" horiz-adv-x="512" 
 />
    <glyph glyph-name="uni2528" unicode="&#x2528;" 
 />
    <glyph glyph-name="uni2529" unicode="&#x2529;" horiz-adv-x="512" 
 />
    <glyph glyph-name="uni252A" unicode="&#x252a;" horiz-adv-x="512" 
 />
    <glyph glyph-name="uni252B" unicode="&#x252b;" 
 />
    <glyph glyph-name="SF060000" unicode="&#x252c;" 
 />
    <glyph glyph-name="uni252D" unicode="&#x252d;" horiz-adv-x="512" 
 />
    <glyph glyph-name="uni252E" unicode="&#x252e;" horiz-adv-x="512" 
 />
    <glyph glyph-name="uni252F" unicode="&#x252f;" 
 />
    <glyph glyph-name="uni2530" unicode="&#x2530;" 
 />
    <glyph glyph-name="uni2531" unicode="&#x2531;" horiz-adv-x="512" 
 />
    <glyph glyph-name="uni2532" unicode="&#x2532;" horiz-adv-x="512" 
 />
    <glyph glyph-name="uni2533" unicode="&#x2533;" 
 />
    <glyph glyph-name="SF070000" unicode="&#x2534;" 
 />
    <glyph glyph-name="uni2535" unicode="&#x2535;" horiz-adv-x="512" 
 />
    <glyph glyph-name="uni2536" unicode="&#x2536;" horiz-adv-x="512" 
 />
    <glyph glyph-name="uni2537" unicode="&#x2537;" 
 />
    <glyph glyph-name="uni2538" unicode="&#x2538;" 
 />
    <glyph glyph-name="uni2539" unicode="&#x2539;" horiz-adv-x="512" 
 />
    <glyph glyph-name="uni253A" unicode="&#x253a;" horiz-adv-x="512" 
 />
    <glyph glyph-name="uni253B" unicode="&#x253b;" 
 />
    <glyph glyph-name="SF050000" unicode="&#x253c;" 
 />
    <glyph glyph-name="uni253D" unicode="&#x253d;" horiz-adv-x="512" 
 />
    <glyph glyph-name="uni253E" unicode="&#x253e;" horiz-adv-x="512" 
 />
    <glyph glyph-name="uni253F" unicode="&#x253f;" 
 />
    <glyph glyph-name="uni2540" unicode="&#x2540;" horiz-adv-x="512" 
 />
    <glyph glyph-name="uni2541" unicode="&#x2541;" horiz-adv-x="512" 
 />
    <glyph glyph-name="uni2542" unicode="&#x2542;" 
 />
    <glyph glyph-name="uni2543" unicode="&#x2543;" horiz-adv-x="512" 
 />
    <glyph glyph-name="uni2544" unicode="&#x2544;" horiz-adv-x="512" 
 />
    <glyph glyph-name="uni2545" unicode="&#x2545;" horiz-adv-x="512" 
 />
    <glyph glyph-name="uni2546" unicode="&#x2546;" horiz-adv-x="512" 
 />
    <glyph glyph-name="uni2547" unicode="&#x2547;" horiz-adv-x="512" 
 />
    <glyph glyph-name="uni2548" unicode="&#x2548;" horiz-adv-x="512" 
 />
    <glyph glyph-name="uni2549" unicode="&#x2549;" horiz-adv-x="512" 
 />
    <glyph glyph-name="uni254A" unicode="&#x254a;" horiz-adv-x="512" 
 />
    <glyph glyph-name="uni254B" unicode="&#x254b;" 
 />
    <glyph glyph-name="uni254C" unicode="&#x254c;" horiz-adv-x="512" 
 />
    <glyph glyph-name="uni254D" unicode="&#x254d;" horiz-adv-x="512" 
 />
    <glyph glyph-name="uni254E" unicode="&#x254e;" horiz-adv-x="512" 
 />
    <glyph glyph-name="uni254F" unicode="&#x254f;" horiz-adv-x="512" 
 />
    <glyph glyph-name="SF430000" unicode="&#x2550;" horiz-adv-x="512" 
 />
    <glyph glyph-name="SF240000" unicode="&#x2551;" horiz-adv-x="512" 
 />
    <glyph glyph-name="SF510000" unicode="&#x2552;" horiz-adv-x="512" 
 />
    <glyph glyph-name="SF520000" unicode="&#x2553;" horiz-adv-x="512" 
 />
    <glyph glyph-name="SF390000" unicode="&#x2554;" horiz-adv-x="512" 
 />
    <glyph glyph-name="SF220000" unicode="&#x2555;" horiz-adv-x="512" 
 />
    <glyph glyph-name="SF210000" unicode="&#x2556;" horiz-adv-x="512" 
 />
    <glyph glyph-name="SF250000" unicode="&#x2557;" horiz-adv-x="512" 
 />
    <glyph glyph-name="SF500000" unicode="&#x2558;" horiz-adv-x="512" 
 />
    <glyph glyph-name="SF490000" unicode="&#x2559;" horiz-adv-x="512" 
 />
    <glyph glyph-name="SF380000" unicode="&#x255a;" horiz-adv-x="512" 
 />
    <glyph glyph-name="SF280000" unicode="&#x255b;" horiz-adv-x="512" 
 />
    <glyph glyph-name="SF270000" unicode="&#x255c;" horiz-adv-x="512" 
 />
    <glyph glyph-name="SF260000" unicode="&#x255d;" horiz-adv-x="512" 
 />
    <glyph glyph-name="SF360000" unicode="&#x255e;" horiz-adv-x="512" 
 />
    <glyph glyph-name="SF370000" unicode="&#x255f;" horiz-adv-x="512" 
 />
    <glyph glyph-name="SF420000" unicode="&#x2560;" horiz-adv-x="512" 
 />
    <glyph glyph-name="SF190000" unicode="&#x2561;" horiz-adv-x="512" 
 />
    <glyph glyph-name="SF200000" unicode="&#x2562;" horiz-adv-x="512" 
 />
    <glyph glyph-name="SF230000" unicode="&#x2563;" horiz-adv-x="512" 
 />
    <glyph glyph-name="SF470000" unicode="&#x2564;" horiz-adv-x="512" 
 />
    <glyph glyph-name="SF480000" unicode="&#x2565;" horiz-adv-x="512" 
 />
    <glyph glyph-name="SF410000" unicode="&#x2566;" horiz-adv-x="512" 
 />
    <glyph glyph-name="SF450000" unicode="&#x2567;" horiz-adv-x="512" 
 />
    <glyph glyph-name="SF460000" unicode="&#x2568;" horiz-adv-x="512" 
 />
    <glyph glyph-name="SF400000" unicode="&#x2569;" horiz-adv-x="512" 
 />
    <glyph glyph-name="SF540000" unicode="&#x256a;" horiz-adv-x="512" 
 />
    <glyph glyph-name="SF530000" unicode="&#x256b;" horiz-adv-x="512" 
 />
    <glyph glyph-name="SF440000" unicode="&#x256c;" horiz-adv-x="512" 
 />
    <glyph glyph-name="uni256D" unicode="&#x256d;" horiz-adv-x="512" 
 />
    <glyph glyph-name="uni256E" unicode="&#x256e;" horiz-adv-x="512" 
 />
    <glyph glyph-name="uni256F" unicode="&#x256f;" horiz-adv-x="512" 
 />
    <glyph glyph-name="uni2570" unicode="&#x2570;" horiz-adv-x="512" 
 />
    <glyph glyph-name="uni2571" unicode="&#x2571;" horiz-adv-x="512" 
 />
    <glyph glyph-name="uni2572" unicode="&#x2572;" horiz-adv-x="512" 
 />
    <glyph glyph-name="uni2573" unicode="&#x2573;" horiz-adv-x="512" 
 />
    <glyph glyph-name="uni2574" unicode="&#x2574;" horiz-adv-x="512" 
 />
    <glyph glyph-name="uni2575" unicode="&#x2575;" horiz-adv-x="512" 
 />
    <glyph glyph-name="uni2576" unicode="&#x2576;" horiz-adv-x="512" 
 />
    <glyph glyph-name="uni2577" unicode="&#x2577;" horiz-adv-x="512" 
 />
    <glyph glyph-name="uni2578" unicode="&#x2578;" horiz-adv-x="512" 
 />
    <glyph glyph-name="uni2579" unicode="&#x2579;" horiz-adv-x="512" 
 />
    <glyph glyph-name="uni257A" unicode="&#x257a;" horiz-adv-x="512" 
 />
    <glyph glyph-name="uni257B" unicode="&#x257b;" horiz-adv-x="512" 
 />
    <glyph glyph-name="uni257C" unicode="&#x257c;" horiz-adv-x="512" 
 />
    <glyph glyph-name="uni257D" unicode="&#x257d;" horiz-adv-x="512" 
 />
    <glyph glyph-name="uni257E" unicode="&#x257e;" horiz-adv-x="512" 
 />
    <glyph glyph-name="uni257F" unicode="&#x257f;" horiz-adv-x="512" 
 />
    <glyph glyph-name="upblock" unicode="&#x2580;" horiz-adv-x="512" 
 />
    <glyph glyph-name="uni2581" unicode="&#x2581;" horiz-adv-x="512" 
 />
    <glyph glyph-name="uni2582" unicode="&#x2582;" horiz-adv-x="512" 
 />
    <glyph glyph-name="uni2583" unicode="&#x2583;" horiz-adv-x="512" 
 />
    <glyph glyph-name="dnblock" unicode="&#x2584;" horiz-adv-x="512" 
 />
    <glyph glyph-name="uni2585" unicode="&#x2585;" horiz-adv-x="512" 
 />
    <glyph glyph-name="uni2586" unicode="&#x2586;" horiz-adv-x="512" 
 />
    <glyph glyph-name="uni2587" unicode="&#x2587;" horiz-adv-x="512" 
 />
    <glyph glyph-name="block" unicode="&#x2588;" horiz-adv-x="512" 
 />
    <glyph glyph-name="uni2589" unicode="&#x2589;" horiz-adv-x="512" 
 />
    <glyph glyph-name="uni258A" unicode="&#x258a;" horiz-adv-x="512" 
 />
    <glyph glyph-name="uni258B" unicode="&#x258b;" horiz-adv-x="512" 
 />
    <glyph glyph-name="lfblock" unicode="&#x258c;" horiz-adv-x="512" 
 />
    <glyph glyph-name="uni258D" unicode="&#x258d;" horiz-adv-x="512" 
 />
    <glyph glyph-name="uni258E" unicode="&#x258e;" horiz-adv-x="512" 
 />
    <glyph glyph-name="uni258F" unicode="&#x258f;" horiz-adv-x="512" 
 />
    <glyph glyph-name="rtblock" unicode="&#x2590;" horiz-adv-x="512" 
 />
    <glyph glyph-name="ltshade" unicode="&#x2591;" horiz-adv-x="512" 
 />
    <glyph glyph-name="shade" unicode="&#x2592;" horiz-adv-x="512" 
 />
    <glyph glyph-name="dkshade" unicode="&#x2593;" horiz-adv-x="512" 
 />
    <glyph glyph-name="uni2594" unicode="&#x2594;" horiz-adv-x="512" 
 />
    <glyph glyph-name="uni2595" unicode="&#x2595;" horiz-adv-x="512" 
 />
    <glyph glyph-name="filledbox" unicode="&#x25a0;" 
 />
    <glyph glyph-name="H22073" unicode="&#x25a1;" 
 />
    <glyph glyph-name="uni25A2" unicode="&#x25a2;" 
 />
    <glyph glyph-name="uni25A3" unicode="&#x25a3;" 
 />
    <glyph glyph-name="uni25A4" unicode="&#x25a4;" 
 />
    <glyph glyph-name="uni25A5" unicode="&#x25a5;" 
 />
    <glyph glyph-name="uni25A6" unicode="&#x25a6;" 
 />
    <glyph glyph-name="uni25A7" unicode="&#x25a7;" 
 />
    <glyph glyph-name="uni25A8" unicode="&#x25a8;" 
 />
    <glyph glyph-name="uni25A9" unicode="&#x25a9;" 
 />
    <glyph glyph-name="H18543" unicode="&#x25aa;" 
 />
    <glyph glyph-name="H18551" unicode="&#x25ab;" 
 />
    <glyph glyph-name="filledrect" unicode="&#x25ac;" 
 />
    <glyph glyph-name="uni25AD" unicode="&#x25ad;" 
 />
    <glyph glyph-name="uni25AE" unicode="&#x25ae;" 
 />
    <glyph glyph-name="uni25AF" unicode="&#x25af;" 
 />
    <glyph glyph-name="uni25B0" unicode="&#x25b0;" 
 />
    <glyph glyph-name="uni25B1" unicode="&#x25b1;" 
 />
    <glyph glyph-name="triagup" unicode="&#x25b2;" 
 />
    <glyph glyph-name="uni25B3" unicode="&#x25b3;" 
 />
    <glyph glyph-name="uni25B4" unicode="&#x25b4;" 
 />
    <glyph glyph-name="uni25B5" unicode="&#x25b5;" 
 />
    <glyph glyph-name="uni25B6" unicode="&#x25b6;" 
 />
    <glyph glyph-name="uni25B7" unicode="&#x25b7;" 
 />
    <glyph glyph-name="uni25B8" unicode="&#x25b8;" 
 />
    <glyph glyph-name="uni25B9" unicode="&#x25b9;" 
 />
    <glyph glyph-name="triagrt" unicode="&#x25ba;" 
 />
    <glyph glyph-name="uni25BB" unicode="&#x25bb;" 
 />
    <glyph glyph-name="triagdn" unicode="&#x25bc;" 
 />
    <glyph glyph-name="uni25BD" unicode="&#x25bd;" 
 />
    <glyph glyph-name="uni25BE" unicode="&#x25be;" 
 />
    <glyph glyph-name="uni25BF" unicode="&#x25bf;" 
 />
    <glyph glyph-name="uni25C0" unicode="&#x25c0;" 
 />
    <glyph glyph-name="uni25C1" unicode="&#x25c1;" 
 />
    <glyph glyph-name="uni25C2" unicode="&#x25c2;" 
 />
    <glyph glyph-name="uni25C3" unicode="&#x25c3;" 
 />
    <glyph glyph-name="triaglf" unicode="&#x25c4;" 
 />
    <glyph glyph-name="uni25C5" unicode="&#x25c5;" 
 />
    <glyph glyph-name="uni25C6" unicode="&#x25c6;" 
 />
    <glyph glyph-name="uni25C7" unicode="&#x25c7;" 
 />
    <glyph glyph-name="uni25C8" unicode="&#x25c8;" 
 />
    <glyph glyph-name="uni25C9" unicode="&#x25c9;" 
 />
    <glyph glyph-name="lozenge" unicode="&#x25ca;" 
 />
    <glyph glyph-name="circle" unicode="&#x25cb;" 
 />
    <glyph glyph-name="uni25CC" unicode="&#x25cc;" 
 />
    <glyph glyph-name="uni25CD" unicode="&#x25cd;" 
 />
    <glyph glyph-name="uni25CE" unicode="&#x25ce;" 
 />
    <glyph glyph-name="H18533" unicode="&#x25cf;" 
 />
    <glyph glyph-name="uni25D0" unicode="&#x25d0;" 
 />
    <glyph glyph-name="uni25D1" unicode="&#x25d1;" 
 />
    <glyph glyph-name="uni25D2" unicode="&#x25d2;" 
 />
    <glyph glyph-name="uni25D3" unicode="&#x25d3;" 
 />
    <glyph glyph-name="uni25D4" unicode="&#x25d4;" 
 />
    <glyph glyph-name="uni25D5" unicode="&#x25d5;" 
 />
    <glyph glyph-name="uni25D6" unicode="&#x25d6;" 
 />
    <glyph glyph-name="uni25D7" unicode="&#x25d7;" 
 />
    <glyph glyph-name="invbullet" unicode="&#x25d8;" 
 />
    <glyph glyph-name="invcircle" unicode="&#x25d9;" 
 />
    <glyph glyph-name="uni25DA" unicode="&#x25da;" 
 />
    <glyph glyph-name="uni25DB" unicode="&#x25db;" 
 />
    <glyph glyph-name="uni25DC" unicode="&#x25dc;" 
 />
    <glyph glyph-name="uni25DD" unicode="&#x25dd;" 
 />
    <glyph glyph-name="uni25DE" unicode="&#x25de;" 
 />
    <glyph glyph-name="uni25DF" unicode="&#x25df;" 
 />
    <glyph glyph-name="uni25E0" unicode="&#x25e0;" 
 />
    <glyph glyph-name="uni25E1" unicode="&#x25e1;" 
 />
    <glyph glyph-name="uni25E2" unicode="&#x25e2;" 
 />
    <glyph glyph-name="uni25E3" unicode="&#x25e3;" 
 />
    <glyph glyph-name="uni25E4" unicode="&#x25e4;" 
 />
    <glyph glyph-name="uni25E5" unicode="&#x25e5;" 
 />
    <glyph glyph-name="openbullet" unicode="&#x25e6;" 
 />
    <glyph glyph-name="uni25E7" unicode="&#x25e7;" 
 />
    <glyph glyph-name="uni25E8" unicode="&#x25e8;" 
 />
    <glyph glyph-name="uni25E9" unicode="&#x25e9;" 
 />
    <glyph glyph-name="uni25EA" unicode="&#x25ea;" 
 />
    <glyph glyph-name="uni25EB" unicode="&#x25eb;" 
 />
    <glyph glyph-name="uni25EC" unicode="&#x25ec;" 
 />
    <glyph glyph-name="uni25ED" unicode="&#x25ed;" 
 />
    <glyph glyph-name="uni25EE" unicode="&#x25ee;" 
 />
    <glyph glyph-name="uni25EF" unicode="&#x25ef;" 
 />
    <glyph glyph-name="uni2600" unicode="&#x2600;" 
 />
    <glyph glyph-name="uni2601" unicode="&#x2601;" 
 />
    <glyph glyph-name="uni2602" unicode="&#x2602;" 
 />
    <glyph glyph-name="uni2603" unicode="&#x2603;" 
 />
    <glyph glyph-name="uni2604" unicode="&#x2604;" 
 />
    <glyph glyph-name="uni2605" unicode="&#x2605;" 
 />
    <glyph glyph-name="uni2606" unicode="&#x2606;" 
 />
    <glyph glyph-name="uni2607" unicode="&#x2607;" 
 />
    <glyph glyph-name="uni2608" unicode="&#x2608;" 
 />
    <glyph glyph-name="uni2609" unicode="&#x2609;" 
 />
    <glyph glyph-name="uni260A" unicode="&#x260a;" 
 />
    <glyph glyph-name="uni260B" unicode="&#x260b;" 
 />
    <glyph glyph-name="uni260C" unicode="&#x260c;" 
 />
    <glyph glyph-name="uni260D" unicode="&#x260d;" 
 />
    <glyph glyph-name="uni260E" unicode="&#x260e;" 
 />
    <glyph glyph-name="uni260F" unicode="&#x260f;" 
 />
    <glyph glyph-name="uni2610" unicode="&#x2610;" 
 />
    <glyph glyph-name="uni2611" unicode="&#x2611;" 
 />
    <glyph glyph-name="uni2612" unicode="&#x2612;" 
 />
    <glyph glyph-name="uni2613" unicode="&#x2613;" 
 />
    <glyph glyph-name="uni261A" unicode="&#x261a;" 
 />
    <glyph glyph-name="uni261B" unicode="&#x261b;" 
 />
    <glyph glyph-name="uni261C" unicode="&#x261c;" 
 />
    <glyph glyph-name="uni261D" unicode="&#x261d;" 
 />
    <glyph glyph-name="uni261E" unicode="&#x261e;" 
 />
    <glyph glyph-name="uni261F" unicode="&#x261f;" 
 />
    <glyph glyph-name="uni2620" unicode="&#x2620;" 
 />
    <glyph glyph-name="uni2621" unicode="&#x2621;" 
 />
    <glyph glyph-name="uni2622" unicode="&#x2622;" 
 />
    <glyph glyph-name="uni2623" unicode="&#x2623;" 
 />
    <glyph glyph-name="uni2624" unicode="&#x2624;" 
 />
    <glyph glyph-name="uni2625" unicode="&#x2625;" 
 />
    <glyph glyph-name="uni2626" unicode="&#x2626;" 
 />
    <glyph glyph-name="uni2627" unicode="&#x2627;" 
 />
    <glyph glyph-name="uni2628" unicode="&#x2628;" 
 />
    <glyph glyph-name="uni2629" unicode="&#x2629;" 
 />
    <glyph glyph-name="uni262A" unicode="&#x262a;" 
 />
    <glyph glyph-name="uni262B" unicode="&#x262b;" 
 />
    <glyph glyph-name="uni262C" unicode="&#x262c;" 
 />
    <glyph glyph-name="uni262D" unicode="&#x262d;" 
 />
    <glyph glyph-name="uni262E" unicode="&#x262e;" 
 />
    <glyph glyph-name="uni262F" unicode="&#x262f;" 
 />
    <glyph glyph-name="uni2630" unicode="&#x2630;" 
 />
    <glyph glyph-name="uni2631" unicode="&#x2631;" 
 />
    <glyph glyph-name="uni2632" unicode="&#x2632;" 
 />
    <glyph glyph-name="uni2633" unicode="&#x2633;" 
 />
    <glyph glyph-name="uni2634" unicode="&#x2634;" 
 />
    <glyph glyph-name="uni2635" unicode="&#x2635;" 
 />
    <glyph glyph-name="uni2636" unicode="&#x2636;" 
 />
    <glyph glyph-name="uni2637" unicode="&#x2637;" 
 />
    <glyph glyph-name="uni2638" unicode="&#x2638;" 
 />
    <glyph glyph-name="uni2639" unicode="&#x2639;" 
 />
    <glyph glyph-name="smileface" unicode="&#x263a;" 
 />
    <glyph glyph-name="invsmileface" unicode="&#x263b;" 
 />
    <glyph glyph-name="sun" unicode="&#x263c;" 
 />
    <glyph glyph-name="uni263D" unicode="&#x263d;" 
 />
    <glyph glyph-name="uni263E" unicode="&#x263e;" 
 />
    <glyph glyph-name="uni263F" unicode="&#x263f;" 
 />
    <glyph glyph-name="female" unicode="&#x2640;" 
 />
    <glyph glyph-name="uni2641" unicode="&#x2641;" 
 />
    <glyph glyph-name="male" unicode="&#x2642;" 
 />
    <glyph glyph-name="uni2643" unicode="&#x2643;" 
 />
    <glyph glyph-name="uni2644" unicode="&#x2644;" 
 />
    <glyph glyph-name="uni2645" unicode="&#x2645;" 
 />
    <glyph glyph-name="uni2646" unicode="&#x2646;" 
 />
    <glyph glyph-name="uni2647" unicode="&#x2647;" 
 />
    <glyph glyph-name="uni2648" unicode="&#x2648;" 
 />
    <glyph glyph-name="uni2649" unicode="&#x2649;" 
 />
    <glyph glyph-name="uni264A" unicode="&#x264a;" 
 />
    <glyph glyph-name="uni264B" unicode="&#x264b;" 
 />
    <glyph glyph-name="uni264C" unicode="&#x264c;" 
 />
    <glyph glyph-name="uni264D" unicode="&#x264d;" 
 />
    <glyph glyph-name="uni264E" unicode="&#x264e;" 
 />
    <glyph glyph-name="uni264F" unicode="&#x264f;" 
 />
    <glyph glyph-name="uni2650" unicode="&#x2650;" 
 />
    <glyph glyph-name="uni2651" unicode="&#x2651;" 
 />
    <glyph glyph-name="uni2652" unicode="&#x2652;" 
 />
    <glyph glyph-name="uni2653" unicode="&#x2653;" 
 />
    <glyph glyph-name="uni2654" unicode="&#x2654;" 
 />
    <glyph glyph-name="uni2655" unicode="&#x2655;" 
 />
    <glyph glyph-name="uni2656" unicode="&#x2656;" 
 />
    <glyph glyph-name="uni2657" unicode="&#x2657;" 
 />
    <glyph glyph-name="uni2658" unicode="&#x2658;" 
 />
    <glyph glyph-name="uni2659" unicode="&#x2659;" 
 />
    <glyph glyph-name="uni265A" unicode="&#x265a;" 
 />
    <glyph glyph-name="uni265B" unicode="&#x265b;" 
 />
    <glyph glyph-name="uni265C" unicode="&#x265c;" 
 />
    <glyph glyph-name="uni265D" unicode="&#x265d;" 
 />
    <glyph glyph-name="uni265E" unicode="&#x265e;" 
 />
    <glyph glyph-name="uni265F" unicode="&#x265f;" 
 />
    <glyph glyph-name="spade" unicode="&#x2660;" 
 />
    <glyph glyph-name="uni2661" unicode="&#x2661;" 
 />
    <glyph glyph-name="uni2662" unicode="&#x2662;" 
 />
    <glyph glyph-name="club" unicode="&#x2663;" 
 />
    <glyph glyph-name="uni2664" unicode="&#x2664;" 
 />
    <glyph glyph-name="heart" unicode="&#x2665;" 
 />
    <glyph glyph-name="diamond" unicode="&#x2666;" 
 />
    <glyph glyph-name="uni2667" unicode="&#x2667;" 
 />
    <glyph glyph-name="uni2668" unicode="&#x2668;" 
 />
    <glyph glyph-name="uni2669" unicode="&#x2669;" 
 />
    <glyph glyph-name="musicalnote" unicode="&#x266a;" 
 />
    <glyph glyph-name="musicalnotedbl" unicode="&#x266b;" 
 />
    <glyph glyph-name="uni266C" unicode="&#x266c;" 
 />
    <glyph glyph-name="uni266D" unicode="&#x266d;" 
 />
    <glyph glyph-name="uni266E" unicode="&#x266e;" 
 />
    <glyph glyph-name="uni266F" unicode="&#x266f;" 
 />
    <glyph glyph-name="uni2701" unicode="&#x2701;" 
 />
    <glyph glyph-name="uni2702" unicode="&#x2702;" 
 />
    <glyph glyph-name="uni2703" unicode="&#x2703;" 
 />
    <glyph glyph-name="uni2704" unicode="&#x2704;" 
 />
    <glyph glyph-name="uni2706" unicode="&#x2706;" 
 />
    <glyph glyph-name="uni2707" unicode="&#x2707;" 
 />
    <glyph glyph-name="uni2708" unicode="&#x2708;" 
 />
    <glyph glyph-name="uni2709" unicode="&#x2709;" 
 />
    <glyph glyph-name="uni270C" unicode="&#x270c;" 
 />
    <glyph glyph-name="uni270D" unicode="&#x270d;" 
 />
    <glyph glyph-name="uni270E" unicode="&#x270e;" 
 />
    <glyph glyph-name="uni270F" unicode="&#x270f;" 
 />
    <glyph glyph-name="uni2710" unicode="&#x2710;" 
 />
    <glyph glyph-name="uni2711" unicode="&#x2711;" 
 />
    <glyph glyph-name="uni2712" unicode="&#x2712;" 
 />
    <glyph glyph-name="uni2713" unicode="&#x2713;" 
 />
    <glyph glyph-name="uni2714" unicode="&#x2714;" 
 />
    <glyph glyph-name="uni2715" unicode="&#x2715;" 
 />
    <glyph glyph-name="uni2716" unicode="&#x2716;" 
 />
    <glyph glyph-name="uni2717" unicode="&#x2717;" 
 />
    <glyph glyph-name="uni2718" unicode="&#x2718;" 
 />
    <glyph glyph-name="uni2719" unicode="&#x2719;" 
 />
    <glyph glyph-name="uni271A" unicode="&#x271a;" 
 />
    <glyph glyph-name="uni271B" unicode="&#x271b;" 
 />
    <glyph glyph-name="uni271C" unicode="&#x271c;" 
 />
    <glyph glyph-name="uni271D" unicode="&#x271d;" 
 />
    <glyph glyph-name="uni271E" unicode="&#x271e;" 
 />
    <glyph glyph-name="uni271F" unicode="&#x271f;" 
 />
    <glyph glyph-name="uni2720" unicode="&#x2720;" 
 />
    <glyph glyph-name="uni2721" unicode="&#x2721;" 
 />
    <glyph glyph-name="uni2722" unicode="&#x2722;" 
 />
    <glyph glyph-name="uni2723" unicode="&#x2723;" 
 />
    <glyph glyph-name="uni2724" unicode="&#x2724;" 
 />
    <glyph glyph-name="uni2725" unicode="&#x2725;" 
 />
    <glyph glyph-name="uni2726" unicode="&#x2726;" 
 />
    <glyph glyph-name="uni2727" unicode="&#x2727;" 
 />
    <glyph glyph-name="uni2729" unicode="&#x2729;" 
 />
    <glyph glyph-name="uni272A" unicode="&#x272a;" 
 />
    <glyph glyph-name="uni272B" unicode="&#x272b;" 
 />
    <glyph glyph-name="uni272C" unicode="&#x272c;" 
 />
    <glyph glyph-name="uni272D" unicode="&#x272d;" 
 />
    <glyph glyph-name="uni272E" unicode="&#x272e;" 
 />
    <glyph glyph-name="uni272F" unicode="&#x272f;" 
 />
    <glyph glyph-name="uni2730" unicode="&#x2730;" 
 />
    <glyph glyph-name="uni2731" unicode="&#x2731;" 
 />
    <glyph glyph-name="uni2732" unicode="&#x2732;" 
 />
    <glyph glyph-name="uni2733" unicode="&#x2733;" 
 />
    <glyph glyph-name="uni2734" unicode="&#x2734;" 
 />
    <glyph glyph-name="uni2735" unicode="&#x2735;" 
 />
    <glyph glyph-name="uni2736" unicode="&#x2736;" 
 />
    <glyph glyph-name="uni2737" unicode="&#x2737;" 
 />
    <glyph glyph-name="uni2738" unicode="&#x2738;" 
 />
    <glyph glyph-name="uni2739" unicode="&#x2739;" 
 />
    <glyph glyph-name="uni273A" unicode="&#x273a;" 
 />
    <glyph glyph-name="uni273B" unicode="&#x273b;" 
 />
    <glyph glyph-name="uni273C" unicode="&#x273c;" 
 />
    <glyph glyph-name="uni273D" unicode="&#x273d;" 
 />
    <glyph glyph-name="uni273E" unicode="&#x273e;" 
 />
    <glyph glyph-name="uni273F" unicode="&#x273f;" 
 />
    <glyph glyph-name="uni2740" unicode="&#x2740;" 
 />
    <glyph glyph-name="uni2741" unicode="&#x2741;" 
 />
    <glyph glyph-name="uni2742" unicode="&#x2742;" 
 />
    <glyph glyph-name="uni2743" unicode="&#x2743;" 
 />
    <glyph glyph-name="uni2744" unicode="&#x2744;" 
 />
    <glyph glyph-name="uni2745" unicode="&#x2745;" 
 />
    <glyph glyph-name="uni2746" unicode="&#x2746;" 
 />
    <glyph glyph-name="uni2747" unicode="&#x2747;" 
 />
    <glyph glyph-name="uni2748" unicode="&#x2748;" 
 />
    <glyph glyph-name="uni2749" unicode="&#x2749;" 
 />
    <glyph glyph-name="uni274A" unicode="&#x274a;" 
 />
    <glyph glyph-name="uni274B" unicode="&#x274b;" 
 />
    <glyph glyph-name="uni274D" unicode="&#x274d;" 
 />
    <glyph glyph-name="uni274F" unicode="&#x274f;" 
 />
    <glyph glyph-name="uni2750" unicode="&#x2750;" 
 />
    <glyph glyph-name="uni2751" unicode="&#x2751;" 
 />
    <glyph glyph-name="uni2752" unicode="&#x2752;" 
 />
    <glyph glyph-name="uni2756" unicode="&#x2756;" 
 />
    <glyph glyph-name="uni2758" unicode="&#x2758;" 
 />
    <glyph glyph-name="uni2759" unicode="&#x2759;" 
 />
    <glyph glyph-name="uni275A" unicode="&#x275a;" 
 />
    <glyph glyph-name="uni275B" unicode="&#x275b;" 
 />
    <glyph glyph-name="uni275C" unicode="&#x275c;" 
 />
    <glyph glyph-name="uni275D" unicode="&#x275d;" 
 />
    <glyph glyph-name="uni275E" unicode="&#x275e;" 
 />
    <glyph glyph-name="uni2761" unicode="&#x2761;" 
 />
    <glyph glyph-name="uni2762" unicode="&#x2762;" 
 />
    <glyph glyph-name="uni2763" unicode="&#x2763;" 
 />
    <glyph glyph-name="uni2764" unicode="&#x2764;" 
 />
    <glyph glyph-name="uni2765" unicode="&#x2765;" 
 />
    <glyph glyph-name="uni2766" unicode="&#x2766;" 
 />
    <glyph glyph-name="uni2767" unicode="&#x2767;" 
 />
    <glyph glyph-name="uni2776" unicode="&#x2776;" 
 />
    <glyph glyph-name="uni2777" unicode="&#x2777;" 
 />
    <glyph glyph-name="uni2778" unicode="&#x2778;" 
 />
    <glyph glyph-name="uni2779" unicode="&#x2779;" 
 />
    <glyph glyph-name="uni277A" unicode="&#x277a;" 
 />
    <glyph glyph-name="uni277B" unicode="&#x277b;" 
 />
    <glyph glyph-name="uni277C" unicode="&#x277c;" 
 />
    <glyph glyph-name="uni277D" unicode="&#x277d;" 
 />
    <glyph glyph-name="uni277E" unicode="&#x277e;" 
 />
    <glyph glyph-name="uni277F" unicode="&#x277f;" 
 />
    <glyph glyph-name="uni2780" unicode="&#x2780;" 
 />
    <glyph glyph-name="uni2781" unicode="&#x2781;" 
 />
    <glyph glyph-name="uni2782" unicode="&#x2782;" 
 />
    <glyph glyph-name="uni2783" unicode="&#x2783;" 
 />
    <glyph glyph-name="uni2784" unicode="&#x2784;" 
 />
    <glyph glyph-name="uni2785" unicode="&#x2785;" 
 />
    <glyph glyph-name="uni2786" unicode="&#x2786;" 
 />
    <glyph glyph-name="uni2787" unicode="&#x2787;" 
 />
    <glyph glyph-name="uni2788" unicode="&#x2788;" 
 />
    <glyph glyph-name="uni2789" unicode="&#x2789;" 
 />
    <glyph glyph-name="uni278A" unicode="&#x278a;" 
 />
    <glyph glyph-name="uni278B" unicode="&#x278b;" 
 />
    <glyph glyph-name="uni278C" unicode="&#x278c;" 
 />
    <glyph glyph-name="uni278D" unicode="&#x278d;" 
 />
    <glyph glyph-name="uni278E" unicode="&#x278e;" 
 />
    <glyph glyph-name="uni278F" unicode="&#x278f;" 
 />
    <glyph glyph-name="uni2790" unicode="&#x2790;" 
 />
    <glyph glyph-name="uni2791" unicode="&#x2791;" 
 />
    <glyph glyph-name="uni2792" unicode="&#x2792;" 
 />
    <glyph glyph-name="uni2793" unicode="&#x2793;" 
 />
    <glyph glyph-name="uni2794" unicode="&#x2794;" 
 />
    <glyph glyph-name="uni2798" unicode="&#x2798;" 
 />
    <glyph glyph-name="uni2799" unicode="&#x2799;" 
 />
    <glyph glyph-name="uni279A" unicode="&#x279a;" 
 />
    <glyph glyph-name="uni279B" unicode="&#x279b;" 
 />
    <glyph glyph-name="uni279C" unicode="&#x279c;" 
 />
    <glyph glyph-name="uni279D" unicode="&#x279d;" 
 />
    <glyph glyph-name="uni279E" unicode="&#x279e;" 
 />
    <glyph glyph-name="uni279F" unicode="&#x279f;" 
 />
    <glyph glyph-name="uni27A0" unicode="&#x27a0;" 
 />
    <glyph glyph-name="uni27A1" unicode="&#x27a1;" 
 />
    <glyph glyph-name="uni27A2" unicode="&#x27a2;" 
 />
    <glyph glyph-name="uni27A3" unicode="&#x27a3;" 
 />
    <glyph glyph-name="uni27A4" unicode="&#x27a4;" 
 />
    <glyph glyph-name="uni27A5" unicode="&#x27a5;" 
 />
    <glyph glyph-name="uni27A6" unicode="&#x27a6;" 
 />
    <glyph glyph-name="uni27A7" unicode="&#x27a7;" 
 />
    <glyph glyph-name="uni27A8" unicode="&#x27a8;" 
 />
    <glyph glyph-name="uni27A9" unicode="&#x27a9;" 
 />
    <glyph glyph-name="uni27AA" unicode="&#x27aa;" 
 />
    <glyph glyph-name="uni27AB" unicode="&#x27ab;" 
 />
    <glyph glyph-name="uni27AC" unicode="&#x27ac;" 
 />
    <glyph glyph-name="uni27AD" unicode="&#x27ad;" 
 />
    <glyph glyph-name="uni27AE" unicode="&#x27ae;" 
 />
    <glyph glyph-name="uni27AF" unicode="&#x27af;" 
 />
    <glyph glyph-name="uni27B1" unicode="&#x27b1;" 
 />
    <glyph glyph-name="uni27B2" unicode="&#x27b2;" 
 />
    <glyph glyph-name="uni27B3" unicode="&#x27b3;" 
 />
    <glyph glyph-name="uni27B4" unicode="&#x27b4;" 
 />
    <glyph glyph-name="uni27B5" unicode="&#x27b5;" 
 />
    <glyph glyph-name="uni27B6" unicode="&#x27b6;" 
 />
    <glyph glyph-name="uni27B7" unicode="&#x27b7;" 
 />
    <glyph glyph-name="uni27B8" unicode="&#x27b8;" 
 />
    <glyph glyph-name="uni27B9" unicode="&#x27b9;" 
 />
    <glyph glyph-name="uni27BA" unicode="&#x27ba;" 
 />
    <glyph glyph-name="uni27BB" unicode="&#x27bb;" 
 />
    <glyph glyph-name="uni27BC" unicode="&#x27bc;" 
 />
    <glyph glyph-name="uni27BD" unicode="&#x27bd;" 
 />
    <glyph glyph-name="uni27BE" unicode="&#x27be;" 
 />
    <glyph glyph-name="uni3000" unicode="&#x3000;" 
 />
    <glyph glyph-name="uni3001" unicode="&#x3001;" 
d="M209 -96q-27 7 -48 31l-14 37h-7q-54 52 -61 124l24 48q31 24 72 20l48 -27q30 -38 61 -77.5t28 -93.5q-7 -28 -35 -48q-30 -21 -68 -14z" />
    <glyph glyph-name="uni3002" unicode="&#x3002;" 
d="M199 -89l-24 10v7q-35 -4 -59 17q-34 34 -46 78.5t-5 96.5l27 78l11 4l3 10q24 14 55 10l14 -3q37 21 85 17l14 -3v-7l38 -17l27 -31q21 -27 17 -65q-10 -75 -41 -141l-10 -10l-38 -38q-31 -13 -68 -13zM209 31l24 30l3 35h-13l-28 -11l-3 -30l13 -28z" />
    <glyph glyph-name="uni3003" unicode="&#x3003;" 
 />
    <glyph glyph-name="uni3004" unicode="&#x3004;" 
 />
    <glyph glyph-name="uni3005" unicode="&#x3005;" 
 />
    <glyph glyph-name="uni3006" unicode="&#x3006;" 
 />
    <glyph glyph-name="uni3007" unicode="&#x3007;" 
 />
    <glyph glyph-name="uni3008" unicode="&#x3008;" 
 />
    <glyph glyph-name="uni3009" unicode="&#x3009;" 
 />
    <glyph glyph-name="uni300A" unicode="&#x300a;" 
 />
    <glyph glyph-name="uni300B" unicode="&#x300b;" 
 />
    <glyph glyph-name="uni300C" unicode="&#x300c;" 
 />
    <glyph glyph-name="uni300D" unicode="&#x300d;" 
 />
    <glyph glyph-name="uni300E" unicode="&#x300e;" 
 />
    <glyph glyph-name="uni300F" unicode="&#x300f;" 
 />
    <glyph glyph-name="uni3010" unicode="&#x3010;" 
 />
    <glyph glyph-name="uni3011" unicode="&#x3011;" 
 />
    <glyph glyph-name="uni3012" unicode="&#x3012;" 
 />
    <glyph glyph-name="uni3013" unicode="&#x3013;" 
 />
    <glyph glyph-name="uni3014" unicode="&#x3014;" 
 />
    <glyph glyph-name="uni3015" unicode="&#x3015;" 
 />
    <glyph glyph-name="uni3016" unicode="&#x3016;" 
 />
    <glyph glyph-name="uni3017" unicode="&#x3017;" 
 />
    <glyph glyph-name="uni3018" unicode="&#x3018;" 
 />
    <glyph glyph-name="uni3019" unicode="&#x3019;" 
 />
    <glyph glyph-name="uni301A" unicode="&#x301a;" 
 />
    <glyph glyph-name="uni301B" unicode="&#x301b;" 
 />
    <glyph glyph-name="uni301C" unicode="&#x301c;" 
 />
    <glyph glyph-name="uni301D" unicode="&#x301d;" 
 />
    <glyph glyph-name="uni301E" unicode="&#x301e;" 
 />
    <glyph glyph-name="uni301F" unicode="&#x301f;" 
 />
    <glyph glyph-name="uni3020" unicode="&#x3020;" 
 />
    <glyph glyph-name="uni3030" unicode="&#x3030;" 
 />
    <glyph glyph-name="uni3031" unicode="&#x3031;" 
 />
    <glyph glyph-name="uni3032" unicode="&#x3032;" 
 />
    <glyph glyph-name="uni3033" unicode="&#x3033;" 
 />
    <glyph glyph-name="uni3034" unicode="&#x3034;" 
 />
    <glyph glyph-name="uni3035" unicode="&#x3035;" 
 />
    <glyph glyph-name="uni3036" unicode="&#x3036;" 
 />
    <glyph glyph-name="uni3037" unicode="&#x3037;" 
 />
    <glyph glyph-name="uni3041" unicode="&#x3041;" 
d="M716 44l-24 17l-7 31q34 28 27 69l-27 58l-7 3v11h-7l-20 -35h-7l-41 -75l-24 -27l-17 -35q-24 -17 -55 -13l-31 3l-48 -3l-55 31q-34 48 -31 109q11 41 42 72l17 7v7l24 3l10 -3l10 3l4 89h-14q-48 -20 -106 -20q-31 10 -58 31q-38 41 -35 99q7 44 45 75q44 31 103 21
q27 -14 58 -17v48l-7 34l24 44l10 4v7l31 3l21 -14q6 -51 17 -99l-4 -24l7 -24l14 -3l75 10l21 -10q17 -21 13 -52l-20 -27q-48 -17 -99 -24v-120h24l41 14l24 68l41 11l20 -11q17 -17 14 -44l-7 -38l14 -10q37 -41 58 -87.5t14 -104.5l-24 -45zM462 144v31q-13 27 -10 61
h-10l-14 -61l10 -31h24zM558 233v3l11 17h-18v-20l4 -4z" />
    <glyph glyph-name="uni3042" unicode="&#x3042;" horiz-adv-x="733" 
d="M380 -134q-30 14 -44 45l-7 24l-17 3v-7l-58 -10q-48 3 -86 38q-20 41 -29 85.5t-5 95.5l14 38h6l11 20l10 4l14 27q51 31 113 41v14l-14 113h-14q-44 0 -87 -5t-87 -5q-45 17 -79 55q-21 27 -17 65q13 44 48 82q41 34 96 27l71 -10l28 3q3 52 14 100l-7 75q7 31 27 55
l10 3v7q38 28 86 21l45 -17l3 -11l10 -3l4 -10h6q24 -38 18 -89q0 -86 -18 -165l48 -7q83 7 165 24l48 -24q27 -34 20 -82l-27 -44q-51 -31 -111 -36t-119 -16l-34 11l-20 -7q-4 -62 -14 -124q62 -3 120 -17q14 41 44 76q17 17 45 13l20 -10l14 -34h7v-31l-31 -72l14 -3
q27 -41 46 -84t15 -94q0 -45 -27 -83q-27 -24 -65 -17l-24 10v7l-10 7q-21 21 -17 52l24 48h6l7 41l-20 37l-11 4l-6 -11l-14 -3q-17 -38 -48 -68l-58 -48v-52l7 -37l-17 -28zM308 38q14 23 11 54l-4 45l4 20l-11 24h-6l-41 -17q-24 -37 -18 -89l14 -48h14zM418 103v6l17 11
l24 34l10 3v11l-68 13v-41l7 -37h10z" />
    <glyph glyph-name="uni3043" unicode="&#x3043;" horiz-adv-x="518" 
d="M103 68l-51 27q-45 58 -48 134l3 10l-7 31q0 78 48 137q28 20 65 17l42 -21q34 -65 27 -147l-3 -10h6l41 10l28 -17q14 -21 10 -48l-14 -24l-37 -21l-4 -13l-10 -11l-17 -17h-10l-11 -24q-24 -20 -58 -13zM439 191l-31 20q-10 42 -24 84.5t-14 90.5l17 28q24 17 55 10
l38 -24q17 -28 20 -65h7l11 -72l-7 -41h-7l-7 -17l-14 -4v-7z" />
    <glyph glyph-name="uni3044" unicode="&#x3044;" horiz-adv-x="678" 
d="M113 99q-51 17 -68 65q-21 62 -26 128.5t-19 132.5l4 13l-4 34q0 86 45 151q31 21 72 17q37 -3 61 -37q14 -52 19 -106.5t9 -113.5h7q20 31 58 28l24 -14q17 -17 13 -44l-13 -24l-11 -4v-7h-6q-14 -20 -14 -44h-7q-20 -82 -65 -158q-34 -24 -79 -17zM596 342l-34 21
l-4 10h-6q-14 48 -22.5 97.5t-18.5 97.5l6 21h7l4 10h6v7l48 7l28 -14q34 -41 46 -94t22 -104l-7 -21h-6l-11 -21l-13 -3v-7z" />
    <glyph glyph-name="uni3045" unicode="&#x3045;" horiz-adv-x="329" 
d="M96 1l-31 27l-3 31l20 31q75 0 130 55q31 34 34 82q-3 34 -30 58q-31 17 -69 14l-44 -24l-24 -34l-14 -4v-7h-21l-27 28v34l31 41h7v7h7v7l24 3v7q54 24 123 17l58 -31l45 -51l17 -89q-11 -65 -45 -116l-14 -14h-6q-4 -14 -18 -17h-6l-14 -14q-55 -41 -130 -41zM185 415
q-62 0 -106 38q-45 38 -76 86l-3 41q7 34 34 58q31 24 72 20q69 -27 130 -68q55 -51 55 -127l-24 -34q-34 -21 -82 -14z" />
    <glyph glyph-name="uni3046" unicode="&#x3046;" horiz-adv-x="449" 
d="M213 -89l-28 17q-20 24 -17 58l10 24l11 4l6 10l31 10l7 14l28 20h6l24 41h7q31 59 31 127q3 72 -51 117l-41 3q-89 -10 -161 -55l-28 24l-3 28l13 41q52 34 112 47.5t125 10.5q37 -7 68 -38l48 -58q21 -38 26 -82.5t5 -92.5q-7 -51 -24 -102h-7l-10 -28h-7
q-24 -41 -55 -82l-37 -21l-24 -24q-31 -13 -65 -13zM240 555q-72 20 -140 51v7q-42 3 -69 34q-31 38 -27 89q7 31 24 55l10 3l7 11q37 27 85 24q45 0 79 -21v-7q52 -17 99 -48l11 -10v-7l34 -20l3 -11l79 -54l14 -45l-17 -34q-21 -17 -52 -17l-30 10q-24 -10 -52 -7l-27 3z
" />
    <glyph glyph-name="uni3047" unicode="&#x3047;" horiz-adv-x="394" 
d="M257 3q-31 0 -55 21l-41 44q-21 -37 -58 -51h-28l-20 14q-17 17 -14 41l55 75h7l7 24l13 14h7l10 31h-20l-89 -4l-27 24l-4 27l17 24q58 0 109.5 17.5t106.5 27.5l24 -14q14 -17 10 -44q-20 -62 -51 -120l7 -17l10 -4v-7l31 -13l55 51l34 4l27 -18q14 -20 10 -47l-37 -59
h-7l-10 -13l-52 -21v-7h-27zM175 380q-79 3 -134 65q-20 34 -17 82l21 38l10 3v7q34 21 75 17q31 -3 55 -31q45 -58 51 -133l-20 -34z" />
    <glyph glyph-name="uni3048" unicode="&#x3048;" horiz-adv-x="476" 
d="M295 -45q-34 0 -62 24l-3 11l-17 10l-4 10h-7q-17 28 -24 58h-6l-28 -61q-24 -21 -58 -14l-10 3v7l-14 4q-24 24 -20 61l13 45h7l3 10h7q0 21 14 38l21 20h6l28 72l17 17l7 21h7l6 17h7l11 41h-11q-61 -27 -133 -31l-41 21l-11 41l18 24q65 24 130 43t137 22l27 -17
q17 -17 14 -45q-11 -44 -22.5 -85t-32.5 -79h-7l-27 -62l41 -41v-10h7l10 -34l14 -4l34 21l34 34l38 4l27 -11v-7l14 -6q20 -24 14 -62l-11 -24h-7v-7h-6l-14 -20l-14 -14q-41 -28 -89 -38v-7h-34zM192 517l-72 34v7q-31 7 -55 27l-47 55l-11 58l28 59q41 37 102 27
q45 -17 89.5 -36t82.5 -53q27 -34 58 -68l3 -48l-24 -41q-31 -24 -72 -18l-24 4q-27 -10 -58 -7z" />
    <glyph glyph-name="uni3049" unicode="&#x3049;" horiz-adv-x="565" 
d="M161 -21l-62 34l-6 18h-7q-31 44 -24 106q3 51 48 89l13 13q41 21 79 42l4 41h-7q-52 -41 -120 -35q-31 11 -55 38q-24 34 -21 79l7 27h7q4 24 24 38l21 7v7l61 6l59 -13v24l-18 82l18 24l30 7l28 -17q24 -79 37 -161q38 -14 83 -11l24 4l24 -14q13 -20 10 -48l-10 -20
q-52 -14 -107 -14l-3 -34l10 -14l69 -48q31 -34 44.5 -78.5t6.5 -96.5l-7 -17h-7l-20 -37q-21 -14 -45 -14l-27 17l-10 41l10 21h7q10 24 7 54l-7 21l-14 7l-3 7h-7v-14l3 -31l-41 -89h-7l-10 -14q-41 -27 -89 -34zM199 99v7q17 27 13 62h-10l-17 -18h-3v-37l6 -14h11z
M497 168l-11 3v7l-13 7l-14 24l-14 3l-10 41l14 24l41 10l20 -10v-7l35 -17q20 -24 20 -58q-7 -21 -27 -27h-41z" />
    <glyph glyph-name="uni304A" unicode="&#x304a;" horiz-adv-x="798" 
d="M486 -34l-10 3v7l-14 3q-24 24 -21 62l11 24h7l3 10h7v7l20 14v10l-37 65l-41 21q6 -69 -31 -124l-31 -37l-27 -11v-6q-42 -14 -90 -18q-41 0 -68 31q-51 58 -41 141q3 48 34 85l45 41l92 7v17q-7 48 -17 93l-58 3l-45 -7l-13 4l-62 -4l-45 21v7l-24 17q-30 41 -24 96
l14 44h7l21 31l17 7v7q68 24 147 24l44 -4v18l-10 54l14 28h7l10 13l45 4l27 -17v-11h7q20 -54 20 -116q52 -14 106.5 -15.5t95.5 -39.5q21 -31 17 -72l-30 -51q-79 -27 -165 -34l-3 -24l10 -93q82 -3 141 -65l3 -10h7q58 -69 55 -161q-7 -45 -41 -79q-38 -27 -86 -20z
M250 103l41 17q20 24 17 58l-4 27h-41l-27 -7q-14 -23 -14 -54l14 -45h10zM705 219l-38 27l-24 24v7h-6q-24 31 -24 72l17 34q24 14 55 14l47 -24v-7l48 -34q18 -27 14 -62l-24 -37q-27 -17 -65 -14z" />
    <glyph glyph-name="uni304B" unicode="&#x304b;" horiz-adv-x="777" 
d="M359 72l-47 20l-11 38l14 34l31 4l17 -4q20 65 17 141l-14 65l-37 3l-11 -3q-6 -79 -37 -151l-14 -14l-17 -37q-24 -17 -55 -14l-34 31l-4 37l28 83h-10q-38 -21 -86 -14l-45 24l-10 10q-34 41 -27 96l24 55l10 3v7q75 34 158 48v21l-7 58l24 41l41 10l20 -10l14 -17v-10
h7q17 -38 14 -86h6v-14q62 4 110 -31l27 -24l14 -13l7 -17h7q24 -62 31 -134q0 -51 -7 -99t-35 -86q-51 -38 -113 -51zM695 318l-10 4v7l-34 20l-4 10h-7q-31 48 -61.5 96t-34.5 106l14 24q24 18 58 11l28 -14l68 -116l14 -7l7 -17l27 -14l7 -17h7l3 -48l-20 -31
q-24 -21 -62 -14z" />
    <glyph glyph-name="uni304C" unicode="&#x304c;" horiz-adv-x="881" 
d="M346 24l-10 3l-7 34l7 14l34 4v13l-3 24l3 28q-10 68 -34 133l-14 4l-37 -21q-14 -85 -55 -161q-21 -17 -48 -14l-34 28l-4 34l7 21h7l7 41h-7q-31 -11 -68 -7l-45 24l-10 10q-35 41 -28 96q7 38 35 65q61 38 137 41l6 79l-3 24q7 31 34 51l45 4q20 -14 24 -38h7l6 -103
q79 -3 137 -51l14 -34h7q10 -48 20.5 -94.5t10.5 -97.5q0 -58 -28 -103h-6l-7 -10l-45 -21l-10 -13zM706 240l-38 24l-13 24h-7l-17 37l-17 10l-11 28h-7q-41 58 -58 130l14 24q24 21 62 17l27 -14l27 -27v-7h7v-10h7q34 -31 41 -75l17 -11l14 -24h7q24 -34 24 -75l-7 -17
h-7l-7 -17q-24 -21 -58 -17zM740 507q-24 3 -41 17l-24 68l14 28q20 17 51 13l14 -3v10l-3 31l20 34q21 14 51 11l28 -14l20 -45h7l4 -44l-14 -24l-14 -4v-6l-44 -4l-11 4v6h-6q3 -34 -11 -61q-17 -14 -41 -17z" />
    <glyph glyph-name="uni304D" unicode="&#x304d;" horiz-adv-x="518" 
d="M261 -17l-59 31l-51 58q-20 27 -20 61l13 24q21 18 48 11l28 -31l24 -38l17 -10l10 -14l38 -14q13 -20 10 -47l-10 -21q-21 -14 -48 -10zM377 144v7l-27 10q-17 37 -24 82t-17 86h-11q-44 -18 -88.5 -26.5t-92.5 -18.5l-24 24l-4 21l11 20q41 28 89 34.5t92 23.5v18
q-13 17 -10 44h-41q-34 -14 -75 -10q-76 0 -127 55q-28 37 -21 89l17 48h7l14 20l10 4v6l17 4v7l69 6l82 -6q-3 34 17 61l31 4l14 -24h7q20 -35 30 -72l52 -14q31 14 72 10q27 -3 51 -20q21 -24 14 -58l-14 -24l-48 -21v-7q-38 -13 -79 -24v-13l11 -48l10 -4q38 10 75 14
l14 -7q14 -14 10 -38q-27 -34 -79 -34l-6 -17q13 -41 28.5 -82t18.5 -86l-20 -31q-24 -17 -55 -13z" />
    <glyph glyph-name="uni304E" unicode="&#x304e;" horiz-adv-x="777" 
d="M253 -34q-48 10 -85 37l-41 48l-4 31l10 21h7l11 13l30 4l48 -24l17 -21q52 -10 96 -27l7 -34h-7l-3 -14l-10 -4l-4 -13q-31 -21 -72 -17zM394 161l-31 20q-17 48 -21 100h-10q-41 -14 -84 -31t-87 -24l-34 24l-7 31l24 24q44 6 87 23.5t84 34.5l3 17l-13 41l-65 7
q-41 -17 -89 -14q-69 -7 -117 41q-34 41 -27 96q7 38 37 69q41 34 100 27q51 -10 99 -24v14l-10 61l17 35l38 7l20 -18q17 -47 34 -95h7l34 3l52 -3l31 3q37 -10 61 -45l7 -20h7v-31l-17 -27q-58 -41 -127 -48v-14l21 -55l24 -3l30 7l28 -17l7 -35q-7 -24 -31 -31l-34 -6v-7
q24 -45 27 -96l-10 -21h-7l-3 -10h-11v-7zM599 599l-37 31l-11 68l7 21h7l7 24q20 17 48 14l24 -11l17 -41h7l10 52h7l10 13l34 4l28 -14q17 -31 20 -65l-20 -34l-45 -14l-31 17v4h-6q3 -28 -11 -48l-10 -11q-24 -13 -55 -10z" />
    <glyph glyph-name="uni304F" unicode="&#x304f;" horiz-adv-x="449" 
d="M325 -28q-27 11 -41 35q-27 58 -68 109l-31 24v7l-17 10l-7 14l-24 7v7l-17 7l-7 17l-14 7l-13 17q-31 -4 -55 10v7l-10 3q-21 24 -21 58q7 66 51 114l21 20q14 65 46.5 121.5t63.5 114.5h6l35 52q44 37 109 31q48 -11 82 -48q35 -48 28 -113q-10 -45 -48 -76l-21 -10v-7
h-6v-7h-7v-7q-41 -20 -76 -58q-65 -48 -109 -113v-14l17 -10l3 -10q35 -17 65 -45l7 -17l28 -17l37 -37v-7h7q48 -69 65 -151l-10 -21h-7v-6h-7v-7q-24 -14 -55 -11z" />
    <glyph glyph-name="uni3050" unicode="&#x3050;" horiz-adv-x="634" 
d="M288 -24l-41 27l-38 52l-24 13v7l-10 4l-14 13v7l-10 4v6h-7l-14 18l-17 17v7h-7v6l-17 11q-27 34 -56 68t-33 79q17 48 41 90.5t45 87.5l14 14q17 68 58 126h7l3 11h7q20 48 58 89l10 3v7q38 24 89 21l52 -21v-7l24 -17q34 -44 27 -103l-17 -41h-7l-10 -20h-7v-7
l-27 -28q-11 -34 -38 -58l-21 -10l-17 -24l-10 -3l-55 -72l-55 -52l-6 -20l30 -28v-7h7v-6l31 -21q51 -48 103 -99v-7l24 -17q20 -28 17 -62l-21 -38q-27 -24 -68 -20zM473 322l-41 37l-4 28l14 34l34 7l14 -7q27 -31 31 -72q-7 -20 -28 -27h-20zM558 394v7l-27 10
q-21 34 -21 79q0 24 21 41l34 7l31 -14v-7l10 -3q28 -31 28 -76l-21 -31q-24 -17 -55 -13z" />
    <glyph glyph-name="uni3051" unicode="&#x3051;" horiz-adv-x="754" 
d="M172 75l-34 21l-3 10h-7q-45 110 -58.5 229.5t-41.5 236.5q7 37 38 68l17 7v7q34 14 76 10q37 -7 65 -41q24 -41 17 -92q-21 -79 -31 -165l3 -68l-3 -14l7 -31h10l38 7l3 -10h7l7 -34l-69 -127zM535 85l-10 4v7l-14 7l-10 41q24 44 34.5 95.5t6.5 106.5l-7 55h-37l-89 -7
l-11 3v7l-13 3q-18 24 -14 55l10 24h7l10 14q28 20 65 17l59 -7v7q-24 51 -24 113l13 24l41 10l21 -10q24 -72 44 -144l79 -3v-7l14 -4q20 -20 14 -54l-18 -28q-34 -17 -75 -10v-17q10 -69 7 -141q-10 -82 -55 -147q-20 -17 -48 -14z" />
    <glyph glyph-name="uni3052" unicode="&#x3052;" horiz-adv-x="957" 
d="M170 14l-20 6v7l-28 11q-38 71 -46.5 155t-21.5 166l3 11l-14 85q-3 62 28 110h7l3 10h7v7q41 31 99 21l41 -21v-7l11 -3l3 -11h7q24 -37 20 -85q-13 -75 -30.5 -147t-23.5 -151h6l14 17l41 7q17 -21 14 -48q-38 -58 -62 -120l-10 -10q-21 -14 -48 -10zM550 27l-31 17
q-17 24 -13 55q20 52 25.5 108.5t1.5 117.5h-38l-24 -3l-58 20l-7 31l21 21q48 13 99 24l4 24q-14 51 -17 109l17 55l34 10l20 -10q31 -45 38 -99h7l10 -62q31 3 52 -14l3 -10h7l3 -38q-10 -24 -34 -34l-20 -3v-165q-4 -78 -48 -140q-21 -17 -52 -14zM759 469l-31 21
q-31 48 -20 109l17 45l41 10l21 -10l3 -11h7v21l-4 24l24 38q24 17 59 10l34 -31l7 -72l-4 -10h-7l-6 -17l-14 -4v-7l-45 -3l-27 14v-11q24 -30 20 -75l-3 -10h-7l-7 -17l-13 -4v-7z" />
    <glyph glyph-name="uni3053" unicode="&#x3053;" horiz-adv-x="744" 
d="M387 0l-95 58q-35 27 -55 62v34l7 17l13 14l41 3l65 -58q42 -31 100 -27l24 24l58 3l20 -24v-24q-3 -41 -37 -68q-65 -21 -141 -14zM552 414l-24 14q-21 20 -17 51l20 38h7l7 10v7h-14q-82 -14 -164 -24q-48 0 -89 10q-72 -13 -147 -13l-45 20v7l-17 10q-31 41 -27 96
l13 41h7l3 14h7l4 10h7v7l13 4v6q38 18 83 14q78 -38 158.5 -68.5t173.5 -34.5q68 18 144 14l30 -17q21 -21 14 -51q-10 -55 -41 -103l-21 -21h-6l-11 -17l-10 -3v-7q-24 -21 -58 -14z" />
    <glyph glyph-name="uni3054" unicode="&#x3054;" horiz-adv-x="819" 
d="M238 10q-34 14 -65 45l-10 37l13 28q21 17 48 13l24 -10v-7l35 -3q71 17 147 27l24 -20l3 -38l-17 -24h-7l-3 -14q-45 -17 -93 -25.5t-99 -8.5zM581 359l-31 18q-17 24 -17 54l27 52q24 17 55 10l20 -17v-7h7q24 -27 17 -65l-20 -31q-24 -20 -58 -14zM420 404l-31 17
l-7 17h-7l-3 41h-24l-62 -3q-45 10 -96 6.5t-92 20.5v7l-14 7l-3 10h-7q-31 41 -24 96q7 45 41 75q44 35 103 28q92 -4 167.5 -45t160.5 -65v-7l11 -3v-7h6v-10h7l7 -48l-14 -31h-6l-35 -65l-20 -24q-24 -20 -58 -17zM697 462l-24 14l-3 10h-7q-17 31 -17 69l10 20h7l10 14
l34 3l41 -20v-7l11 -4q17 -23 13 -58l-10 -20l-10 -11q-24 -13 -55 -10z" />
    <glyph glyph-name="uni3055" unicode="&#x3055;" horiz-adv-x="681" 
d="M375 38q-72 6 -127 54l-4 14h-6q-24 34 -24 75l10 21h7l10 14h34l17 -14v-7h7l28 -38l95 -37q18 -17 14 -45l-14 -24q-20 -17 -47 -13zM474 216l-31 27q-17 86 -41 164h-31q-55 -27 -118 -34t-128 -14l-38 18v6l-10 4l-4 10q-17 10 -24 31l-10 58q7 34 38 58q37 28 92 24
q41 -13 87.5 -13h94.5v13q-21 41 -28 86l17 38l35 10l20 -10q24 -65 48 -131l34 -3q55 21 113 24l14 -3v-7l21 -11l3 -13h7l7 -38l-7 -24h-7l-7 -17l-14 -3v-7q-58 -17 -119 -21v-13q13 -45 30 -86t24 -86l-3 -10h-7l-3 -14l-14 -3v-7z" />
    <glyph glyph-name="uni3056" unicode="&#x3056;" horiz-adv-x="904" 
d="M305 -7q-51 27 -86 75q-13 38 -10 79l14 24l41 10l41 -27l34 -41q41 -14 76 -41l3 -21q-7 -27 -31 -44q-34 -21 -82 -14zM415 192l-31 27l-21 82l4 10l-4 11h-20q-48 -11 -94.5 -26t-101.5 -15l-44 20v7l-14 7l-3 10h-7q-31 41 -24 96q7 41 38 72q44 31 100.5 32.5
t111.5 5.5l10 -4l11 4v13l-11 76l17 24l31 7l28 -18q30 -48 41 -106h34q68 17 140 31l35 -20q17 -24 13 -59l-10 -20h-7v-7h-7v-7q-44 -14 -87 -26t-87 -25v-14q13 -75 27 -151l-3 -10h-7l-4 -14l-13 -3v-7zM665 538l-31 20q-21 34 -24 75q3 31 31 52l44 3l31 -17v7l-3 27
l6 17h7l4 11h7v7l41 6l54 -27l4 -10h7q13 -24 10 -58l-17 -31q-28 -24 -65 -17l-24 10v7h-7l-3 -52h-7l-7 -17l-14 -3v-7z" />
    <glyph glyph-name="uni3057" unicode="&#x3057;" horiz-adv-x="605" 
d="M271 48q-51 7 -89 41q-61 99 -88.5 212t-54.5 226l3 21l-3 37q6 38 30 69h7v7q45 34 103 31q38 -7 65 -31l10 -10l4 -14h7q24 -41 17 -93l-4 -10l4 -38q-11 -27 -7 -61l3 -48q-17 -62 -20 -130q0 -45 31 -76l51 -3l34 17v7l10 10h7v7l31 27h7l3 11h7v7l11 6l17 48h7
l13 14q17 17 41 14l14 -7v-7h7l7 -24h7l3 -44q-7 -38 -21 -69l-10 -7l-17 -27l-10 -4l-7 -17l-10 -3l-11 -17q-51 -48 -113 -65v-7h-96z" />
    <glyph glyph-name="uni3058" unicode="&#x3058;" horiz-adv-x="779" 
d="M278 38l-85 61l-45 65l-17 11q-24 61 -44.5 124.5t-27.5 131.5l4 11l-14 92q-7 69 37 117q38 34 93 27l44 -17v-7l21 -14q34 -68 31 -150v-158q-21 -38 -14 -86l24 -65l7 -3v-7q27 -10 58 -10v7l28 10v7l27 10v7h7l10 27h7v7l17 17h7v7h7v7h7l3 10h7l27 38l31 7l24 -14
q17 -41 10 -89l-27 -58l-48 -52h-7v-10l-20 -10v-7q-41 -24 -87.5 -37.5t-101.5 -6.5zM566 476l-21 7v7l-17 6q-24 38 -24 86l11 24l10 3l7 11q17 13 44 10l17 -3v-7l17 -4v7l-3 28l14 30l10 4l10 13l41 4l35 -17l6 -17h7l7 -35l-14 -37q-23 -24 -58 -24l-24 7v6h-13v-13h6
l7 -38l-13 -34q-28 -24 -62 -24z" />
    <glyph glyph-name="uni3059" unicode="&#x3059;" horiz-adv-x="736" 
d="M418 -24l-31 27l-4 31q38 38 38 89h-7q-24 -14 -55 -10l-48 14v6q-20 4 -37 21q-31 51 -38 113q0 51 28 92l20 11l17 24q45 20 103 13l51 -27v45l-7 30h-13q-72 -17 -144 -30.5t-151 -17.5q-37 11 -68 45q-28 41 -24 92l13 41h7l21 31l17 7v7q34 17 79 14q79 -11 154 -28
l55 4l31 -11v11q-14 44 -14 96l24 37l34 7l21 -14l6 -17h7q0 -54 14 -102h10q48 17 100 20l37 -20q28 -31 21 -76q-14 -37 -52 -51q-51 -7 -95 -28v-20l6 -65l-3 -17l3 -24l-3 -21l3 -14q-24 -78 -30.5 -164t-47.5 -157q-21 -18 -48 -14zM421 222v28l-31 65l-24 7l-13 -7
l-7 -38q-4 -34 24 -58l17 -7z" />
    <glyph glyph-name="uni305A" unicode="&#x305a;" horiz-adv-x="911" 
d="M389 -55l-31 27l-3 31q30 58 41 127q-62 7 -117 34q-27 62 -20 134q13 58 51 106l10 3l11 14l30 4l21 -4l31 4l24 -11l3 31l-7 14h-41q-58 -14 -121.5 -19t-128.5 -9q-37 11 -65 41l-3 11h-7q-28 41 -21 92q7 45 45 79l17 7v7q38 17 86 13q58 -6 116 -13l116 -14v21
l-3 20q0 38 24 65l31 7l24 -14q24 -48 24 -106h24l85 4l11 -4l30 4q42 -14 79 -42q17 -24 14 -54l-24 -38l-24 -7v-7q-41 -17 -89 -15t-93 -9v-17l7 -55q-7 -54 -13.5 -109t-20.5 -106l4 -89q3 -52 -24 -93h-7l-11 -27h-6l-7 -17l-14 -4v-7q-27 -13 -58 -10zM399 226v34
l-20 65l-11 4l-17 -72l14 -24zM793 654l-38 17q-17 -17 -44 -14l-38 18q-17 20 -14 51l11 20h6l11 14l34 4l24 -7l7 17h7l10 14l34 3l28 -14l3 -10l17 -10q21 -21 17 -55l-17 -31q-24 -20 -58 -17z" />
    <glyph glyph-name="uni305B" unicode="&#x305b;" horiz-adv-x="808" 
d="M502 14q-79 3 -144 44l-4 14l-37 27q-38 48 -50 108t-5 125q-86 3 -165 27v7l-13 4l-10 10q-35 41 -31 99q7 38 31 69h6v7q45 34 103 30q41 -13 86 -17q-4 52 10 100h7v7h7v6l27 4l21 -10q17 -35 17 -72l-4 -18l4 -34l55 -10l71 7l24 161l11 3v7l31 3l17 -10
q20 -55 17 -116l-7 -52l72 -6q24 13 51 10q28 -7 48 -31q21 -31 14 -69l-24 -37q-38 -17 -82.5 -22.5t-85.5 -18.5v-24l4 -11q-14 -51 -31 -102l-14 -4v-7l-45 -3l-10 3v7l-13 4q-18 20 -18 51l21 58h-82l-21 -7v-30l4 -31l-4 -17q4 -62 52 -106l10 -4v-7l48 -10v-7l72 -3
q41 37 99 34l27 -31v-31l-6 -17l-31 -27l-38 -14v-7l-24 -3v-7z" />
    <glyph glyph-name="uni305C" unicode="&#x305c;" horiz-adv-x="934" 
d="M436 -4q-47 0 -89 18v6l-65 35q-34 44 -56 93.5t-22 111.5q-76 -3 -131 45q-34 41 -30 96q6 34 27 61l10 4l7 10q38 31 89 27l34 -10q4 41 18 79h6v7h7v6l35 14l17 -14v-10h6l14 -89l110 -14v21l-4 14q4 78 31 150l34 7q21 -7 28 -27l7 -65l-7 -82h72l31 3l37 -21
q21 -24 24 -58q-3 -31 -31 -55q-72 -20 -147 -37q0 -45 -10 -86l-10 -10l-48 -7l-31 27l-4 55h-10q-31 -17 -68 -27v-58q6 -38 34 -69q34 -31 82 -38q58 11 116 14l21 -10l10 -28q-3 -30 -24 -51l-13 -3v-7q-48 -28 -107 -28zM710 517l-34 24q-24 38 -27 86l20 44
q21 17 52 14l34 -14v-7l10 -3v-7h7v-3h7q-7 47 20 82l31 7l45 -21q20 -31 17 -75l-14 -24q-24 -21 -58 -14l-24 14l-14 10v-14q14 -20 11 -48l-21 -34q-27 -20 -62 -17z" />
    <glyph glyph-name="uni305D" unicode="&#x305d;" horiz-adv-x="596" 
d="M389 0l-31 20l-3 11l-14 3q-38 55 -31 130q10 72 41 134h-14q-92 7 -164 -41v-7h-34l-34 24q-18 24 -14 55l14 30h6v7l17 14h7v7l38 31h7l14 20l37 28l4 6h6v7l38 17v7h-27l-113 -7l-41 18v6l-14 4l-10 10q-35 41 -31 99q7 38 31 69h7v7q44 34 102 31q93 0 173.5 -24
t155.5 -59v-6l10 -4v-7h7v-10h7l7 -69l-24 -37l-28 -17l-10 -17l-27 -14v-7l-65 -44v-14h13l38 7l41 -4l28 4l20 -7v-7l10 -3q18 -21 14 -52l-17 -27q-41 -28 -72 -69l-14 -37q-20 -45 -24 -100l7 -20l28 -21l7 -41q-7 -24 -31 -31z" />
    <glyph glyph-name="uni305E" unicode="&#x305e;" horiz-adv-x="862" 
d="M388 3l-34 17q-62 65 -55 161l17 62h-10l-34 -3l-14 3l-31 -3l-10 3q-51 -17 -106 -24l-14 7v7h-7l-7 34l4 10h7v7h7v7q20 17 44 27l106 120l10 21h7v7l14 17h7v10h-7v7h-41l-93 -10q-37 3 -68 27l-10 10q-31 41 -31 93l10 37h7l14 31h7v7q68 38 150 38q79 -4 147 -28v-7
q86 -13 158 -61q21 -31 14 -69l-24 -37l-31 -21l-10 -17l-14 -3l-3 -14h-7v-7h-7v-7h-10v-7h-7l-11 -20l-10 -4l-17 -24l-10 -3l-31 -41l-10 -4v-10h37q65 14 137 21l17 -11q21 -20 14 -54l-17 -28l-41 -20l-3 -7l-38 -14q-31 -34 -45 -75l4 -24l-7 -31q24 -38 27 -82
l-20 -21h-21zM648 466l-30 27l-7 48l13 24l42 10l20 -10l24 -27l4 -38l-18 -28zM734 555l-17 6v7l-17 11q-21 24 -17 58q3 24 24 41l13 3v7l45 4l34 -17l7 -18h7l10 -65l-14 -24q-34 -17 -75 -13z" />
    <glyph glyph-name="uni305F" unicode="&#x305f;" horiz-adv-x="818" 
d="M279 -17l-18 10l-10 38q28 75 31 161l-3 44l3 24l-3 24l3 51l-3 28l3 58h-21q-51 -34 -113 -38q-44 7 -78 42q-31 37 -31 92q7 44 41 79q44 37 110 27l34 -3q27 10 61 7v10l-6 48q0 37 30 61l35 7l27 -20q17 -48 21 -100h20l45 7l27 -7q55 21 116 18l28 -18v-6h7
q13 -24 10 -59l-17 -30q-55 -24 -116.5 -36t-113.5 -50q-13 -41 -13 -89l3 -24q-7 -89 -22.5 -176.5t-45.5 -169.5q-17 -14 -41 -10zM642 99q-42 0 -76 21l-3 10l-28 14q-20 20 -20 51l20 27l55 11q41 -21 93 -17l44 6l14 -3v-7l17 -10q21 -21 17 -55l-17 -31
q-51 -27 -116 -17zM539 315l-17 10l-11 34l18 35l10 3l14 14q37 27 82 34l24 -14q17 -17 13 -44q-13 -31 -48 -48q-37 -21 -85 -24z" />
    <glyph glyph-name="uni3060" unicode="&#x3060;" horiz-adv-x="893" 
d="M186 -17l-31 27l-7 34q24 55 34.5 115t27.5 118l-3 24l10 55h-14q-31 -10 -65 -7q-38 10 -65 41l-3 11h-7q-24 41 -21 92q7 45 41 75q41 38 103 31l55 -3l3 82l-3 10l24 34l34 4q21 -7 27 -28q21 -51 14 -116h14l31 3l61 -6q24 13 52 10l34 -17l3 -11h7q14 -23 10 -58
q-13 -37 -51 -51q-38 -21 -82.5 -27.5t-85.5 -27.5q-10 -103 -29 -205.5t-63 -195.5q-24 -17 -55 -13zM645 68q-45 0 -82 21v7l-28 17q-13 24 -10 55l10 17l48 7q21 -17 52 -17l27 3l41 -14q14 -17 10 -37l-27 -45zM528 281l-13 7q-14 13 -10 37l13 28q58 48 130 58l24 -28
v-27q-17 -27 -51 -41q-38 -14 -72 -27v-7h-21zM683 507l-52 31q-24 44 -24 95l14 28q24 20 62 14q37 -28 58 -66l7 -44q-7 -27 -21 -48q-17 -14 -44 -10zM778 609v7l-27 11q-31 37 -27 89l10 20h7l10 14l31 3l41 -24q31 -31 31 -75l-21 -31q-24 -17 -55 -14z" />
    <glyph glyph-name="uni3061" unicode="&#x3061;" horiz-adv-x="688" 
d="M430 -10l-27 24l-4 24l10 20h7l10 14l24 3q45 41 35 106l-28 52l-31 3l-78 -17l-14 -24q-24 -17 -55 -14l-24 17q-17 18 -13 45q17 82 37 161h-7q-65 -21 -140 -17l-41 20v7l-17 11q-35 41 -28 95l14 41h7l10 21l10 3v7l14 4v7q48 17 101 15t105 9q-11 58 17 99l13 14
l38 6l24 -13q17 -38 17 -79l-3 -21l61 -3l55 3l89 -20v-7l11 -3v-7h6q14 -24 11 -58l-17 -31q-55 -28 -117 -40t-120 -32q-13 -55 -20 -110h27l24 4q48 3 86 -24q34 -38 44 -86t7 -103q-17 -51 -55 -96q-31 -30 -75 -30z" />
    <glyph glyph-name="uni3062" unicode="&#x3062;" horiz-adv-x="924" 
d="M395 -31l-34 24q-17 24 -14 55l14 31h7v6q44 14 85 35v7l18 24q0 30 -21 54l-79 7q-31 -17 -68 -17l-21 14q-17 17 -13 41q23 72 44 147h-24q-75 -20 -157 -27q-35 10 -62 37q-31 41 -31 93q7 41 34 72l11 3v7q44 31 102 24q69 -38 151 -48q3 65 24 123l31 4
q27 -41 20 -100l-7 -37h14q69 24 144 27l34 -17q24 -27 21 -65l-28 -41q-44 -21 -93.5 -27.5t-101.5 -13.5l-20 -117h7l102 4l55 -38q31 -65 45 -137q-4 -38 -21 -68l-10 -4v-7l-52 -48h-13v-6q-28 -14 -59 -14v-7h-34zM683 575l-31 17q-27 48 -27 106l24 35l41 7l31 -18
l24 -47l10 -4v10l-7 48l14 28q24 20 61 13q35 -20 55 -58l7 -41l-7 -20h-7l-7 -18l-13 -3v-7l-45 -7l-37 24l-4 7h-7q0 -31 -17 -55q-24 -17 -58 -17z" />
    <glyph glyph-name="uni3063" unicode="&#x3063;" horiz-adv-x="554" 
d="M402 69l-18 11l-10 34l10 44h7q11 35 11 76l-24 27h-21q-55 -17 -108 -34t-118 -10l-27 10v7l-17 3v7l-18 10q-30 38 -27 93q7 31 24 58h7l3 10h7v7q38 27 93 24l113 -7l34 4q85 -7 147 -65q34 -38 39.5 -89.5t5.5 -102.5q-7 -52 -38 -93h-7l-10 -13z" />
    <glyph glyph-name="uni3064" unicode="&#x3064;" horiz-adv-x="794" 
d="M481 116l-31 14v7h-7l-7 34l7 14l69 34v7q31 10 55 34l10 17h7q27 41 17 96q-38 55 -103 41q-92 -24 -183 -51.5t-194 -27.5l-31 14v7l-20 14l-3 10h-7q-21 34 -17 82q6 38 37 65l24 11v6l34 11v6q66 21 134 40t140 22l65 -3l42 3q61 -17 119 -48l7 -10l38 -24
q21 -55 46.5 -108t18.5 -118q-7 -58 -44 -103l-38 -34h-7v-7l-24 -10v-7h-7v-7q-31 -20 -65 -24v-7h-82z" />
    <glyph glyph-name="uni3065" unicode="&#x3065;" horiz-adv-x="948" 
d="M529 41l-14 3v7l-24 7v7l-13 7l-11 41l11 24l31 14v6l27 11v7h7l13 37l-13 48l-21 4q-79 -14 -161 -21t-157 -31q-79 -10 -130 38q-35 41 -28 99l17 48h7l14 21l10 3v7l17 3v7l69 7q48 -17 101 -22t104 -9l55 11l45 -4l78 4q41 -14 76 -45q37 -34 47.5 -80.5t10.5 -97.5
l-14 -51h-7l-20 -45l-48 -45h-10v-6q-31 -17 -69 -14zM697 466l-24 13q-24 35 -21 79l14 45q21 17 48 13l24 -10q31 -45 34 -99q-13 -28 -41 -41h-34zM834 544q-34 7 -58 31q-17 24 -14 58l10 42h7l4 10h6v7l41 6l59 -30q20 -28 17 -62l-21 -38q-20 -20 -51 -24z" />
    <glyph glyph-name="uni3066" unicode="&#x3066;" horiz-adv-x="746" 
d="M491 34l-31 21l-3 10l-14 7q-34 55 -47.5 116.5t-7.5 133.5q21 75 55 144h-92q-52 -7 -100 -17.5t-99 -13.5q-48 10 -82 51q-31 45 -27 103l17 51h6l24 35q45 34 107 30q99 4 186.5 -30.5t186.5 -30.5l65 7l41 -21q31 -31 24 -79l-27 -44q-48 -21 -96 -38l-4 -10l-17 -17
v-7l-20 -21q-35 -65 -41 -137l3 -24l-3 -20q6 -52 34 -96h7v-7l24 -10q17 -21 13 -52q-10 -24 -34 -34h-48z" />
    <glyph glyph-name="uni3067" unicode="&#x3067;" horiz-adv-x="978" 
d="M546 20l-35 18l-34 34q-21 41 -31 87t-7 98q0 44 10.5 85t24.5 83h-7q-79 -28 -156 -64t-166 -43q-34 11 -65 35q-41 44 -38 109q7 48 45 82l10 4v7q72 27 144 51t154 27q31 -13 72 -10l37 4l55 -7l34 3l42 -17l27 -38l3 -54q-6 -31 -34 -52l-34 -17q-41 -68 -48 -151
q3 -44 5 -90.5t29 -83.5h7q17 -28 17 -62l-38 -34zM775 490l-27 17q-28 34 -28 82l10 41l14 14l48 3l17 -10q0 34 17 61q21 21 52 18l13 -4v-7l14 -3q34 -34 31 -86l-27 -41q-18 -14 -42 -10l-41 24v3h-7v-17l14 -44l-14 -28q-20 -13 -44 -13z" />
    <glyph glyph-name="uni3068" unicode="&#x3068;" horiz-adv-x="688" 
d="M416 24v7l-41 7v6l-44 21q-59 58 -62 137q7 51 27 96l-30 31v6h-7v7h-11v7l-10 7l-7 14l-20 10q-38 24 -69 62v6h-7v7l-17 7l-10 10l-27 38l-11 10q-31 41 -31 93l11 38h7l13 30h7v7l31 14v7l75 7q31 -7 55 -28l10 -10l24 -55h7q21 -41 31 -89t34 -89h7q28 -27 38 -62
l10 -3q45 31 98 46.5t108 18.5l27 -14q17 -20 17 -48l-7 -13h-7l-3 -14q-48 -17 -97.5 -31t-90.5 -48q-18 -24 -45 -44h-7l-10 -48q10 -24 34 -41q38 -17 86 -11q41 21 89 28l24 -14q17 -17 14 -44q-14 -31 -42 -52q-34 -24 -80 -25.5t-91 -1.5z" />
    <glyph glyph-name="uni3069" unicode="&#x3069;" horiz-adv-x="900" 
d="M375 48l-38 7v6l-34 11v7l-27 17l-4 10l-17 7q-34 58 -24 133l4 18l-21 10l-31 27v7l-10 3l-4 11h-6l-11 10v7l-24 17q-30 55 -59.5 109.5t-29.5 119.5l14 45h7l20 31l18 7v7q37 17 85 13l52 -20l3 -11l14 -6l3 -11h7q24 -41 39.5 -89t32.5 -92h7q17 -31 20 -65h7v3l21 7
l6 10l45 31v7l17 7v7q24 17 58 17l14 -4v-7l14 -3q20 -21 13 -55l-17 -27l-17 -7l-17 -27l-38 -28l-85 -58l-4 -7l-20 -10q-10 -31 -7 -65q38 -31 92 -24q55 20 117 20q17 -13 10 -41q-7 -31 -34 -55l-21 -6v-7q-65 -28 -140 -24zM639 445l-11 3v7l-13 4q-24 41 -21 96
q4 30 31 51l41 3l24 -20q21 -48 21 -106l-14 -24l-14 -4v-7zM779 520l-34 24q-21 38 -21 83l24 41l41 10l24 -7v-7l17 -10q31 -34 31 -82l-24 -38l-24 -7v-7h-34z" />
    <glyph glyph-name="uni306A" unicode="&#x306a;" horiz-adv-x="811" 
d="M450 -7l-62 27l-3 11l-11 3v7l-17 10l-17 52q4 30 24 54h7v7h7v7l27 14v7q35 20 79 24v27q-14 41 -14 86q4 24 24 41l38 7l24 -14q27 -69 31 -144l55 -24q13 -17 10 -41q-7 -21 -28 -27h-30q0 -59 -45 -100l-10 -3v-7q-38 -24 -89 -24zM477 103q17 13 14 37h-17l-45 -20
l-3 -17l27 -11zM251 178l-17 10q-14 17 -10 38l10 24h7q17 72 27 144l-3 10h-17q-52 -21 -113 -21l-45 21v7l-24 17q-27 38 -24 89q7 41 38 72q41 38 99 31l52 -4l51 7l10 -3q-3 65 17 116l35 10l20 -10q21 -55 14 -123h31v7l51 7l31 -14q27 -28 20 -69l-17 -30l-41 -21v-7
q-48 -24 -96 -41q-7 -65 -22 -130t-43 -123h-7v-7zM707 401l-38 27l-27 31l-11 51l14 24l41 10l24 -13l31 -31q31 -24 27 -62l-13 -24q-21 -17 -48 -13z" />
    <glyph glyph-name="uni306B" unicode="&#x306b;" horiz-adv-x="742" 
d="M197 55l-38 20l-27 28q-35 75 -48 161l3 10q-14 68 -29 136.5t-15 140.5q-4 55 27 96l10 4l7 10q38 31 93 24l44 -17v-7l17 -10q41 -62 31 -148q-10 -61 -20.5 -123t-6.5 -127h6q31 31 72 31l21 -14l7 -34l-45 -75l-10 -10h-7q-3 -31 -17 -59h-7l-10 -20l-14 -4v-7z
M618 240q-52 3 -89 30v7l-14 7q-17 21 -17 51l7 14l10 4v6l48 4q62 -24 127 -34q13 -18 10 -41l-17 -24l-10 -4v-7l-14 -3v-7zM512 496l-28 18l-10 41l10 20h7l7 14l10 3l21 28q27 27 65 24l31 -17q20 -21 13 -52q-17 -34 -51 -51q-34 -21 -75 -28z" />
    <glyph glyph-name="uni306C" unicode="&#x306c;" horiz-adv-x="873" 
d="M235 65l-48 24v7l-14 7q-58 54 -58 130l48 102l-31 45l-10 3l-4 11q-17 10 -24 31q-48 65 -55 143q7 35 28 62l10 3l7 11q38 31 89 27q41 -7 72 -38q31 -44 37.5 -97t17.5 -105h27l17 11v6q45 24 100 21q3 27 20 51l34 14l28 -17q10 -24 10 -48q79 -17 151 -51
q55 13 109 24l21 -11q17 -17 14 -44l-24 -31l-65 -10v-7q27 -55 27 -123l-31 -62q-34 -17 -79 -10l-48 24q-48 68 -34 161l17 37q-44 14 -92 21q-14 -52 -38 -99q45 -21 86 -45v-7l13 -7q21 -24 14 -61l-3 -14h-7v-10h-7v-7h-7v-7h-10v-7l-34 -7q-48 0 -83 38l-3 10h-24
l-21 -34l-54 -45q-41 -20 -89 -20zM293 164v7l24 24h7l3 17l-24 7v7h-10v7l-10 3v7l-55 24l-21 -48l17 -31l14 -10v-7h10v-7l28 -3zM687 229v11q-7 34 -21 65h-7v-45l24 -34zM392 339l17 41h-7l-34 -24v-7l21 -14z" />
    <glyph glyph-name="uni306D" unicode="&#x306d;" horiz-adv-x="790" 
d="M282 -31l-21 10v7l-10 4q-24 44 -29 95.5t-2 106.5h-14v-7h-6l-4 -10h-7l-7 -14q-20 -14 -44 -14l-38 31l-3 31l20 37h7l10 21l21 21l48 34q17 24 14 58l-11 34h-41l-31 -7v-6l-68 -18l-14 7v7h-7l-6 34l6 14q62 34 137 38v13l-3 35l3 13l-6 48l6 24l-3 41l21 55h6l7 17
l21 11v6q41 24 92 21q38 -7 69 -31v-7h7q44 -48 34 -120q-14 -34 -14 -71q17 -18 14 -42l-4 -13h11q48 17 102 10q41 -10 72 -45q41 -75 45 -164h7v-7l27 -10l14 -17l27 -14q14 -20 10 -48l-6 -17l-11 -10l-48 -7l-27 14l-34 -62l-11 -10l-17 -7l-3 -14l-14 -3v-7
q-44 -34 -103 -31q-37 17 -68 48v7h-7q-31 41 -24 96q7 58 45 99q48 31 109 34l35 -3v27l-18 48q-24 17 -54 14l-86 -51l-3 -7l-38 -17q-7 -41 -7 -86t-3 -86l3 -34l-3 -14q17 -41 17 -89q-11 -30 -41 -48zM518 157l10 4l14 14l14 27l-38 7l-24 -7l-3 -34l10 -14h14z" />
    <glyph glyph-name="uni306E" unicode="&#x306e;" horiz-adv-x="688" 
d="M563 109l-27 24l-3 28q41 65 27 154q-14 75 -68 133l-7 4l-7 20l-17 4q-4 -51 -22.5 -94t-46.5 -84l-27 -24l-24 -34l-10 -4l-18 -24l-10 -3l-10 -17q-34 -24 -79 -17l-17 3l-41 -3l-41 27q-38 38 -57 85.5t-19 102.5q0 72 35 130h7l13 28l35 31l51 17l10 13l28 4v7
l37 10l21 -3l20 3q86 -7 161 -31q52 -38 93 -85.5t72 -102.5q24 -58 27 -123l-3 -35l3 -48q-3 -34 -20 -61q-28 -31 -66 -35zM221 329l10 3q41 48 52 110l-7 78l3 24h-7l-75 -44q-17 -31 -24 -65q3 -58 34 -106l11 -4z" />
    <glyph glyph-name="uni306F" unicode="&#x306f;" horiz-adv-x="814" 
d="M251 31l-44 10v7l-17 10q-69 123 -105 260t-46 281q7 38 31 65l10 4v7q41 30 96 23q31 -3 58 -23l10 -11q41 -44 31 -113l-3 -34q10 -34 7 -75q-21 -41 -18 -96l4 -48l-7 -28l7 -75h7l44 7l34 -21q21 -24 18 -54l-7 -21h-7q-10 -21 -24 -41h-7l-14 -21q-24 -17 -58 -13z
M549 151q-55 20 -99 58q-34 55 -34 120l27 54h7l3 11h7v7l21 6v7q30 14 68 17l41 -3v24l-7 38l4 10l-14 7q-55 -21 -120 -24l-27 24l-4 27l21 27q58 14 116 31v14l-13 72l13 20l31 7l21 -10l31 -72h20l45 4l13 -11q14 -20 11 -48q-7 -24 -31 -30l-28 -7v-11l14 -113l48 -34
q41 -38 41 -96l-7 -17l-10 -10l-48 -7l-31 21q-10 -38 -34 -72l-10 -11l-28 -13l-3 -7q-24 -14 -55 -10zM577 277l10 41h-31l-14 -7l-3 -13l3 -14l31 -10z" />
    <glyph glyph-name="uni3070" unicode="&#x3070;" horiz-adv-x="1006" 
d="M203 -31l-34 24v7h-7q-34 127 -73.5 250t-42.5 264q-7 65 27 116h7l3 10h7v7q41 31 96 24q38 -3 69 -34l3 -10h7q31 -72 24 -161q-3 -52 -13.5 -101.5t-13.5 -104.5l3 -38l-3 -27l10 -3l14 30l20 18l38 3l31 -17q20 -21 13 -51q-13 -52 -55 -93l-10 -7q-13 -48 -51 -89
q-28 -24 -69 -17zM604 109l-82 35q-28 34 -41.5 75t-10.5 89l18 45l10 3l7 10l7 11l13 13q45 17 96 21v14q-10 23 -7 51h-17l-106 -31l-34 24l-4 31l21 34q62 21 123 41l4 38l-7 31l17 24l31 7l27 -18l21 -51q27 3 51 -10l3 -14h7l4 -38q-11 -24 -35 -34h-17v-17
q14 -72 28 -147l34 -35l31 -47h7q20 -21 13 -55l-17 -28q-20 -13 -51 -10l-24 10l-34 -48h-7v-6q-34 -21 -79 -18zM621 202q21 38 14 86l-38 20l-14 -7l-3 -41l24 -55l14 -7zM820 548l-48 20q-21 28 -14 69l14 34q17 17 41 14l34 -24q21 -28 21 -65l-17 -41zM895 654l-31 27
l-7 52l14 24l41 10l24 -14q31 -24 24 -65l-7 -17l-10 -10z" />
    <glyph glyph-name="uni3071" unicode="&#x3071;" horiz-adv-x="1003" 
d="M207 -21l-34 21l-17 31h-7q-27 130 -66.5 255t-43.5 262q7 51 48 89q45 34 106 31q52 -7 90 -52q34 -48 27 -109q-7 -62 -26 -117t-29 -113q0 -61 14 -120h10l7 11l58 7q21 -24 14 -62l-17 -34h-7q-17 -41 -51 -72q-31 -31 -76 -28zM580 55l-71 34q-31 48 -38 106l24 55
l38 31h6l11 13l61 7v14q-13 62 -17 127h-7q-44 -14 -92 -17l-28 17l-6 41l10 24q51 24 109 31v44l-6 55l20 20h24l17 -10q21 -38 31 -82h14l34 7l24 -14l14 -41l-14 -27q-24 -14 -48 -21l-3 -17q10 -51 13.5 -104.5t40.5 -90.5l55 -52v-7h7q21 -20 14 -54l-17 -28
q-21 -13 -52 -10l-24 17l-13 28h-7l-21 -52l-55 -44h-48zM604 151v6q14 21 11 45l-4 17h-13l-31 -27v-11l13 -27zM820 507l-44 24q-31 44 -28 106l21 27l27 7q0 34 21 58q24 31 61 28l45 -28q41 -44 34 -113q-3 -37 -31 -68l-10 -7l-3 -10q-38 -31 -93 -24zM858 613l3 24
l-3 10h-7l-7 -24l4 -14h6z" />
    <glyph glyph-name="uni3072" unicode="&#x3072;" horiz-adv-x="724" 
d="M462 82l-173 7v7l-31 13v7h-7q-38 59 -31 134q10 44 22 88.5t19 92.5h-10l-34 -6v-7q-41 -17 -93 -11l-27 11v7l-24 10l-10 10q-38 45 -31 106q3 38 31 69h6v7q45 37 110 30q55 -3 106 -17l31 4l10 -4l31 4q28 -7 48 -31q21 -31 14 -69q-48 -78 -75.5 -164t-44.5 -175
l17 -44l51 -4l52 31l7 14l20 20q28 48 34 107l-3 20q17 41 24 86l-3 34l6 14q18 13 45 10l17 -10q7 -38 21 -76l13 -6l14 -18l51 -20l7 -34q-7 -21 -27 -28l-41 -7l-45 17q-10 -51 -30.5 -97t-58.5 -84q-34 -31 3 -41t-11 -7z" />
    <glyph glyph-name="uni3073" unicode="&#x3073;" horiz-adv-x="976" 
d="M411 58l-79 38l-20 20q-28 55 -28 120q7 52 21 103t20 103h-3q-65 -59 -154 -62l-62 34q-38 41 -34 100q7 34 27 61l11 4l6 10q62 38 141 24l48 -4q51 21 109 31q35 0 59 -24q17 -24 13 -58q-13 -92 -42.5 -179.5t-32.5 -183.5q14 -20 41 -14v7h7l3 10h7v7h7l3 14h7l4 10
h7l3 14h7q20 45 32 94.5t30 93.5l10 4l7 10q24 10 51 7l24 -17v-10h7l3 -45l-10 -75q27 -21 62 -28q13 -17 10 -37q-7 -21 -28 -28h-44l-31 10l-14 -34l-10 -3l-31 -52l-10 -3l-17 -27l-21 -11v-7h-10v-6q-44 -28 -106 -21zM791 414l-10 4v7l-31 20q-27 27 -24 65l24 34
l41 7l45 -20q27 -31 27 -76l-17 -27q-24 -17 -55 -14zM880 565l-10 3v7l-14 4q-27 27 -27 65l10 24q21 17 48 13l51 -20l4 -14h7l3 -44l-14 -24h-6v-7z" />
    <glyph glyph-name="uni3074" unicode="&#x3074;" horiz-adv-x="984" 
d="M401 27q-38 11 -72 31l-21 21q-24 41 -27 89l3 44l-3 24q24 52 41 106.5t31 109.5h-7q-69 -48 -158 -48q-44 10 -78 51q-28 41 -24 93q6 48 44 82l10 3v7q65 28 144 28l21 -4v-7q51 -27 109 -34l45 7q27 -7 48 -31q20 -31 14 -68l-42 -93h-6v-10h-7q0 -27 -14 -51l-10 -7
q-21 -48 -41.5 -96t-20.5 -103l14 -31l27 -10q41 7 76 31l3 7h7l3 10h7v7l28 27q24 69 24 151l-4 24l10 31h7l4 10h6v7l48 7l28 -14q17 -48 44 -89l38 -21q21 -24 14 -58l-4 -10h-7l-6 -17l-14 -4v-7l-45 -3l-17 3l-31 -82h-6l-7 -17l-14 -3v-7l-62 -58q-65 -35 -150 -28z
M812 425q-35 3 -62 23l-3 11l-11 3l-27 72q14 86 55 158h7v6q24 18 58 14q34 -7 61 -24q52 -44 45 -113l-7 -37h-7q0 -31 -17 -55l-14 -11l-6 -13l-14 -14q-28 -17 -58 -20zM808 510v10q17 11 14 28h-7l-24 -10v-11l7 -17h10z" />
    <glyph glyph-name="uni3075" unicode="&#x3075;" horiz-adv-x="770" 
d="M320 58q-31 0 -51 17q-17 21 -14 52l10 20h7l10 14l69 7l7 65q-11 31 -24 58q-34 0 -62 24l-10 41l24 34l31 14v7h7l10 31q-45 6 -87.5 16.5t-77.5 41.5q-30 38 -27 89q7 38 34 65q58 38 137 27q69 7 117 -34l58 -55q27 -41 34 -92q-10 -62 -55 -110l-20 -10l-21 -34h-7
v-7q35 -51 42 -117q3 -82 -45 -143q-41 -28 -96 -21zM125 99l-21 7v7l-17 10q-17 21 -13 52l13 27h7v7l24 24h7l10 31h7l3 10h7v7l48 7l28 -14q20 -24 17 -58l-38 -65h-7l-7 -18l-10 -3l-7 -14q-20 -17 -51 -17zM645 144l-20 10v7l-10 3v7h-7l-31 55l-21 14q-17 34 -17 71
l21 31q20 11 44 7l52 -31l7 -17l10 -7l31 -27v-7l13 -7q21 -24 14 -61l-10 -24h-7v-7h-7v-7q-27 -14 -62 -10z" />
    <glyph glyph-name="uni3076" unicode="&#x3076;" horiz-adv-x="811" 
d="M295 -24l-31 17l-7 17h-7l-10 58l14 24l34 11l52 -7q13 13 10 37q-7 48 -31 89q-34 4 -62 28q-17 20 -13 48l27 48l10 3v7l62 45l10 24l-37 3l-62 -3q-31 10 -55 30l-10 11q-31 41 -24 95q7 38 31 66q44 41 106 34q44 -14 85 -38v-7l38 -17q58 -44 96 -106l3 -86
q-41 -72 -99 -137l-10 -3v-17q27 -72 31 -151q-7 -48 -45 -85q-41 -48 -106 -38zM76 92l-14 7l-3 17q3 59 44 103l14 14l48 13l20 -10q21 -24 14 -58l-27 -48l-31 -27l-48 -11l-10 4zM613 127q-34 17 -51 51l-3 51l13 24l41 11l45 -24l3 -14h7l7 -17l17 -11l7 -41
q-7 -24 -31 -30h-55zM596 517q-34 21 -51 55l-17 72q10 27 34 37h24l24 -13q51 -45 58 -110l-17 -27q-24 -17 -55 -14zM709 613l-30 20q-28 42 -28 89l10 21h7l11 14l30 3l31 -17v-7l10 -3q31 -31 31 -72l-20 -34q-21 -18 -52 -14z" />
    <glyph glyph-name="uni3077" unicode="&#x3077;" horiz-adv-x="868" 
d="M90 48l-20 10v7h-7q-17 24 -14 55l7 20h7l3 11h7v6l17 7l7 11l27 10v7q35 37 86 41l21 -7v-7l10 -3l7 -21h7v-31l-18 -27l-10 -4l-17 -27l-34 -21v-6l-52 -24v-7h-34zM337 58l-31 14q-14 13 -10 34l17 21l78 10q18 20 11 51l-17 65l-11 4q-27 -24 -68 -17l-38 27
q-13 24 -13 55l17 34h6v7l31 14v6q35 18 48 48q-55 21 -109 45v7l-11 3v7l-10 7q-31 38 -24 92q4 31 24 59h7l3 10h7v7q41 30 96 24q58 -21 113 -55l24 -41l21 -14q30 -38 42 -80.5t6 -94.5l-35 -51h-6l-11 -21l-20 -10l-4 -27q28 -65 28 -144l-35 -62l-44 -17v-7
q-38 -17 -82 -10zM703 65l-24 17v7l-14 7l-37 48l-7 3l-24 55l24 34l34 4l113 -100l4 -37l-4 -11h-7l-3 -13l-14 -4v-7zM707 401l-21 13l-14 14h-7v7l-13 3q-31 62 -31 137l34 58q45 31 96 38l27 -14l4 -10l24 -7q34 -58 41 -130l-38 -79l-17 -17q-37 -17 -85 -13zM755 490
v6l17 28h6l7 44h-10l-44 -20q-4 -28 -14 -48q17 -14 38 -10z" />
    <glyph glyph-name="uni3078" unicode="&#x3078;" horiz-adv-x="722" 
d="M164 123q-45 7 -79 41q-31 38 -31 93q7 44 41 78q31 31 55 66h7l41 61l34 34l17 18l21 30l14 11l27 34q38 27 86 27l37 -20q24 -45 38 -89h7l34 -62l10 -7l11 -20l10 -4l3 -10h7l34 -48l11 -7l27 -24l31 -17q20 -24 17 -58l-21 -38q-27 -17 -61 -14l-52 42l-17 17v7
l-10 3l-3 10l-24 17l-18 31l-10 4l-24 37l-17 11l-24 27q-34 -69 -72 -134l-24 -24q-3 -51 -34 -89q-41 -34 -99 -34z" />
    <glyph glyph-name="uni3079" unicode="&#x3079;" horiz-adv-x="846" 
d="M141 96q-34 7 -62 24v7l-13 6l-4 11h-7q-31 41 -27 96q10 51 48 92h7l17 24l10 3l10 24l11 4l6 10l11 17h7l17 28l17 6v7l24 24h7l17 28q44 31 106 27l27 -14l65 -109l14 -7l24 -38q55 -27 103 -65l10 -10v-7l31 -14l7 -17l37 -24q18 -24 14 -54l-10 -24h-7v-7h-7v-7
q-24 -14 -55 -10l-54 30l-7 18l-11 6l-17 24h-7l-10 11q-37 44 -85 75v7l-21 10l-17 24h-10q-41 -68 -62 -144h-7l-14 -24l-10 -3q-7 -21 -27 -38q-41 -31 -96 -27zM596 407l-37 31l-4 62l21 31l37 7l35 -21v-7l10 -7q21 -20 14 -51l-11 -24q-24 -27 -65 -21zM737 483l-14 3
v7l-17 10q-21 45 -21 96l14 24q21 21 51 17l14 -3v-7l14 -3q44 -38 34 -103l-3 -10h-7l-7 -18l-14 -3v-7z" />
    <glyph glyph-name="uni307A" unicode="&#x307a;" horiz-adv-x="811" 
d="M129 109q-37 11 -65 45q-27 38 -24 92l14 42h7l21 30l20 17l21 48l10 4l7 10l24 34l13 11l21 34l75 62l38 6q31 -3 51 -30l17 -45l7 -3l17 -28l14 -7l38 -37v-7l14 -4l13 -34h7l41 -34l65 -38l10 -13l35 -14l3 -14h7l3 -44l-13 -24q-24 -21 -58 -14l-11 3v7
q-37 21 -72 45l-68 58v7l-14 7l-24 44l-24 17l-27 31h-7q-14 -58 -34.5 -116.5t-51.5 -109.5h-7l-6 -10l-21 -10v-7q-38 -17 -86 -11zM653 349l-61 31v7l-17 7q-31 44 -35 99q14 55 38 103q34 37 82 34q52 -3 89 -41q31 -45 31 -99l-3 -11l3 -24q-7 -51 -44 -89
q-38 -17 -83 -17zM684 452l11 3l10 45q-14 10 -34 7l-11 -4v-7l-17 -10v-10l7 -21l31 -7z" />
    <glyph glyph-name="uni307B" unicode="&#x307b;" horiz-adv-x="789" 
d="M179 24q-31 3 -55 27q-38 62 -53.5 130.5t-15.5 143.5l4 48l-7 89l7 117l-4 37l14 41h7l20 31l14 4v6q34 18 75 14q41 -7 72 -44q28 -41 21 -93l-4 -55l4 -48q-10 -54 -20.5 -107.5t-10.5 -111.5q27 7 48 -13q10 -24 7 -55q-14 -48 -31 -93l-10 -7v-6h-7q-4 -18 -17 -31
q-24 -21 -58 -24zM500 137l-71 34l-4 10l-10 4q-34 58 -24 137q10 31 34 58q55 24 120 17v45h-21v-7l-30 -4v-6h-21l-14 6q-13 14 -10 38l21 24q34 17 68 27l4 24l-7 35q-45 -7 -79 10q-14 17 -10 38l13 20q52 14 98 39.5t104 25.5l24 -17v-10h7l4 -45l-14 -24
q-31 -17 -65 -20v-7l10 -41l10 -4l42 7l20 -13l7 -35l-7 -13h-7v-7q-24 -17 -55 -17v-89l7 -31h7v-7l14 -4l24 -44l17 -10l10 -24h7q17 -21 14 -48l-14 -24q-20 -17 -48 -14l-38 34h-10q-14 -41 -55 -61q-34 -11 -72 -7zM535 233v7q13 20 10 51q-21 17 -51 10v-41l10 -20z
" />
    <glyph glyph-name="uni307C" unicode="&#x307c;" horiz-adv-x="957" 
d="M150 -42l-34 24q-17 41 -24 82h-7q-27 86 -34 176.5t-17 183.5l6 68l-3 38l14 45h7l3 13h7l3 11h7v6l14 4v7q34 17 79 13q30 -6 54 -24v-6l11 -4l3 -10h7q27 -41 21 -96q-4 -82 -26 -159t-22 -163h10l7 10q24 17 55 11l17 -11q20 -20 13 -54l-10 -35h-7l-7 -17l-13 -3v-7
l-21 -21l-14 -24l-51 -51zM482 47q-44 14 -78 45q-38 51 -35 123q-3 41 28 65q58 27 130 17l3 55q-41 3 -72 27l-7 35l4 10h7v7h7v7l41 13v14l-7 41h-7l-51 -3l-11 3v7h-7l-3 31l14 24q44 20 92 27t103 4l38 -21l6 -34l-10 -17q-34 -24 -82 -17v-24l7 -21q31 7 55 -14l3 -13
h7l3 -45l-13 -24l-35 -14v-37l4 -62l38 -20l61 -62l10 -38q-10 -27 -37 -37h-17l-65 34q0 -34 -18 -62l-13 -3v-7q-45 -14 -93 -14zM513 157l10 41h-6l-31 -4v-13l24 -28zM767 523q-28 17 -45 45l-14 72l17 24l31 7l38 -28l3 -10l14 -4q27 -27 24 -68l-3 -10h-7l-4 -14
l-13 -3v-7zM856 647l-31 20q-21 31 -14 69l10 24q21 17 48 13l48 -27q21 -24 14 -58l-3 -11h-7l-7 -17l-14 -3v-7z" />
    </font>
</defs>
</svg>
